KantumruyPro-ThinItalic.ufo
<glyph name="exclam" format="2">
	<advance width="182"/>
	<unicode hex="0021"/>
	<anchor x="17" y="15" name="_center"/>
	<outline>
		<contour>
			<point x="65" y="170" type="line"/>
			<point x="81" y="170" type="line"/>
			<point x="111" y="302" type="line"/>
			<point x="194" y="660" type="line"/>
			<point x="178" y="660" type="line"/>
			<point x="95" y="302" type="line"/>
		</contour>
		<contour>
			<point x="37" y="-5" type="curve" smooth="yes"/>
			<point x="49" y="-5"/>
			<point x="59" y="5"/>
			<point x="59" y="19" type="curve" smooth="yes"/>
			<point x="59" y="31"/>
			<point x="51" y="39"/>
			<point x="39" y="39" type="curve" smooth="yes"/>
			<point x="25" y="39"/>
			<point x="17" y="28"/>
			<point x="17" y="15" type="curve" smooth="yes"/>
			<point x="17" y="3"/>
			<point x="25" y="-5"/>
		</contour>
	</outline>
</glyph>
<glyph name="numbersign" format="2">
	<advance width="577"/>
	<unicode hex="0023"/>
	<outline>
		<contour>
			<point x="276" y="0" type="line"/>
			<point x="292" y="0" type="line"/>
			<point x="511" y="660" type="line"/>
			<point x="495" y="660" type="line"/>
		</contour>
		<contour>
			<point x="36" y="213" type="line"/>
			<point x="526" y="213" type="line"/>
			<point x="527" y="227" type="line"/>
			<point x="36" y="227" type="line"/>
		</contour>
		<contour>
			<point x="78" y="0" type="line"/>
			<point x="94" y="0" type="line"/>
			<point x="313" y="660" type="line"/>
			<point x="297" y="660" type="line"/>
		</contour>
		<contour>
			<point x="92" y="443" type="line"/>
			<point x="578" y="443" type="line"/>
			<point x="578" y="457" type="line"/>
			<point x="92" y="457" type="line"/>
		</contour>
	</outline>
</glyph>
<glyph name="dollar" format="2">
	<unicode hex="0024"/>
	<advance width="574"/>
	<outline>
		<contour>
			<point x="284" y="0" type="curve" smooth="yes"/>
			<point x="410" y="0"/>
			<point x="494" y="71"/>
			<point x="494" y="175" type="curve" smooth="yes"/>
			<point x="494" y="267"/>
			<point x="419" y="304"/>
			<point x="339" y="327" type="curve" smooth="yes"/>
			<point x="293" y="340" type="line" smooth="yes"/>
			<point x="204" y="365"/>
			<point x="140" y="403"/>
			<point x="140" y="489" type="curve" smooth="yes"/>
			<point x="140" y="584"/>
			<point x="219" y="646"/>
			<point x="334" y="646" type="curve" smooth="yes"/>
			<point x="454" y="646"/>
			<point x="508" y="580"/>
			<point x="531" y="496" type="curve"/>
			<point x="546" y="504" type="line"/>
			<point x="521" y="591"/>
			<point x="461" y="660"/>
			<point x="336" y="660" type="curve" smooth="yes"/>
			<point x="207" y="660"/>
			<point x="124" y="593"/>
			<point x="124" y="488" type="curve" smooth="yes"/>
			<point x="124" y="388"/>
			<point x="203" y="348"/>
			<point x="289" y="324" type="curve" smooth="yes"/>
			<point x="332" y="312" type="line" smooth="yes"/>
			<point x="411" y="290"/>
			<point x="478" y="256"/>
			<point x="478" y="175" type="curve" smooth="yes"/>
			<point x="478" y="80"/>
			<point x="399" y="14"/>
			<point x="285" y="14" type="curve" smooth="yes"/>
			<point x="164" y="14"/>
			<point x="73" y="96"/>
			<point x="58" y="195" type="curve"/>
			<point x="43" y="190" type="line"/>
			<point x="60" y="84"/>
			<point x="157" y="0"/>
		</contour>
		<contour>
			<point x="196" y="-100" type="line"/>
			<point x="212" y="-100" type="line"/>
			<point x="411" y="760" type="line"/>
			<point x="396" y="760" type="line"/>
		</contour>
	</outline>
</glyph>
<glyph name="percent" format="2">
	<unicode hex="0025"/>
	<advance width="755"/>
	<outline>
		<contour>
			<point x="86" y="0" type="line"/>
			<point x="107" y="0" type="line"/>
			<point x="705" y="660" type="line"/>
			<point x="684" y="660" type="line"/>
		</contour>
		<contour>
			<point x="214" y="327" type="curve" smooth="yes"/>
			<point x="318" y="327"/>
			<point x="375" y="418"/>
			<point x="375" y="525" type="curve" smooth="yes"/>
			<point x="375" y="604"/>
			<point x="334" y="660"/>
			<point x="258" y="660" type="curve" smooth="yes"/>
			<point x="152" y="660"/>
			<point x="91" y="575"/>
			<point x="91" y="463" type="curve" smooth="yes"/>
			<point x="91" y="382"/>
			<point x="136" y="327"/>
		</contour>
		<contour>
			<point x="216" y="341" type="curve" smooth="yes"/>
			<point x="150" y="341"/>
			<point x="107" y="389"/>
			<point x="107" y="466" type="curve" smooth="yes"/>
			<point x="107" y="566"/>
			<point x="161" y="646"/>
			<point x="256" y="646" type="curve" smooth="yes"/>
			<point x="321" y="646"/>
			<point x="359" y="597"/>
			<point x="359" y="522" type="curve" smooth="yes"/>
			<point x="359" y="426"/>
			<point x="309" y="341"/>
		</contour>
		<contour>
			<point x="539" y="0" type="curve" smooth="yes"/>
			<point x="643" y="0"/>
			<point x="700" y="91"/>
			<point x="700" y="198" type="curve" smooth="yes"/>
			<point x="700" y="277"/>
			<point x="659" y="333"/>
			<point x="583" y="333" type="curve" smooth="yes"/>
			<point x="477" y="333"/>
			<point x="416" y="248"/>
			<point x="416" y="136" type="curve" smooth="yes"/>
			<point x="416" y="55"/>
			<point x="461" y="0"/>
		</contour>
		<contour>
			<point x="541" y="14" type="curve" smooth="yes"/>
			<point x="475" y="14"/>
			<point x="432" y="62"/>
			<point x="432" y="139" type="curve" smooth="yes"/>
			<point x="432" y="239"/>
			<point x="486" y="319"/>
			<point x="581" y="319" type="curve" smooth="yes"/>
			<point x="646" y="319"/>
			<point x="684" y="270"/>
			<point x="684" y="195" type="curve" smooth="yes"/>
			<point x="684" y="99"/>
			<point x="634" y="14"/>
		</contour>
	</outline>
</glyph>
<glyph name="ampersand" format="2">
	<advance width="525"/>
	<unicode hex="0026"/>
	<outline>
		<contour>
			<point x="201" y="-10" type="curve" smooth="yes"/>
			<point x="271" y="-10"/>
			<point x="332" y="18"/>
			<point x="381" y="65" type="curve"/>
			<point x="384" y="68" type="line"/>
			<point x="453" y="136"/>
			<point x="494" y="245"/>
			<point x="505" y="365" type="curve"/>
			<point x="489" y="365" type="line"/>
			<point x="478" y="247"/>
			<point x="438" y="146"/>
			<point x="376" y="81" type="curve"/>
			<point x="370" y="75" type="line"/>
			<point x="324" y="30"/>
			<point x="267" y="4"/>
			<point x="201" y="4" type="curve" smooth="yes"/>
			<point x="108" y="4"/>
			<point x="42" y="57"/>
			<point x="42" y="146" type="curve" smooth="yes"/>
			<point x="42" y="249"/>
			<point x="114" y="291"/>
			<point x="228" y="338" type="curve"/>
			<point x="233" y="340" type="line"/>
			<point x="352" y="387"/>
			<point x="442" y="441"/>
			<point x="442" y="551" type="curve" smooth="yes"/>
			<point x="442" y="616"/>
			<point x="399" y="666"/>
			<point x="322" y="666" type="curve" smooth="yes"/>
			<point x="240" y="666"/>
			<point x="182" y="605"/>
			<point x="182" y="519" type="curve" smooth="yes"/>
			<point x="182" y="445"/>
			<point x="221" y="321"/>
			<point x="276" y="218" type="curve" smooth="yes"/>
			<point x="364" y="52"/>
			<point x="429" y="-10"/>
			<point x="495" y="-10" type="curve"/>
			<point x="495" y="-10" type="line"/>
			<point x="499" y="5" type="line"/>
			<point x="440" y="5"/>
			<point x="383" y="51"/>
			<point x="290" y="225" type="curve" smooth="yes"/>
			<point x="227" y="343"/>
			<point x="198" y="459"/>
			<point x="198" y="520" type="curve" smooth="yes"/>
			<point x="198" y="595"/>
			<point x="251" y="652"/>
			<point x="322" y="652" type="curve" smooth="yes"/>
			<point x="387" y="652"/>
			<point x="426" y="608"/>
			<point x="426" y="551" type="curve" smooth="yes"/>
			<point x="426" y="450"/>
			<point x="344" y="400"/>
			<point x="227" y="353" type="curve"/>
			<point x="222" y="351" type="line"/>
			<point x="100" y="303"/>
			<point x="26" y="256"/>
			<point x="26" y="145" type="curve" smooth="yes"/>
			<point x="26" y="49"/>
			<point x="97" y="-10"/>
		</contour>
	</outline>
</glyph>
<glyph name="quotesingle" format="2">
	<advance width="149"/>
	<unicode hex="0027"/>
	<outline>
		<contour>
			<point x="182" y="680" type="line"/>
			<point x="165" y="680" type="line"/>
			<point x="129" y="521" type="line"/>
			<point x="145" y="521" type="line"/>
		</contour>
	</outline>
</glyph>
<glyph name="parenleft" format="2">
	<advance width="253"/>
	<unicode hex="0028"/>
	<outline>
		<contour>
			<point x="134" y="-170" type="curve"/>
			<point x="145" y="-163" type="line"/>
			<point x="90" y="-58"/>
			<point x="70" y="55"/>
			<point x="70" y="174" type="curve" smooth="yes"/>
			<point x="70" y="393"/>
			<point x="170" y="613"/>
			<point x="355" y="729" type="curve"/>
			<point x="348" y="740" type="line"/>
			<point x="171" y="638"/>
			<point x="54" y="406"/>
			<point x="54" y="174" type="curve" smooth="yes"/>
			<point x="54" y="46"/>
			<point x="81" y="-77"/>
		</contour>
	</outline>
</glyph>
<glyph name="asterisk" format="2">
	<unicode hex="002A"/>
	<advance width="503"/>
	<outline>
		<contour>
			<point x="395" y="316" type="line"/>
			<point x="409" y="323" type="line"/>
			<point x="353" y="439" type="line"/>
			<point x="320" y="502" type="line"/>
			<point x="395" y="515" type="line"/>
			<point x="528" y="542" type="line"/>
			<point x="526" y="558" type="line"/>
			<point x="393" y="531" type="line"/>
			<point x="319" y="514" type="line"/>
			<point x="337" y="592" type="line"/>
			<point x="366" y="730" type="line"/>
			<point x="350" y="730" type="line"/>
			<point x="322" y="595" type="line"/>
			<point x="307" y="515" type="line"/>
			<point x="242" y="549" type="line"/>
			<point x="127" y="604" type="line"/>
			<point x="120" y="590" type="line"/>
			<point x="235" y="535" type="line"/>
			<point x="302" y="505" type="line"/>
			<point x="243" y="451" type="line"/>
			<point x="141" y="352" type="line"/>
			<point x="152" y="341" type="line"/>
			<point x="254" y="440" type="line"/>
			<point x="310" y="497" type="line"/>
			<point x="339" y="432" type="line"/>
		</contour>
	</outline>
</glyph>
<glyph name="plus" format="2">
  <advance width="604"/>
  <unicode hex="002B"/>
  <outline>
    <contour>
      <point x="378" y="545" type="line"/>
      <point x="362" y="545" type="line"/>
      <point x="255" y="79" type="line"/>
      <point x="271" y="79" type="line"/>
    </contour>
    <contour>
      <point x="551" y="323" type="line"/>
      <point x="87" y="323" type="line"/>
      <point x="84" y="309" type="line"/>
      <point x="548" y="309" type="line"/>
    </contour>
  </outline>
</glyph>
<glyph name="comma" format="2">
  <advance width="168"/>
  <unicode hex="002C"/>
  <outline>
    <contour>
      <point x="33" y="39" type="curve" smooth="yes"/>
      <point x="17" y="39"/>
      <point x="7" y="28"/>
      <point x="7" y="15" type="curve" smooth="yes"/>
      <point x="7" y="3"/>
      <point x="14" y="-6"/>
      <point x="26" y="-6" type="curve" smooth="yes"/>
      <point x="34" y="-6"/>
      <point x="42" y="-3"/>
      <point x="47" y="7" type="curve"/>
      <point x="48" y="7" type="line"/>
      <point x="48" y="-29"/>
      <point x="17" y="-82"/>
      <point x="-34" y="-93" type="curve"/>
      <point x="-29" y="-107" type="line"/>
      <point x="20" y="-95"/>
      <point x="60" y="-39"/>
      <point x="60" y="8" type="curve" smooth="yes"/>
      <point x="60" y="26"/>
      <point x="50" y="39"/>
    </contour>
  </outline>
</glyph>
<glyph name="hyphen" format="2">
  <advance width="417"/>
  <unicode hex="002D"/>
  <outline>
    <contour>
      <point x="355" y="278" type="line"/>
      <point x="74" y="278" type="line"/>
      <point x="71" y="262" type="line"/>
      <point x="352" y="262" type="line"/>
    </contour>
  </outline>
</glyph>
<glyph name="period" format="2">
	<unicode hex="002E"/>
	<advance width="167"/>
	<outline>
		<contour>
			<point x="29" y="-5" type="curve" smooth="yes"/>
			<point x="41" y="-5"/>
			<point x="51" y="5"/>
			<point x="51" y="19" type="curve" smooth="yes"/>
			<point x="51" y="31"/>
			<point x="43" y="39"/>
			<point x="31" y="39" type="curve" smooth="yes"/>
			<point x="17" y="39"/>
			<point x="9" y="28"/>
			<point x="9" y="15" type="curve" smooth="yes"/>
			<point x="9" y="3"/>
			<point x="17" y="-5"/>
		</contour>
	</outline>
	<anchor name="_center" x="9" y="15"/>
</glyph>
<glyph name="slash" format="2">
	<advance width="349"/>
	<unicode hex="002F"/>
	<outline>
		<contour>
			<point x="424" y="730" type="line"/>
			<point x="406" y="730" type="line"/>
			<point x="-39" y="-70" type="line"/>
			<point x="-21" y="-70" type="line"/>
		</contour>
	</outline>
</glyph>
<glyph name="zero" format="2">
	<advance width="574"/>
	<unicode hex="0030"/>
	<outline>
		<contour>
			<point x="267" y="-6" type="curve" smooth="yes"/>
			<point x="401" y="-6"/>
			<point x="491" y="117"/>
			<point x="527" y="271" type="curve" smooth="yes"/>
			<point x="538" y="318"/>
			<point x="544" y="368"/>
			<point x="544" y="422" type="curve" smooth="yes"/>
			<point x="544" y="561"/>
			<point x="479" y="667"/>
			<point x="349" y="667" type="curve" smooth="yes"/>
			<point x="210" y="667"/>
			<point x="120" y="545"/>
			<point x="84" y="392" type="curve" smooth="yes"/>
			<point x="73" y="345"/>
			<point x="67" y="289"/>
			<point x="67" y="239" type="curve" smooth="yes"/>
			<point x="67" y="99"/>
			<point x="133" y="-6"/>
		</contour>
		<contour>
			<point x="268" y="8" type="curve" smooth="yes"/>
			<point x="149" y="8"/>
			<point x="83" y="97"/>
			<point x="83" y="239" type="curve" smooth="yes"/>
			<point x="83" y="289"/>
			<point x="89" y="343"/>
			<point x="100" y="390" type="curve" smooth="yes"/>
			<point x="134" y="536"/>
			<point x="216" y="653"/>
			<point x="348" y="653" type="curve" smooth="yes"/>
			<point x="464" y="653"/>
			<point x="528" y="562"/>
			<point x="528" y="422" type="curve" smooth="yes"/>
			<point x="528" y="368"/>
			<point x="522" y="320"/>
			<point x="511" y="273" type="curve" smooth="yes"/>
			<point x="477" y="128"/>
			<point x="394" y="8"/>
		</contour>
	</outline>
</glyph>
<glyph name="one" format="2">
	<advance width="285"/>
	<unicode hex="0031"/>
	<outline>
		<contour>
			<point x="121" y="0" type="line"/>
			<point x="137" y="0" type="line"/>
			<point x="290" y="660" type="line"/>
			<point x="275" y="660" type="line"/>
			<point x="227" y="591"/>
			<point x="155" y="544"/>
			<point x="91" y="522" type="curve"/>
			<point x="91" y="508" type="line"/>
			<point x="154" y="524"/>
			<point x="221" y="569"/>
			<point x="269" y="632" type="curve"/>
			<point x="268" y="630"/>
			<point x="255" y="585"/>
			<point x="252" y="568" type="curve" smooth="yes"/>
		</contour>
	</outline>
</glyph>
<glyph name="two" format="2">
	<unicode hex="0032"/>
	<advance width="512"/>
	<outline>
		<contour>
			<point x="4" y="0" type="line"/>
			<point x="410" y="0" type="line"/>
			<point x="413" y="14" type="line"/>
			<point x="60" y="14" type="line" smooth="yes"/>
			<point x="51" y="14"/>
			<point x="42" y="14"/>
			<point x="33" y="14" type="curve"/>
			<point x="33" y="15" type="line"/>
			<point x="291" y="205"/>
			<point x="480" y="343"/>
			<point x="480" y="514" type="curve" smooth="yes"/>
			<point x="480" y="620"/>
			<point x="415" y="670"/>
			<point x="314" y="670" type="curve" smooth="yes"/>
			<point x="202" y="670"/>
			<point x="126" y="593"/>
			<point x="98" y="485" type="curve"/>
			<point x="111" y="478" type="line"/>
			<point x="137" y="583"/>
			<point x="216" y="656"/>
			<point x="313" y="656" type="curve" smooth="yes"/>
			<point x="403" y="656"/>
			<point x="464" y="617"/>
			<point x="464" y="510" type="curve" smooth="yes"/>
			<point x="464" y="347"/>
			<point x="277" y="215"/>
			<point x="7" y="15" type="curve"/>
		</contour>
	</outline>
</glyph>
<glyph name="three" format="2">
	<unicode hex="0033"/>
	<advance width="485"/>
	<outline>
		<contour>
			<point x="213" y="-10" type="curve" smooth="yes"/>
			<point x="337" y="-10"/>
			<point x="423" y="70"/>
			<point x="423" y="187" type="curve" smooth="yes"/>
			<point x="423" y="264"/>
			<point x="373" y="320"/>
			<point x="308" y="333" type="curve"/>
			<point x="308" y="334" type="line"/>
			<point x="392" y="345"/>
			<point x="466" y="412"/>
			<point x="466" y="511" type="curve" smooth="yes"/>
			<point x="466" y="608"/>
			<point x="399" y="671"/>
			<point x="301" y="671" type="curve" smooth="yes"/>
			<point x="208" y="671"/>
			<point x="131" y="627"/>
			<point x="94" y="540" type="curve"/>
			<point x="108" y="531" type="line"/>
			<point x="141" y="612"/>
			<point x="211" y="657"/>
			<point x="300" y="657" type="curve" smooth="yes"/>
			<point x="387" y="657"/>
			<point x="450" y="603"/>
			<point x="450" y="510" type="curve" smooth="yes"/>
			<point x="450" y="414"/>
			<point x="377" y="341"/>
			<point x="258" y="341" type="curve" smooth="yes"/>
			<point x="249" y="341"/>
			<point x="242" y="341"/>
			<point x="230" y="342" type="curve"/>
			<point x="227" y="326" type="line"/>
			<point x="239" y="327"/>
			<point x="245" y="327"/>
			<point x="253" y="327" type="curve" smooth="yes"/>
			<point x="354" y="327"/>
			<point x="406" y="266"/>
			<point x="406" y="186" type="curve" smooth="yes"/>
			<point x="406" y="77"/>
			<point x="328" y="4"/>
			<point x="214" y="4" type="curve" smooth="yes"/>
			<point x="114" y="4"/>
			<point x="45" y="71"/>
			<point x="31" y="169" type="curve"/>
			<point x="15" y="165" type="line"/>
			<point x="34" y="56"/>
			<point x="108" y="-10"/>
		</contour>
	</outline>
</glyph>
<glyph name="four" format="2">
  <advance width="487"/>
  <unicode hex="0034"/>
  <outline>
    <contour>
      <point x="270" y="0" type="line"/>
      <point x="286" y="0" type="line"/>
      <point x="334" y="205" type="line"/>
      <point x="456" y="205" type="line"/>
      <point x="459" y="219" type="line"/>
      <point x="337" y="219" type="line"/>
      <point x="441" y="660" type="line"/>
      <point x="417" y="660" type="line"/>
      <point x="54" y="251" type="line" smooth="yes"/>
      <point x="39" y="234"/>
      <point x="32" y="226"/>
      <point x="26" y="219" type="curve"/>
      <point x="23" y="205" type="line"/>
      <point x="318" y="205" type="line"/>
    </contour>
    <contour>
      <point x="44" y="219" type="line"/>
      <point x="52" y="227"/>
      <point x="60" y="235"/>
      <point x="76" y="253" type="curve" smooth="yes"/>
      <point x="421" y="643" type="line"/>
      <point x="321" y="219" type="line"/>
    </contour>
  </outline>
</glyph>
<glyph name="five" format="2">
	<advance width="502"/>
	<unicode hex="0035"/>
	<outline>
		<contour>
			<point x="237" y="-10" type="curve" smooth="yes"/>
			<point x="369" y="-10"/>
			<point x="449" y="96"/>
			<point x="449" y="222" type="curve" smooth="yes"/>
			<point x="449" y="338"/>
			<point x="373" y="403"/>
			<point x="274" y="403" type="curve" smooth="yes"/>
			<point x="210" y="403"/>
			<point x="150" y="374"/>
			<point x="120" y="344" type="curve"/>
			<point x="208" y="646" type="line"/>
			<point x="511" y="646" type="line"/>
			<point x="514" y="660" type="line"/>
			<point x="198" y="660" type="line"/>
			<point x="100" y="334" type="line"/>
			<point x="115" y="328" type="line"/>
			<point x="147" y="357"/>
			<point x="200" y="389"/>
			<point x="268" y="389" type="curve" smooth="yes"/>
			<point x="362" y="389"/>
			<point x="433" y="331"/>
			<point x="433" y="220" type="curve" smooth="yes"/>
			<point x="433" y="106"/>
			<point x="360" y="4"/>
			<point x="238" y="4" type="curve" smooth="yes"/>
			<point x="133" y="4"/>
			<point x="59" y="82"/>
			<point x="53" y="170" type="curve"/>
			<point x="38" y="166" type="line"/>
			<point x="45" y="74"/>
			<point x="122" y="-10"/>
		</contour>
	</outline>
</glyph>
<glyph name="six" format="2">
  <advance width="507"/>
  <unicode hex="0036"/>
  <outline>
    <contour>
      <point x="258" y="-10" type="curve" smooth="yes"/>
      <point x="377" y="-10"/>
      <point x="459" y="77"/>
      <point x="459" y="206" type="curve" smooth="yes"/>
      <point x="459" y="323"/>
      <point x="386" y="392"/>
      <point x="284" y="392" type="curve" smooth="yes"/>
      <point x="183" y="392"/>
      <point x="106" y="332"/>
      <point x="81" y="238" type="curve"/>
      <point x="86" y="466"/>
      <point x="190" y="653"/>
      <point x="364" y="653" type="curve" smooth="yes"/>
      <point x="430" y="653"/>
      <point x="489" y="611"/>
      <point x="506" y="541" type="curve"/>
      <point x="520" y="547" type="line"/>
      <point x="502" y="623"/>
      <point x="440" y="667"/>
      <point x="364" y="667" type="curve" smooth="yes"/>
      <point x="172" y="667"/>
      <point x="66" y="458"/>
      <point x="66" y="241" type="curve" smooth="yes"/>
      <point x="66" y="88"/>
      <point x="131" y="-10"/>
    </contour>
    <contour>
      <point x="259" y="4" type="curve" smooth="yes"/>
      <point x="134" y="4"/>
      <point x="88" y="115"/>
      <point x="88" y="190" type="curve" smooth="yes"/>
      <point x="88" y="293"/>
      <point x="175" y="378"/>
      <point x="279" y="378" type="curve" smooth="yes"/>
      <point x="377" y="378"/>
      <point x="443" y="314"/>
      <point x="443" y="204" type="curve" smooth="yes"/>
      <point x="443" y="85"/>
      <point x="367" y="4"/>
    </contour>
  </outline>
</glyph>
<glyph name="seven" format="2">
	<unicode hex="0037"/>
	<advance width="450"/>
	<outline>
		<contour>
			<point x="108" y="660" type="line"/>
			<point x="104" y="646" type="line"/>
			<point x="513" y="646" type="line"/>
			<point x="513" y="655" type="line"/>
			<point x="315" y="472"/>
			<point x="195" y="254"/>
			<point x="131" y="0" type="curve"/>
			<point x="150" y="0" type="line"/>
			<point x="214" y="265"/>
			<point x="337" y="471"/>
			<point x="524" y="646" type="curve"/>
			<point x="528" y="660" type="line"/>
		</contour>
	</outline>
</glyph>
<glyph name="eight" format="2">
	<advance width="549"/>
	<unicode hex="0038"/>
	<outline>
		<contour>
			<point x="248" y="-9" type="curve" smooth="yes"/>
			<point x="388" y="-9"/>
			<point x="471" y="60"/>
			<point x="471" y="178" type="curve" smooth="yes"/>
			<point x="471" y="259"/>
			<point x="400" y="332"/>
			<point x="325" y="341" type="curve"/>
			<point x="335" y="337" type="line"/>
			<point x="451" y="344"/>
			<point x="517" y="414"/>
			<point x="517" y="512" type="curve" smooth="yes"/>
			<point x="517" y="604"/>
			<point x="445" y="671"/>
			<point x="335" y="671" type="curve" smooth="yes"/>
			<point x="216" y="671"/>
			<point x="142" y="594"/>
			<point x="142" y="496" type="curve" smooth="yes"/>
			<point x="142" y="421"/>
			<point x="205" y="355"/>
			<point x="275" y="344" type="curve"/>
			<point x="253" y="350" type="line"/>
			<point x="152" y="349"/>
			<point x="42" y="290"/>
			<point x="42" y="167" type="curve" smooth="yes"/>
			<point x="42" y="61"/>
			<point x="131" y="-9"/>
		</contour>
		<contour>
			<point x="253" y="5" type="curve" smooth="yes"/>
			<point x="144" y="5"/>
			<point x="58" y="67"/>
			<point x="58" y="169" type="curve" smooth="yes"/>
			<point x="58" y="279"/>
			<point x="158" y="337"/>
			<point x="259" y="337" type="curve" smooth="yes"/>
			<point x="374" y="337"/>
			<point x="455" y="266"/>
			<point x="455" y="173" type="curve" smooth="yes"/>
			<point x="455" y="69"/>
			<point x="377" y="5"/>
		</contour>
		<contour>
			<point x="327" y="348" type="curve" smooth="yes"/>
			<point x="232" y="348"/>
			<point x="158" y="418"/>
			<point x="158" y="497" type="curve" smooth="yes"/>
			<point x="158" y="586"/>
			<point x="226" y="657"/>
			<point x="334" y="657" type="curve" smooth="yes"/>
			<point x="435" y="657"/>
			<point x="501" y="596"/>
			<point x="501" y="510" type="curve" smooth="yes"/>
			<point x="501" y="415"/>
			<point x="429" y="348"/>
		</contour>
	</outline>
</glyph>
<glyph name="nine" format="2">
  <advance width="520"/>
  <unicode hex="0039"/>
  <outline>
    <contour>
      <point x="210" y="-10" type="curve" smooth="yes"/>
      <point x="383" y="-10"/>
      <point x="490" y="198"/>
      <point x="490" y="428" type="curve" smooth="yes"/>
      <point x="490" y="589"/>
      <point x="406" y="670"/>
      <point x="298" y="670" type="curve" smooth="yes"/>
      <point x="176" y="670"/>
      <point x="96" y="573"/>
      <point x="96" y="458" type="curve" smooth="yes"/>
      <point x="96" y="340"/>
      <point x="167" y="266"/>
      <point x="276" y="266" type="curve" smooth="yes"/>
      <point x="372" y="266"/>
      <point x="452" y="326"/>
      <point x="475" y="425" type="curve"/>
      <point x="471" y="199"/>
      <point x="370" y="4"/>
      <point x="211" y="4" type="curve" smooth="yes"/>
      <point x="119" y="4"/>
      <point x="55" y="60"/>
      <point x="34" y="145" type="curve"/>
      <point x="20" y="140" type="line"/>
      <point x="41" y="51"/>
      <point x="110" y="-10"/>
    </contour>
    <contour>
      <point x="277" y="280" type="curve" smooth="yes"/>
      <point x="177" y="280"/>
      <point x="112" y="349"/>
      <point x="112" y="460" type="curve" smooth="yes"/>
      <point x="112" y="569"/>
      <point x="185" y="656"/>
      <point x="297" y="656" type="curve" smooth="yes"/>
      <point x="400" y="656"/>
      <point x="468" y="568"/>
      <point x="468" y="476" type="curve" smooth="yes"/>
      <point x="468" y="365"/>
      <point x="383" y="280"/>
    </contour>
  </outline>
</glyph>
<glyph name="colon" format="2">
	<unicode hex="003A"/>
	<advance width="192"/>
	<outline>
		<contour>
			<point x="148" y="456" type="curve" smooth="yes"/>
			<point x="162" y="456"/>
			<point x="170" y="467"/>
			<point x="170" y="480" type="curve" smooth="yes"/>
			<point x="170" y="492"/>
			<point x="162" y="500"/>
			<point x="150" y="500" type="curve" smooth="yes"/>
			<point x="138" y="500"/>
			<point x="128" y="490"/>
			<point x="128" y="476" type="curve" smooth="yes"/>
			<point x="128" y="464"/>
			<point x="136" y="456"/>
		</contour>
		<contour>
			<point x="41" y="-5" type="curve" smooth="yes"/>
			<point x="55" y="-5"/>
			<point x="63" y="6"/>
			<point x="63" y="19" type="curve" smooth="yes"/>
			<point x="63" y="31"/>
			<point x="55" y="39"/>
			<point x="43" y="39" type="curve" smooth="yes"/>
			<point x="31" y="39"/>
			<point x="21" y="29"/>
			<point x="21" y="15" type="curve" smooth="yes"/>
			<point x="21" y="3"/>
			<point x="29" y="-5"/>
		</contour>
	</outline>
	<anchor name="_center" x="63" y="19"/>
</glyph>
<glyph name="semicolon" format="2">
	<advance width="192"/>
	<unicode hex="003B"/>
	<outline>
		<contour>
			<point x="44" y="39" type="curve" smooth="yes"/>
			<point x="28" y="39"/>
			<point x="18" y="28"/>
			<point x="18" y="15" type="curve" smooth="yes"/>
			<point x="18" y="3"/>
			<point x="25" y="-6"/>
			<point x="37" y="-6" type="curve" smooth="yes"/>
			<point x="45" y="-6"/>
			<point x="53" y="-3"/>
			<point x="58" y="7" type="curve"/>
			<point x="59" y="7" type="line"/>
			<point x="59" y="-29"/>
			<point x="28" y="-82"/>
			<point x="-23" y="-93" type="curve"/>
			<point x="-18" y="-107" type="line"/>
			<point x="31" y="-95"/>
			<point x="71" y="-39"/>
			<point x="71" y="8" type="curve" smooth="yes"/>
			<point x="71" y="26"/>
			<point x="61" y="39"/>
		</contour>
		<contour>
			<point x="151" y="500" type="curve" smooth="yes"/>
			<point x="139" y="500"/>
			<point x="129" y="490"/>
			<point x="129" y="476" type="curve" smooth="yes"/>
			<point x="129" y="464"/>
			<point x="137" y="456"/>
			<point x="149" y="456" type="curve" smooth="yes"/>
			<point x="163" y="456"/>
			<point x="171" y="467"/>
			<point x="171" y="480" type="curve" smooth="yes"/>
			<point x="171" y="492"/>
			<point x="163" y="500"/>
		</contour>
	</outline>
</glyph>
<glyph name="less" format="2">
  <advance width="580"/>
  <unicode hex="003C"/>
  <outline>
    <contour>
      <point x="556" y="541" type="line"/>
      <point x="85" y="309" type="line"/>
      <point x="81" y="290" type="line"/>
      <point x="444" y="58" type="line"/>
      <point x="448" y="74" type="line"/>
      <point x="97" y="298" type="line"/>
      <point x="551" y="520" type="line"/>
    </contour>
  </outline>
</glyph>
<glyph name="equal" format="2">
  <advance width="604"/>
  <unicode hex="003D"/>
  <outline>
    <contour>
      <point x="557" y="422" type="line"/>
      <point x="127" y="422" type="line"/>
      <point x="123" y="408" type="line"/>
      <point x="553" y="408" type="line"/>
    </contour>
    <contour>
      <point x="510" y="218" type="line"/>
      <point x="80" y="218" type="line"/>
      <point x="76" y="204" type="line"/>
      <point x="506" y="204" type="line"/>
    </contour>
  </outline>
</glyph>
<glyph name="question" format="2">
  <advance width="444"/>
  <unicode hex="003F"/>
  <anchor x="138" y="15" name="_center"/>
  <outline>
    <contour>
      <point x="181" y="150" type="line"/>
      <point x="197" y="150" type="line"/>
      <point x="230" y="291" type="line"/>
      <point x="372" y="293"/>
      <point x="459" y="376"/>
      <point x="459" y="502" type="curve" smooth="yes"/>
      <point x="459" y="603"/>
      <point x="396" y="668"/>
      <point x="290" y="668" type="curve" smooth="yes"/>
      <point x="184" y="668"/>
      <point x="121" y="609"/>
      <point x="93" y="530" type="curve"/>
      <point x="106" y="522" type="line"/>
      <point x="130" y="594"/>
      <point x="191" y="654"/>
      <point x="290" y="654" type="curve" smooth="yes"/>
      <point x="386" y="654"/>
      <point x="443" y="595"/>
      <point x="443" y="502" type="curve" smooth="yes"/>
      <point x="443" y="388"/>
      <point x="373" y="309"/>
      <point x="218" y="307" type="curve"/>
    </contour>
    <contour>
      <point x="158" y="-5" type="curve" smooth="yes"/>
      <point x="170" y="-5"/>
      <point x="180" y="5"/>
      <point x="180" y="19" type="curve" smooth="yes"/>
      <point x="180" y="31"/>
      <point x="172" y="39"/>
      <point x="160" y="39" type="curve" smooth="yes"/>
      <point x="146" y="39"/>
      <point x="138" y="28"/>
      <point x="138" y="15" type="curve" smooth="yes"/>
      <point x="138" y="3"/>
      <point x="146" y="-5"/>
    </contour>
  </outline>
</glyph>
<glyph name="at" format="2">
	<unicode hex="0040"/>
	<advance width="883"/>
	<outline>
		<contour>
			<point x="432" y="-171" type="curve" smooth="yes"/>
			<point x="538" y="-171"/>
			<point x="631" y="-138"/>
			<point x="681" y="-104" type="curve"/>
			<point x="672" y="-91" type="line"/>
			<point x="625" y="-126"/>
			<point x="533" y="-157"/>
			<point x="432" y="-157" type="curve" smooth="yes"/>
			<point x="227" y="-157"/>
			<point x="87" y="-21"/>
			<point x="87" y="207" type="curve" smooth="yes"/>
			<point x="87" y="487"/>
			<point x="278" y="636"/>
			<point x="480" y="636" type="curve" smooth="yes"/>
			<point x="710" y="636"/>
			<point x="811" y="475"/>
			<point x="811" y="283" type="curve" smooth="yes"/>
			<point x="811" y="158"/>
			<point x="750" y="16"/>
			<point x="659" y="16" type="curve" smooth="yes"/>
			<point x="627" y="16"/>
			<point x="591" y="35"/>
			<point x="591" y="93" type="curve" smooth="yes"/>
			<point x="591" y="109"/>
			<point x="593" y="122"/>
			<point x="596" y="135" type="curve" smooth="yes"/>
			<point x="674" y="466" type="line"/>
			<point x="658" y="466" type="line"/>
			<point x="617" y="289" type="line"/>
			<point x="618" y="405"/>
			<point x="557" y="476"/>
			<point x="459" y="476" type="curve" smooth="yes"/>
			<point x="337" y="476"/>
			<point x="244" y="360"/>
			<point x="244" y="211" type="curve" smooth="yes"/>
			<point x="244" y="100"/>
			<point x="306" y="12"/>
			<point x="412" y="12" type="curve" smooth="yes"/>
			<point x="492" y="12"/>
			<point x="546" y="56"/>
			<point x="576" y="115" type="curve"/>
			<point x="569" y="62"/>
			<point x="591" y="2"/>
			<point x="656" y="2" type="curve" smooth="yes"/>
			<point x="759" y="2"/>
			<point x="827" y="141"/>
			<point x="827" y="285" type="curve" smooth="yes"/>
			<point x="827" y="484"/>
			<point x="720" y="650"/>
			<point x="481" y="650" type="curve" smooth="yes"/>
			<point x="269" y="650"/>
			<point x="71" y="496"/>
			<point x="71" y="207" type="curve" smooth="yes"/>
			<point x="71" y="-30"/>
			<point x="215" y="-171"/>
		</contour>
		<contour>
			<point x="409" y="26" type="curve" smooth="yes"/>
			<point x="325" y="26"/>
			<point x="260" y="98"/>
			<point x="260" y="212" type="curve" smooth="yes"/>
			<point x="260" y="359"/>
			<point x="352" y="460"/>
			<point x="458" y="460" type="curve" smooth="yes"/>
			<point x="537" y="460"/>
			<point x="604" y="411"/>
			<point x="604" y="282" type="curve" smooth="yes"/>
			<point x="604" y="132"/>
			<point x="525" y="26"/>
		</contour>
	</outline>
</glyph>
<glyph name="A" format="2">
	<advance width="547"/>
	<unicode hex="0041"/>
	<anchor x="348" y="571" name="top_ring"/>
	<anchor x="477" y="0" name="ogonek"/>
	<anchor x="366" y="660" name="top"/>
	<anchor x="236" y="0" name="bottom"/>
	<outline>
		<contour>
			<point x="-46" y="0" type="line"/>
			<point x="-27" y="0" type="line"/>
			<point x="117" y="236" type="line"/>
			<point x="426" y="236" type="line"/>
			<point x="461" y="0" type="line"/>
			<point x="477" y="0" type="line"/>
			<point x="379" y="660" type="line"/>
			<point x="358" y="660" type="line"/>
		</contour>
		<contour>
			<point x="127" y="250" type="line"/>
			<point x="365" y="642" type="line"/>
			<point x="423" y="250" type="line"/>
		</contour>
	</outline>
</glyph>
<glyph name="B" format="2">
	<unicode hex="0042"/>
	<advance width="608"/>
	<outline>
		<contour>
			<point x="39" y="0" type="line"/>
			<point x="297" y="0" type="line" smooth="yes"/>
			<point x="447" y="0"/>
			<point x="531" y="71"/>
			<point x="531" y="196" type="curve" smooth="yes"/>
			<point x="531" y="268"/>
			<point x="485" y="321"/>
			<point x="396" y="330" type="curve"/>
			<point x="396" y="329" type="line"/>
			<point x="499" y="340"/>
			<point x="566" y="417"/>
			<point x="566" y="513" type="curve" smooth="yes"/>
			<point x="566" y="603"/>
			<point x="507" y="660"/>
			<point x="393" y="660" type="curve" smooth="yes"/>
			<point x="192" y="660" type="line"/>
		</contour>
		<contour>
			<point x="58" y="14" type="line"/>
			<point x="130" y="323" type="line"/>
			<point x="342" y="323" type="line" smooth="yes"/>
			<point x="477" y="323"/>
			<point x="515" y="263"/>
			<point x="515" y="196" type="curve" smooth="yes"/>
			<point x="515" y="79"/>
			<point x="437" y="14"/>
			<point x="297" y="14" type="curve" smooth="yes"/>
		</contour>
		<contour>
			<point x="133" y="337" type="line"/>
			<point x="205" y="646" type="line"/>
			<point x="390" y="646" type="line" smooth="yes"/>
			<point x="497" y="646"/>
			<point x="550" y="595"/>
			<point x="550" y="513" type="curve" smooth="yes"/>
			<point x="550" y="423"/>
			<point x="479" y="337"/>
			<point x="357" y="337" type="curve" smooth="yes"/>
		</contour>
	</outline>
	<anchor name="bottom" x="209" y="0"/>
	<anchor name="ogonek" x="240" y="0"/>
	<anchor name="top" x="362" y="660"/>
</glyph>
<glyph name="C" format="2">
	<advance width="635"/>
	<unicode hex="0043"/>
	<anchor x="406" y="0" name="ogonek"/>
	<anchor x="313" y="0" name="bottom"/>
	<anchor x="409" y="660" name="top"/>
	<outline>
		<contour>
			<point x="327" y="-10" type="curve" smooth="yes"/>
			<point x="437" y="-10"/>
			<point x="520" y="40"/>
			<point x="570" y="130" type="curve"/>
			<point x="557" y="140" type="line"/>
			<point x="512" y="55"/>
			<point x="436" y="4"/>
			<point x="328" y="4" type="curve" smooth="yes"/>
			<point x="198" y="4"/>
			<point x="90" y="103"/>
			<point x="90" y="275" type="curve" smooth="yes"/>
			<point x="90" y="471"/>
			<point x="197" y="656"/>
			<point x="394" y="656" type="curve" smooth="yes"/>
			<point x="498" y="656"/>
			<point x="579" y="595"/>
			<point x="610" y="486" type="curve"/>
			<point x="625" y="490" type="line"/>
			<point x="593" y="605"/>
			<point x="507" y="670"/>
			<point x="395" y="670" type="curve" smooth="yes"/>
			<point x="186" y="670"/>
			<point x="74" y="481"/>
			<point x="74" y="272" type="curve" smooth="yes"/>
			<point x="74" y="89"/>
			<point x="187" y="-10"/>
		</contour>
	</outline>
</glyph>
<glyph name="D" format="2">
	<advance width="662"/>
	<unicode hex="0044"/>
	<anchor x="355" y="330" name="center"/>
	<anchor x="276" y="0" name="ogonek"/>
	<anchor x="389" y="660" name="top"/>
	<anchor x="282" y="0" name="bottom"/>
	<outline>
		<contour>
			<point x="44" y="0" type="line"/>
			<point x="276" y="0" type="line" smooth="yes"/>
			<point x="490" y="0"/>
			<point x="627" y="170"/>
			<point x="627" y="394" type="curve" smooth="yes"/>
			<point x="627" y="548"/>
			<point x="541" y="660"/>
			<point x="382" y="660" type="curve" smooth="yes"/>
			<point x="197" y="660" type="line"/>
		</contour>
		<contour>
			<point x="64" y="14" type="line"/>
			<point x="210" y="646" type="line"/>
			<point x="379" y="646" type="line" smooth="yes"/>
			<point x="534" y="646"/>
			<point x="611" y="538"/>
			<point x="611" y="393" type="curve" smooth="yes"/>
			<point x="611" y="179"/>
			<point x="481" y="14"/>
			<point x="277" y="14" type="curve" smooth="yes"/>
		</contour>
	</outline>
</glyph>
<glyph name="E" format="2">
	<unicode hex="0045"/>
	<advance width="551"/>
	<outline>
		<contour>
			<point x="39" y="0" type="line"/>
			<point x="463" y="0" type="line"/>
			<point x="466" y="14" type="line"/>
			<point x="59" y="14" type="line"/>
			<point x="131" y="330" type="line"/>
			<point x="445" y="330" type="line"/>
			<point x="449" y="344" type="line"/>
			<point x="135" y="344" type="line"/>
			<point x="204" y="646" type="line"/>
			<point x="593" y="646" type="line"/>
			<point x="597" y="660" type="line"/>
			<point x="192" y="660" type="line"/>
		</contour>
	</outline>
	<anchor name="bottom" x="271" y="0"/>
	<anchor name="ogonek" x="463" y="0"/>
	<anchor name="top" x="386" y="660"/>
</glyph>
<glyph name="F" format="2">
	<unicode hex="0046"/>
	<advance width="510"/>
	<outline>
		<contour>
			<point x="580" y="646" type="line"/>
			<point x="585" y="660" type="line"/>
			<point x="192" y="660" type="line"/>
			<point x="39" y="0" type="line"/>
			<point x="55" y="0" type="line"/>
			<point x="131" y="330" type="line"/>
			<point x="440" y="330" type="line"/>
			<point x="444" y="344" type="line"/>
			<point x="135" y="344" type="line"/>
			<point x="204" y="646" type="line"/>
		</contour>
	</outline>
	<anchor name="bottom" x="47" y="0"/>
	<anchor name="ogonek" x="55" y="0"/>
	<anchor name="top" x="393" y="660"/>
</glyph>
<glyph name="G" format="2">
	<unicode hex="0047"/>
	<advance width="662"/>
	<outline>
		<contour>
			<point x="326" y="-9" type="curve" smooth="yes"/>
			<point x="437" y="-9"/>
			<point x="541" y="42"/>
			<point x="576" y="199" type="curve"/>
			<point x="569" y="186" type="line"/>
			<point x="525" y="0" type="line"/>
			<point x="541" y="0" type="line"/>
			<point x="611" y="304" type="line"/>
			<point x="370" y="304" type="line"/>
			<point x="367" y="290" type="line"/>
			<point x="592" y="290" type="line"/>
			<point x="579" y="234" type="line" smooth="yes"/>
			<point x="539" y="60"/>
			<point x="432" y="5"/>
			<point x="327" y="5" type="curve" smooth="yes"/>
			<point x="197" y="5"/>
			<point x="89" y="102"/>
			<point x="89" y="274" type="curve" smooth="yes"/>
			<point x="89" y="470"/>
			<point x="199" y="656"/>
			<point x="406" y="656" type="curve" smooth="yes"/>
			<point x="507" y="656"/>
			<point x="587" y="599"/>
			<point x="626" y="491" type="curve"/>
			<point x="641" y="495" type="line"/>
			<point x="601" y="609"/>
			<point x="515" y="670"/>
			<point x="407" y="670" type="curve" smooth="yes"/>
			<point x="188" y="670"/>
			<point x="73" y="480"/>
			<point x="73" y="271" type="curve" smooth="yes"/>
			<point x="73" y="88"/>
			<point x="186" y="-9"/>
		</contour>
	</outline>
	<anchor name="bottom" x="335" y="0"/>
	<anchor name="ogonek" x="352" y="0"/>
	<anchor name="top" x="407" y="660"/>
</glyph>
<glyph name="H" format="2">
	<unicode hex="0048"/>
	<advance width="661"/>
	<outline>
		<contour>
			<point x="659" y="660" type="line"/>
			<point x="643" y="660" type="line"/>
			<point x="490" y="0" type="line"/>
			<point x="506" y="0" type="line"/>
		</contour>
		<contour>
			<point x="208" y="660" type="line"/>
			<point x="192" y="660" type="line"/>
			<point x="39" y="0" type="line"/>
			<point x="55" y="0" type="line"/>
		</contour>
		<contour>
			<point x="579" y="344" type="line"/>
			<point x="127" y="344" type="line"/>
			<point x="123" y="330" type="line"/>
			<point x="575" y="330" type="line"/>
		</contour>
	</outline>
	<anchor name="bottom" x="276" y="0"/>
	<anchor name="ogonek" x="506" y="0"/>
	<anchor name="top" x="429" y="660"/>
</glyph>
<glyph name="I" format="2">
	<advance width="210"/>
	<unicode hex="0049"/>
	<anchor x="55" y="0" name="ogonek"/>
	<anchor x="47" y="0" name="bottom"/>
	<anchor x="200" y="660" name="top"/>
	<outline>
		<contour>
			<point x="208" y="660" type="line"/>
			<point x="192" y="660" type="line"/>
			<point x="39" y="0" type="line"/>
			<point x="55" y="0" type="line"/>
		</contour>
	</outline>
</glyph>
<glyph name="J" format="2">
	<advance width="461"/>
	<unicode hex="004A"/>
	<anchor x="195" y="-5" name="ogonek"/>
	<anchor x="144" y="1" name="bottom"/>
	<anchor x="463" y="660" name="top"/>
	<outline>
		<contour>
			<point x="165" y="-10" type="curve" smooth="yes"/>
			<point x="276" y="-10"/>
			<point x="333" y="62"/>
			<point x="362" y="187" type="curve" smooth="yes"/>
			<point x="471" y="660" type="line"/>
			<point x="455" y="660" type="line"/>
			<point x="347" y="189" type="line" smooth="yes"/>
			<point x="319" y="66"/>
			<point x="264" y="4"/>
			<point x="166" y="4" type="curve" smooth="yes"/>
			<point x="54" y="4"/>
			<point x="4" y="84"/>
			<point x="42" y="220" type="curve"/>
			<point x="27" y="219" type="line"/>
			<point x="-14" y="81"/>
			<point x="44" y="-10"/>
		</contour>
	</outline>
</glyph>
<glyph name="K" format="2">
  <advance width="526"/>
  <unicode hex="004B"/>
  <anchor x="249" y="0" name="bottom"/>
  <anchor x="454" y="0" name="ogonek"/>
  <anchor x="397" y="660" name="top"/>
  <outline>
    <contour>
      <point x="39" y="0" type="line"/>
      <point x="55" y="0" type="line"/>
      <point x="109" y="233" type="line"/>
      <point x="282" y="385" type="line"/>
      <point x="436" y="0" type="line"/>
      <point x="454" y="0" type="line"/>
      <point x="296" y="397" type="line"/>
      <point x="598" y="660" type="line"/>
      <point x="572" y="660" type="line"/>
      <point x="115" y="260" type="line"/>
      <point x="208" y="660" type="line"/>
      <point x="192" y="660" type="line"/>
    </contour>
  </outline>
</glyph>
<glyph name="L" format="2">
	<unicode hex="004C"/>
	<advance width="504"/>
	<outline>
		<contour>
			<point x="59" y="14" type="line"/>
			<point x="208" y="660" type="line"/>
			<point x="192" y="660" type="line"/>
			<point x="39" y="0" type="line"/>
			<point x="434" y="0" type="line"/>
			<point x="438" y="14" type="line"/>
		</contour>
	</outline>
	<anchor name="bottom" x="257" y="0"/>
	<anchor name="center" x="354" y="344"/>
	<anchor name="ogonek" x="434" y="0"/>
	<anchor name="top" x="200" y="660"/>
	<anchor name="topright" x="383" y="660"/>
</glyph>
<glyph name="M" format="2">
	<unicode hex="004D"/>
	<advance width="748"/>
	<outline>
		<contour>
			<point x="39" y="0" type="line"/>
			<point x="55" y="0" type="line"/>
			<point x="190" y="582" type="line"/>
			<point x="201" y="637" type="line"/>
			<point x="201" y="637" type="line"/>
			<point x="307" y="0" type="line"/>
			<point x="326" y="0" type="line"/>
			<point x="726" y="637" type="line"/>
			<point x="726" y="637" type="line"/>
			<point x="712" y="582" type="line"/>
			<point x="577" y="0" type="line"/>
			<point x="593" y="0" type="line"/>
			<point x="746" y="660" type="line"/>
			<point x="724" y="660" type="line"/>
			<point x="337" y="47" type="line"/>
			<point x="319" y="17" type="line"/>
			<point x="319" y="17" type="line"/>
			<point x="315" y="50" type="line"/>
			<point x="213" y="660" type="line"/>
			<point x="192" y="660" type="line"/>
		</contour>
	</outline>
	<anchor name="bottom" x="316" y="0"/>
	<anchor name="ogonek" x="593" y="0"/>
	<anchor name="top" x="469" y="660"/>
</glyph>
<glyph name="N" format="2">
  <advance width="659"/>
  <unicode hex="004E"/>
  <anchor x="276" y="0" name="bottom"/>
  <anchor x="504" y="0" name="ogonek"/>
  <anchor x="420" y="660" name="top"/>
  <outline>
    <contour>
      <point x="39" y="0" type="line"/>
      <point x="55" y="0" type="line"/>
      <point x="191" y="587" type="line"/>
      <point x="203" y="644" type="line"/>
      <point x="203" y="644" type="line"/>
      <point x="220" y="604" type="line"/>
      <point x="483" y="0" type="line"/>
      <point x="504" y="0" type="line"/>
      <point x="657" y="660" type="line"/>
      <point x="641" y="660" type="line"/>
      <point x="505" y="73" type="line"/>
      <point x="493" y="16" type="line"/>
      <point x="493" y="16" type="line"/>
      <point x="476" y="56" type="line"/>
      <point x="213" y="660" type="line"/>
      <point x="192" y="660" type="line"/>
    </contour>
  </outline>
</glyph>
<glyph name="O" format="2">
	<unicode hex="004F"/>
	<advance width="685"/>
	<outline>
		<contour>
			<point x="328" y="-10" type="curve" smooth="yes"/>
			<point x="536" y="-10"/>
			<point x="647" y="179"/>
			<point x="647" y="385" type="curve" smooth="yes"/>
			<point x="647" y="567"/>
			<point x="536" y="670"/>
			<point x="397" y="670" type="curve" smooth="yes"/>
			<point x="187" y="670"/>
			<point x="75" y="482"/>
			<point x="75" y="275" type="curve" smooth="yes"/>
			<point x="75" y="92"/>
			<point x="188" y="-10"/>
		</contour>
		<contour>
			<point x="330" y="4" type="curve" smooth="yes"/>
			<point x="199" y="4"/>
			<point x="91" y="100"/>
			<point x="91" y="275" type="curve" smooth="yes"/>
			<point x="91" y="474"/>
			<point x="198" y="656"/>
			<point x="395" y="656" type="curve" smooth="yes"/>
			<point x="526" y="656"/>
			<point x="631" y="559"/>
			<point x="631" y="385" type="curve" smooth="yes"/>
			<point x="631" y="186"/>
			<point x="524" y="4"/>
		</contour>
	</outline>
	<anchor name="bottom" x="313" y="0"/>
	<anchor name="center" x="361" y="330"/>
	<anchor name="ogonek" x="376" y="-6"/>
	<anchor name="top" x="408" y="660"/>
	<anchor name="topleft" x="103" y="660"/>
	<anchor name="topright" x="567" y="660"/>
</glyph>
<glyph name="P" format="2">
  <advance width="547"/>
  <unicode hex="0050"/>
  <anchor x="47" y="0" name="bottom"/>
  <anchor x="55" y="0" name="ogonek"/>
  <anchor x="373" y="660" name="top"/>
  <outline>
    <contour>
      <point x="39" y="0" type="line"/>
      <point x="55" y="0" type="line"/>
      <point x="205" y="646" type="line"/>
      <point x="354" y="646" type="line" smooth="yes"/>
      <point x="465" y="646"/>
      <point x="532" y="588"/>
      <point x="532" y="495" type="curve" smooth="yes"/>
      <point x="532" y="384"/>
      <point x="453" y="294"/>
      <point x="318" y="294" type="curve" smooth="yes"/>
      <point x="114" y="294" type="line"/>
      <point x="114" y="280" type="line"/>
      <point x="315" y="280" type="line" smooth="yes"/>
      <point x="463" y="280"/>
      <point x="548" y="372"/>
      <point x="548" y="496" type="curve" smooth="yes"/>
      <point x="548" y="599"/>
      <point x="471" y="660"/>
      <point x="354" y="660" type="curve" smooth="yes"/>
      <point x="192" y="660" type="line"/>
    </contour>
  </outline>
</glyph>
<glyph name="Q" format="2">
  <advance width="685"/>
  <unicode hex="0051"/>
  <anchor x="211" y="-210" name="bottom"/>
  <anchor x="406" y="-191" name="ogonek"/>
  <anchor x="361" y="330" name="center"/>
  <anchor x="408" y="660" name="top"/>
  <anchor x="103" y="660" name="topleft"/>
  <anchor x="567" y="660" name="topright"/>
  <outline>
    <contour>
      <point x="399" y="-195" type="curve" smooth="yes"/>
      <point x="433" y="-195"/>
      <point x="466" y="-186"/>
      <point x="489" y="-170" type="curve"/>
      <point x="484" y="-158" type="line"/>
      <point x="461" y="-173"/>
      <point x="428" y="-181"/>
      <point x="402" y="-181" type="curve" smooth="yes"/>
      <point x="331" y="-181"/>
      <point x="284" y="-136"/>
      <point x="284" y="-61" type="curve" smooth="yes"/>
      <point x="284" y="-42"/>
      <point x="287" y="-22"/>
      <point x="292" y="-4" type="curve"/>
      <point x="279" y="1" type="line"/>
      <point x="273" y="-19"/>
      <point x="269" y="-42"/>
      <point x="269" y="-63" type="curve" smooth="yes"/>
      <point x="269" y="-144"/>
      <point x="322" y="-195"/>
    </contour>
    <component base="O"/>
  </outline>
</glyph>
<glyph name="R" format="2">
	<unicode hex="0052"/>
	<advance width="584"/>
	<outline>
		<contour>
			<point x="39" y="0" type="line"/>
			<point x="55" y="0" type="line"/>
			<point x="205" y="646" type="line"/>
			<point x="383" y="646" type="line" smooth="yes"/>
			<point x="494" y="646"/>
			<point x="548" y="586"/>
			<point x="548" y="500" type="curve" smooth="yes"/>
			<point x="548" y="394"/>
			<point x="481" y="310"/>
			<point x="345" y="310" type="curve" smooth="yes"/>
			<point x="116" y="310" type="line"/>
			<point x="115" y="296" type="line"/>
			<point x="343" y="296" type="line"/>
			<point x="344" y="296" type="line" smooth="yes"/>
			<point x="491" y="296"/>
			<point x="564" y="384"/>
			<point x="564" y="502" type="curve" smooth="yes"/>
			<point x="564" y="599"/>
			<point x="501" y="660"/>
			<point x="384" y="660" type="curve" smooth="yes"/>
			<point x="192" y="660" type="line"/>
		</contour>
		<contour>
			<point x="468" y="0" type="line"/>
			<point x="485" y="0" type="line"/>
			<point x="375" y="308" type="line"/>
			<point x="358" y="308" type="line"/>
		</contour>
	</outline>
	<anchor name="bottom" x="269" y="0"/>
	<anchor name="ogonek" x="485" y="0"/>
	<anchor name="top" x="365" y="660"/>
</glyph>
<glyph name="S" format="2">
	<unicode hex="0053"/>
	<advance width="572"/>
	<outline>
		<contour>
			<point x="285" y="-8" type="curve" smooth="yes"/>
			<point x="405" y="-8"/>
			<point x="510" y="53"/>
			<point x="510" y="172" type="curve" smooth="yes"/>
			<point x="510" y="244"/>
			<point x="455" y="295"/>
			<point x="346" y="326" type="curve" smooth="yes"/>
			<point x="275" y="346" type="line" smooth="yes"/>
			<point x="186" y="371"/>
			<point x="140" y="425"/>
			<point x="140" y="498" type="curve" smooth="yes"/>
			<point x="140" y="588"/>
			<point x="218" y="657"/>
			<point x="338" y="657" type="curve" smooth="yes"/>
			<point x="447" y="657"/>
			<point x="523" y="609"/>
			<point x="548" y="506" type="curve"/>
			<point x="563" y="511" type="line"/>
			<point x="538" y="619"/>
			<point x="453" y="671"/>
			<point x="339" y="671" type="curve" smooth="yes"/>
			<point x="205" y="671"/>
			<point x="124" y="595"/>
			<point x="124" y="497" type="curve" smooth="yes"/>
			<point x="124" y="414"/>
			<point x="178" y="357"/>
			<point x="270" y="331" type="curve" smooth="yes"/>
			<point x="344" y="310" type="line" smooth="yes"/>
			<point x="439" y="283"/>
			<point x="493" y="237"/>
			<point x="493" y="170" type="curve" smooth="yes"/>
			<point x="493" y="62"/>
			<point x="393" y="6"/>
			<point x="286" y="6" type="curve" smooth="yes"/>
			<point x="162" y="6"/>
			<point x="61" y="82"/>
			<point x="51" y="190" type="curve"/>
			<point x="35" y="185" type="line"/>
			<point x="50" y="70"/>
			<point x="150" y="-8"/>
		</contour>
	</outline>
	<anchor name="bottom" x="248" y="0"/>
	<anchor name="ogonek" x="283" y="0"/>
	<anchor name="top" x="354" y="660"/>
</glyph>
<glyph name="T" format="2">
  <advance width="506"/>
  <unicode hex="0054"/>
  <anchor x="196" y="0" name="bottom"/>
  <anchor x="275" y="341" name="center"/>
  <anchor x="204" y="0" name="ogonek"/>
  <anchor x="349" y="660" name="top"/>
  <outline>
    <contour>
      <point x="590" y="660" type="line"/>
      <point x="106" y="660" type="line"/>
      <point x="102" y="646" type="line"/>
      <point x="337" y="646" type="line"/>
      <point x="188" y="0" type="line"/>
      <point x="204" y="0" type="line"/>
      <point x="353" y="646" type="line"/>
      <point x="586" y="646" type="line"/>
    </contour>
  </outline>
</glyph>
<glyph name="U" format="2">
	<unicode hex="0055"/>
	<advance width="644"/>
	<outline>
		<contour>
			<point x="293" y="-10" type="curve" smooth="yes"/>
			<point x="431" y="-10"/>
			<point x="511" y="84"/>
			<point x="548" y="245" type="curve" smooth="yes"/>
			<point x="644" y="660" type="line"/>
			<point x="628" y="660" type="line"/>
			<point x="533" y="250" type="line" smooth="yes"/>
			<point x="496" y="92"/>
			<point x="422" y="4"/>
			<point x="293" y="4" type="curve" smooth="yes"/>
			<point x="142" y="4"/>
			<point x="65" y="105"/>
			<point x="104" y="271" type="curve" smooth="yes"/>
			<point x="195" y="660" type="line"/>
			<point x="179" y="660" type="line"/>
			<point x="89" y="276" type="line" smooth="yes"/>
			<point x="48" y="100"/>
			<point x="127" y="-10"/>
		</contour>
	</outline>
	<anchor name="bottom" x="239" y="0"/>
	<anchor name="ogonek" x="324" y="-8"/>
	<anchor name="top" x="408" y="620"/>
	<anchor name="top_ring" x="403" y="598"/>
	<anchor name="topright" x="665" y="660"/>
</glyph>
<glyph name="V" format="2">
	<unicode hex="0056"/>
	<advance width="537"/>
	<outline>
		<contour>
			<point x="615" y="660" type="line"/>
			<point x="596" y="660" type="line"/>
			<point x="254" y="84" type="line"/>
			<point x="215" y="18" type="line"/>
			<point x="206" y="89" type="line"/>
			<point x="128" y="660" type="line"/>
			<point x="112" y="660" type="line"/>
			<point x="201" y="0" type="line"/>
			<point x="223" y="0" type="line"/>
		</contour>
	</outline>
	<anchor name="bottom" x="211" y="0"/>
	<anchor name="ogonek" x="223" y="0"/>
	<anchor name="top" x="364" y="660"/>
</glyph>
<glyph name="W" format="2">
	<advance width="864"/>
	<unicode hex="0057"/>
	<anchor x="576" y="0" name="ogonek"/>
	<anchor x="374" y="0" name="bottom"/>
	<anchor x="527" y="660" name="top"/>
	<outline>
		<contour>
			<point x="172" y="0" type="line"/>
			<point x="192" y="0" type="line"/>
			<point x="451" y="502" type="line"/>
			<point x="521" y="641" type="line"/>
			<point x="522" y="641" type="line"/>
			<point x="529" y="514" type="line"/>
			<point x="554" y="0" type="line"/>
			<point x="576" y="0" type="line"/>
			<point x="936" y="660" type="line"/>
			<point x="918" y="660" type="line"/>
			<point x="569" y="18" type="line"/>
			<point x="537" y="660" type="line"/>
			<point x="514" y="660" type="line"/>
			<point x="186" y="19" type="line"/>
			<point x="134" y="660" type="line"/>
			<point x="118" y="660" type="line"/>
		</contour>
	</outline>
</glyph>
<glyph name="X" format="2">
	<unicode hex="0058"/>
	<advance width="495"/>
	<outline>
		<contour>
			<point x="-41" y="0" type="line"/>
			<point x="-20" y="0" type="line"/>
			<point x="269" y="327" type="line"/>
			<point x="403" y="0" type="line"/>
			<point x="419" y="0" type="line"/>
			<point x="281" y="337" type="line"/>
			<point x="562" y="660" type="line"/>
			<point x="541" y="660" type="line"/>
			<point x="273" y="351" type="line"/>
			<point x="146" y="660" type="line"/>
			<point x="130" y="660" type="line"/>
			<point x="262" y="341" type="line"/>
		</contour>
	</outline>
	<anchor name="bottom" x="189" y="0"/>
	<anchor name="ogonek" x="419" y="0"/>
	<anchor name="top" x="342" y="660"/>
</glyph>
<glyph name="Y" format="2">
	<advance width="475"/>
	<unicode hex="0059"/>
	<anchor x="187" y="0" name="ogonek"/>
	<anchor x="179" y="0" name="bottom"/>
	<anchor x="322" y="620" name="top"/>
	<outline>
		<contour>
			<point x="171" y="0" type="line"/>
			<point x="187" y="0" type="line"/>
			<point x="246" y="255" type="line"/>
			<point x="554" y="660" type="line"/>
			<point x="534" y="660" type="line"/>
			<point x="360" y="431" type="line"/>
			<point x="241" y="272" type="line"/>
			<point x="199" y="419" type="line"/>
			<point x="128" y="660" type="line"/>
			<point x="111" y="660" type="line"/>
			<point x="230" y="255" type="line"/>
		</contour>
	</outline>
</glyph>
<glyph name="Z" format="2">
	<unicode hex="005A"/>
	<advance width="521"/>
	<outline>
		<contour>
			<point x="-29" y="0" type="line"/>
			<point x="438" y="0" type="line"/>
			<point x="442" y="14" type="line"/>
			<point x="-5" y="14" type="line"/>
			<point x="564" y="646" type="line"/>
			<point x="567" y="660" type="line"/>
			<point x="124" y="660" type="line"/>
			<point x="121" y="646" type="line"/>
			<point x="543" y="646" type="line"/>
			<point x="-26" y="14" type="line"/>
		</contour>
	</outline>
	<anchor name="bottom" x="230" y="0"/>
	<anchor name="ogonek" x="438" y="0"/>
	<anchor name="top" x="343" y="660"/>
</glyph>
<glyph name="bracketleft" format="2">
  <advance width="268"/>
  <unicode hex="005B"/>
  <outline>
    <contour>
      <point x="365" y="716" type="line"/>
      <point x="368" y="730" type="line"/>
      <point x="187" y="730" type="line"/>
      <point x="-21" y="-168" type="line"/>
      <point x="160" y="-168" type="line"/>
      <point x="164" y="-154" type="line"/>
      <point x="-2" y="-154" type="line"/>
      <point x="199" y="716" type="line"/>
    </contour>
  </outline>
</glyph>
<glyph name="backslash" format="2">
	<advance width="376"/>
	<unicode hex="005C"/>
	<outline>
		<contour>
			<point x="135" y="730" type="line"/>
			<point x="239" y="-70" type="line"/>
			<point x="255" y="-70" type="line"/>
			<point x="151" y="730" type="line"/>
		</contour>
	</outline>
</glyph>
<glyph name="asciicircum" format="2">
	<unicode hex="005E"/>
	<advance width="505"/>
	<outline>
		<contour>
			<point x="61" y="355" type="line"/>
			<point x="81" y="355" type="line"/>
			<point x="360" y="714" type="line"/>
			<point x="474" y="355" type="line"/>
			<point x="492" y="355" type="line"/>
			<point x="372" y="730" type="line"/>
			<point x="353" y="730" type="line"/>
		</contour>
	</outline>
</glyph>
<glyph name="underscore" format="2">
  <advance width="499"/>
  <unicode hex="005F"/>
  <outline>
    <contour>
      <point x="419" y="-97" type="line"/>
      <point x="-80" y="-97" type="line"/>
      <point x="-83" y="-111" type="line"/>
      <point x="416" y="-111" type="line"/>
    </contour>
  </outline>
</glyph>
<glyph name="a" format="2">
  <advance width="568"/>
  <unicode hex="0061"/>
  <anchor x="227" y="0" name="bottom"/>
  <anchor x="415" y="0" name="ogonek"/>
  <anchor x="303" y="500" name="top"/>
  <outline>
    <contour>
      <point x="238" y="-10" type="curve" smooth="yes"/>
      <point x="331" y="-10"/>
      <point x="393" y="50"/>
      <point x="428" y="126" type="curve"/>
      <point x="399" y="0" type="line"/>
      <point x="415" y="0" type="line"/>
      <point x="531" y="500" type="line"/>
      <point x="515" y="500" type="line"/>
      <point x="472" y="316" type="line"/>
      <point x="474" y="430"/>
      <point x="408" y="510"/>
      <point x="293" y="510" type="curve" smooth="yes"/>
      <point x="144" y="510"/>
      <point x="47" y="380"/>
      <point x="47" y="212" type="curve" smooth="yes"/>
      <point x="47" y="84"/>
      <point x="118" y="-10"/>
    </contour>
    <contour>
      <point x="242" y="4" type="curve" smooth="yes"/>
      <point x="140" y="4"/>
      <point x="63" y="81"/>
      <point x="63" y="212" type="curve" smooth="yes"/>
      <point x="63" y="378"/>
      <point x="157" y="496"/>
      <point x="291" y="496" type="curve" smooth="yes"/>
      <point x="381" y="496"/>
      <point x="461" y="442"/>
      <point x="461" y="306" type="curve" smooth="yes"/>
      <point x="461" y="160"/>
      <point x="374" y="4"/>
    </contour>
  </outline>
</glyph>
<glyph name="b" format="2">
  <advance width="557"/>
  <unicode hex="0062"/>
  <anchor x="225" y="0" name="bottom"/>
  <anchor x="341" y="21" name="ogonek"/>
  <anchor x="189" y="680" name="top"/>
  <outline>
    <contour>
      <point x="325" y="510" type="curve" smooth="yes"/>
      <point x="241" y="510"/>
      <point x="169" y="465"/>
      <point x="130" y="385" type="curve"/>
      <point x="210" y="730" type="line"/>
      <point x="194" y="730" type="line"/>
      <point x="26" y="0" type="line"/>
      <point x="42" y="0" type="line"/>
      <point x="87" y="195" type="line"/>
      <point x="89" y="75"/>
      <point x="157" y="-10"/>
      <point x="276" y="-10" type="curve" smooth="yes"/>
      <point x="420" y="-10"/>
      <point x="509" y="129"/>
      <point x="509" y="289" type="curve" smooth="yes"/>
      <point x="509" y="413"/>
      <point x="442" y="510"/>
    </contour>
    <contour>
      <point x="277" y="4" type="curve" smooth="yes"/>
      <point x="171" y="4"/>
      <point x="101" y="79"/>
      <point x="101" y="199" type="curve" smooth="yes"/>
      <point x="101" y="368"/>
      <point x="187" y="496"/>
      <point x="323" y="496" type="curve" smooth="yes"/>
      <point x="420" y="496"/>
      <point x="493" y="416"/>
      <point x="493" y="290" type="curve" smooth="yes"/>
      <point x="493" y="129"/>
      <point x="404" y="4"/>
    </contour>
  </outline>
</glyph>
<glyph name="c" format="2">
	<unicode hex="0063"/>
	<advance width="490"/>
	<outline>
		<contour>
			<point x="242" y="-10" type="curve" smooth="yes"/>
			<point x="328" y="-10"/>
			<point x="393" y="43"/>
			<point x="428" y="118" type="curve"/>
			<point x="416" y="125" type="line"/>
			<point x="384" y="55"/>
			<point x="323" y="4"/>
			<point x="245" y="4" type="curve" smooth="yes"/>
			<point x="142" y="4"/>
			<point x="63" y="81"/>
			<point x="63" y="212" type="curve" smooth="yes"/>
			<point x="63" y="365"/>
			<point x="148" y="496"/>
			<point x="287" y="496" type="curve" smooth="yes"/>
			<point x="370" y="496"/>
			<point x="426" y="445"/>
			<point x="442" y="360" type="curve"/>
			<point x="457" y="363" type="line"/>
			<point x="440" y="456"/>
			<point x="376" y="510"/>
			<point x="287" y="510" type="curve" smooth="yes"/>
			<point x="141" y="510"/>
			<point x="47" y="376"/>
			<point x="47" y="209" type="curve" smooth="yes"/>
			<point x="47" y="76"/>
			<point x="131" y="-10"/>
		</contour>
	</outline>
	<anchor name="bottom" x="221" y="0"/>
	<anchor name="ogonek" x="349" y="21"/>
	<anchor name="top" x="294" y="500"/>
</glyph>
<glyph name="d" format="2">
  <advance width="569"/>
  <unicode hex="0064"/>
  <anchor x="238" y="0" name="bottom"/>
  <anchor x="296" y="281" name="center"/>
  <anchor x="288" y="-5" name="ogonek"/>
  <anchor x="565" y="680" name="top"/>
  <anchor x="679" y="730" name="topright"/>
  <outline>
    <contour>
      <point x="239" y="-10" type="curve" smooth="yes"/>
      <point x="333" y="-10"/>
      <point x="395" y="50"/>
      <point x="430" y="126" type="curve"/>
      <point x="401" y="0" type="line"/>
      <point x="417" y="0" type="line"/>
      <point x="585" y="730" type="line"/>
      <point x="569" y="730" type="line"/>
      <point x="473" y="311" type="line"/>
      <point x="478" y="435"/>
      <point x="407" y="510"/>
      <point x="293" y="510" type="curve" smooth="yes"/>
      <point x="144" y="510"/>
      <point x="47" y="380"/>
      <point x="47" y="213" type="curve" smooth="yes"/>
      <point x="47" y="83"/>
      <point x="119" y="-10"/>
    </contour>
    <contour>
      <point x="243" y="4" type="curve" smooth="yes"/>
      <point x="141" y="4"/>
      <point x="63" y="81"/>
      <point x="63" y="212" type="curve" smooth="yes"/>
      <point x="63" y="379"/>
      <point x="158" y="496"/>
      <point x="292" y="496" type="curve" smooth="yes"/>
      <point x="382" y="496"/>
      <point x="463" y="442"/>
      <point x="463" y="306" type="curve" smooth="yes"/>
      <point x="463" y="160"/>
      <point x="376" y="4"/>
    </contour>
  </outline>
</glyph>
<glyph name="e" format="2">
	<unicode hex="0065"/>
	<advance width="500"/>
	<outline>
		<contour>
			<point x="243" y="-9" type="curve" smooth="yes"/>
			<point x="332" y="-9"/>
			<point x="395" y="41"/>
			<point x="434" y="106" type="curve"/>
			<point x="421" y="114" type="line"/>
			<point x="383" y="48"/>
			<point x="320" y="5"/>
			<point x="243" y="5" type="curve" smooth="yes"/>
			<point x="131" y="5"/>
			<point x="63" y="93"/>
			<point x="63" y="212" type="curve" smooth="yes"/>
			<point x="63" y="369"/>
			<point x="151" y="495"/>
			<point x="283" y="495" type="curve" smooth="yes"/>
			<point x="385" y="495"/>
			<point x="441" y="410"/>
			<point x="441" y="306" type="curve" smooth="yes"/>
			<point x="441" y="296"/>
			<point x="441" y="287"/>
			<point x="439" y="271" type="curve"/>
			<point x="444" y="274" type="line"/>
			<point x="59" y="274" type="line"/>
			<point x="58" y="260" type="line"/>
			<point x="454" y="260" type="line"/>
			<point x="456" y="276"/>
			<point x="457" y="293"/>
			<point x="457" y="309" type="curve" smooth="yes"/>
			<point x="457" y="421"/>
			<point x="393" y="509"/>
			<point x="285" y="509" type="curve" smooth="yes"/>
			<point x="138" y="509"/>
			<point x="47" y="371"/>
			<point x="47" y="212" type="curve" smooth="yes"/>
			<point x="47" y="90"/>
			<point x="117" y="-9"/>
		</contour>
	</outline>
	<anchor name="bottom" x="236" y="0"/>
	<anchor name="ogonek" x="305" y="0"/>
	<anchor name="top" x="287" y="500"/>
</glyph>
<glyph name="f" format="2">
	<unicode hex="0066"/>
	<advance width="299"/>
	<outline>
		<contour>
			<point x="52" y="0" type="line"/>
			<point x="68" y="0" type="line"/>
			<point x="182" y="491" type="line"/>
			<point x="184" y="500" type="line"/>
			<point x="202" y="578" type="line" smooth="yes"/>
			<point x="224" y="672"/>
			<point x="260" y="721"/>
			<point x="335" y="721" type="curve" smooth="yes"/>
			<point x="359" y="721"/>
			<point x="380" y="712"/>
			<point x="396" y="694" type="curve"/>
			<point x="403" y="709" type="line"/>
			<point x="387" y="725"/>
			<point x="364" y="735"/>
			<point x="336" y="735" type="curve" smooth="yes"/>
			<point x="255" y="735"/>
			<point x="210" y="680"/>
			<point x="189" y="590" type="curve" smooth="yes"/>
		</contour>
		<contour>
			<point x="71" y="486" type="line"/>
			<point x="341" y="486" type="line"/>
			<point x="345" y="500" type="line"/>
			<point x="75" y="500" type="line"/>
		</contour>
	</outline>
	<anchor name="bottom" x="60" y="0"/>
	<anchor name="ogonek" x="68" y="0"/>
	<anchor name="top" x="316" y="730"/>
</glyph>
<glyph name="g" format="2">
  <advance width="571"/>
  <unicode hex="0067"/>
  <anchor x="174" y="-210" name="bottom"/>
  <anchor x="262" y="-207" name="ogonek"/>
  <anchor x="299" y="500" name="top"/>
  <outline>
    <contour>
      <point x="196" y="-215" type="curve" smooth="yes"/>
      <point x="321" y="-215"/>
      <point x="386" y="-144"/>
      <point x="416" y="-13" type="curve" smooth="yes"/>
      <point x="534" y="500" type="line"/>
      <point x="518" y="500" type="line"/>
      <point x="462" y="253" type="line"/>
      <point x="465" y="241" type="line"/>
      <point x="494" y="388"/>
      <point x="426" y="510"/>
      <point x="288" y="510" type="curve" smooth="yes"/>
      <point x="138" y="510"/>
      <point x="49" y="379"/>
      <point x="49" y="229" type="curve" smooth="yes"/>
      <point x="49" y="88"/>
      <point x="128" y="11"/>
      <point x="240" y="11" type="curve" smooth="yes"/>
      <point x="332" y="11"/>
      <point x="403" y="65"/>
      <point x="435" y="134" type="curve"/>
      <point x="440" y="159" type="line"/>
      <point x="401" y="-8" type="line" smooth="yes"/>
      <point x="372" y="-131"/>
      <point x="314" y="-201"/>
      <point x="199" y="-201" type="curve" smooth="yes"/>
      <point x="102" y="-201"/>
      <point x="26" y="-148"/>
      <point x="8" y="-45" type="curve"/>
      <point x="-7" y="-50" type="line"/>
      <point x="11" y="-154"/>
      <point x="89" y="-215"/>
    </contour>
    <contour>
      <point x="241" y="25" type="curve" smooth="yes"/>
      <point x="136" y="25"/>
      <point x="65" y="98"/>
      <point x="65" y="228" type="curve" smooth="yes"/>
      <point x="65" y="365"/>
      <point x="147" y="496"/>
      <point x="287" y="496" type="curve" smooth="yes"/>
      <point x="375" y="496"/>
      <point x="459" y="436"/>
      <point x="459" y="297" type="curve" smooth="yes"/>
      <point x="459" y="157"/>
      <point x="383" y="25"/>
    </contour>
  </outline>
</glyph>
<glyph name="h" format="2">
  <advance width="538"/>
  <unicode hex="0068"/>
  <anchor x="223" y="0" name="bottom"/>
  <anchor x="403" y="0" name="ogonek"/>
  <anchor x="190" y="680" name="top"/>
  <outline>
    <contour>
      <point x="26" y="0" type="line"/>
      <point x="42" y="0" type="line"/>
      <point x="112" y="301" type="line" smooth="yes"/>
      <point x="136" y="405"/>
      <point x="209" y="496"/>
      <point x="332" y="496" type="curve" smooth="yes"/>
      <point x="431" y="496"/>
      <point x="485" y="424"/>
      <point x="455" y="292" type="curve" smooth="yes"/>
      <point x="388" y="0" type="line"/>
      <point x="404" y="0" type="line"/>
      <point x="472" y="294" type="line" smooth="yes"/>
      <point x="503" y="428"/>
      <point x="443" y="510"/>
      <point x="333" y="510" type="curve" smooth="yes"/>
      <point x="223" y="510"/>
      <point x="151" y="444"/>
      <point x="121" y="361" type="curve"/>
      <point x="125" y="360" type="line"/>
      <point x="212" y="730" type="line"/>
      <point x="196" y="730" type="line"/>
    </contour>
  </outline>
</glyph>
<glyph name="k" format="2">
	<advance width="453"/>
	<unicode hex="006B"/>
	<anchor x="191" y="680" name="top"/>
	<anchor x="233" y="0" name="bottom"/>
	<outline>
		<contour>
			<point x="493" y="500" type="line"/>
			<point x="467" y="500" type="line"/>
			<point x="74" y="179" type="line"/>
			<point x="68" y="155" type="line"/>
			<point x="234" y="290" type="line"/>
			<point x="241" y="295" type="line"/>
		</contour>
		<contour>
			<point x="211" y="730" type="line"/>
			<point x="195" y="730" type="line"/>
			<point x="26" y="0" type="line"/>
			<point x="42" y="0" type="line"/>
		</contour>
		<contour>
			<point x="239" y="302" type="line"/>
			<point x="225" y="295" type="line"/>
			<point x="364" y="0" type="line"/>
			<point x="382" y="0" type="line"/>
		</contour>
	</outline>
</glyph>
<glyph name="l" format="2">
	<advance width="232"/>
	<unicode hex="006C"/>
	<anchor x="213" y="360" name="center"/>
	<anchor x="133" y="0" name="ogonek"/>
	<anchor x="198" y="730" name="top"/>
	<anchor x="294" y="730" name="topright"/>
	<anchor x="81" y="0" name="bottom"/>
	<outline>
		<contour>
			<point x="97" y="-9" type="curve" smooth="yes"/>
			<point x="115" y="-9"/>
			<point x="132" y="-5"/>
			<point x="140" y="0" type="curve"/>
			<point x="144" y="14" type="line"/>
			<point x="132" y="8"/>
			<point x="119" y="5"/>
			<point x="101" y="5" type="curve" smooth="yes"/>
			<point x="53" y="5"/>
			<point x="49" y="51"/>
			<point x="64" y="116" type="curve" smooth="yes"/>
			<point x="206" y="730" type="line"/>
			<point x="190" y="730" type="line"/>
			<point x="49" y="120" type="line" smooth="yes"/>
			<point x="30" y="36"/>
			<point x="44" y="-9"/>
		</contour>
	</outline>
</glyph>
<glyph name="m" format="2">
	<advance width="910"/>
	<unicode hex="006D"/>
	<anchor x="788" y="2" name="ogonek"/>
	<anchor x="406" y="0" name="bottom"/>
	<anchor x="522" y="500" name="top"/>
	<outline>
		<contour>
			<point x="26" y="0" type="line"/>
			<point x="42" y="0" type="line"/>
			<point x="112" y="301" type="line" smooth="yes"/>
			<point x="136" y="405"/>
			<point x="211" y="496"/>
			<point x="337" y="496" type="curve" smooth="yes"/>
			<point x="439" y="496"/>
			<point x="488" y="424"/>
			<point x="458" y="292" type="curve" smooth="yes"/>
			<point x="391" y="0" type="line"/>
			<point x="407" y="0" type="line"/>
			<point x="475" y="294" type="line" smooth="yes"/>
			<point x="506" y="429"/>
			<point x="454" y="510"/>
			<point x="339" y="510" type="curve" smooth="yes"/>
			<point x="226" y="510"/>
			<point x="152" y="445"/>
			<point x="121" y="361" type="curve"/>
			<point x="125" y="360" type="line"/>
			<point x="158" y="500" type="line"/>
			<point x="142" y="500" type="line"/>
		</contour>
		<contour>
			<point x="756" y="0" type="line"/>
			<point x="772" y="0" type="line"/>
			<point x="840" y="294" type="line" smooth="yes"/>
			<point x="871" y="429"/>
			<point x="819" y="510"/>
			<point x="704" y="510" type="curve" smooth="yes"/>
			<point x="591" y="510"/>
			<point x="518" y="449"/>
			<point x="481" y="357" type="curve"/>
			<point x="475" y="294" type="line"/>
			<point x="499" y="402"/>
			<point x="574" y="496"/>
			<point x="702" y="496" type="curve" smooth="yes"/>
			<point x="804" y="496"/>
			<point x="853" y="424"/>
			<point x="823" y="292" type="curve" smooth="yes"/>
		</contour>
	</outline>
</glyph>
<glyph name="n" format="2">
	<unicode hex="006E"/>
	<advance width="538"/>
	<outline>
		<contour>
			<point x="26" y="0" type="line"/>
			<point x="42" y="0" type="line"/>
			<point x="112" y="301" type="line" smooth="yes"/>
			<point x="136" y="405"/>
			<point x="209" y="496"/>
			<point x="332" y="496" type="curve" smooth="yes"/>
			<point x="431" y="496"/>
			<point x="485" y="424"/>
			<point x="455" y="292" type="curve" smooth="yes"/>
			<point x="388" y="0" type="line"/>
			<point x="404" y="0" type="line"/>
			<point x="472" y="294" type="line" smooth="yes"/>
			<point x="503" y="428"/>
			<point x="445" y="510"/>
			<point x="333" y="510" type="curve" smooth="yes"/>
			<point x="223" y="510"/>
			<point x="151" y="444"/>
			<point x="121" y="361" type="curve"/>
			<point x="125" y="360" type="line"/>
			<point x="158" y="500" type="line"/>
			<point x="142" y="500" type="line"/>
		</contour>
	</outline>
	<anchor name="bottom" x="238" y="0"/>
	<anchor name="ogonek" x="404" y="0"/>
	<anchor name="top" x="321" y="500"/>
</glyph>
<glyph name="o" format="2">
	<unicode hex="006F"/>
	<advance width="534"/>
	<outline>
		<contour>
			<point x="247" y="-9" type="curve" smooth="yes"/>
			<point x="387" y="-9"/>
			<point x="486" y="115"/>
			<point x="486" y="289" type="curve" smooth="yes"/>
			<point x="486" y="410"/>
			<point x="417" y="509"/>
			<point x="288" y="509" type="curve" smooth="yes"/>
			<point x="148" y="509"/>
			<point x="48" y="386"/>
			<point x="48" y="212" type="curve" smooth="yes"/>
			<point x="48" y="91"/>
			<point x="118" y="-9"/>
		</contour>
		<contour>
			<point x="247" y="5" type="curve" smooth="yes"/>
			<point x="137" y="5"/>
			<point x="64" y="88"/>
			<point x="64" y="211" type="curve" smooth="yes"/>
			<point x="64" y="378"/>
			<point x="156" y="495"/>
			<point x="288" y="495" type="curve" smooth="yes"/>
			<point x="397" y="495"/>
			<point x="470" y="414"/>
			<point x="470" y="290" type="curve" smooth="yes"/>
			<point x="470" y="122"/>
			<point x="378" y="5"/>
		</contour>
	</outline>
	<anchor name="bottom" x="244" y="0"/>
	<anchor name="center" x="267" y="250"/>
	<anchor name="ogonek" x="297" y="-3"/>
	<anchor name="top" x="301" y="500"/>
	<anchor name="topright" x="426" y="500"/>
</glyph>
<glyph name="p" format="2">
	<advance width="559"/>
	<unicode hex="0070"/>
	<anchor x="344" y="21" name="ogonek"/>
	<anchor x="-15" y="-210" name="bottom"/>
	<anchor x="343" y="500" name="top"/>
	<outline>
		<contour>
			<point x="-23" y="-210" type="line"/>
			<point x="-7" y="-210" type="line"/>
			<point x="99" y="248" type="line"/>
			<point x="87" y="218" type="line"/>
			<point x="81" y="86"/>
			<point x="150" y="-10"/>
			<point x="277" y="-10" type="curve" smooth="yes"/>
			<point x="422" y="-10"/>
			<point x="511" y="128"/>
			<point x="511" y="289" type="curve" smooth="yes"/>
			<point x="511" y="412"/>
			<point x="444" y="510"/>
			<point x="326" y="510" type="curve" smooth="yes"/>
			<point x="230" y="510"/>
			<point x="149" y="452"/>
			<point x="116" y="350" type="curve"/>
			<point x="120" y="341" type="line"/>
			<point x="157" y="500" type="line"/>
			<point x="141" y="500" type="line"/>
		</contour>
		<contour>
			<point x="279" y="4" type="curve" smooth="yes"/>
			<point x="172" y="4"/>
			<point x="101" y="79"/>
			<point x="101" y="199" type="curve" smooth="yes"/>
			<point x="101" y="368"/>
			<point x="187" y="496"/>
			<point x="324" y="496" type="curve" smooth="yes"/>
			<point x="422" y="496"/>
			<point x="495" y="416"/>
			<point x="495" y="290" type="curve" smooth="yes"/>
			<point x="495" y="129"/>
			<point x="406" y="4"/>
		</contour>
	</outline>
</glyph>
<glyph name="q" format="2">
  <advance width="569"/>
  <unicode hex="0071"/>
  <anchor x="360" y="-210" name="bottom"/>
  <anchor x="321" y="21" name="ogonek"/>
  <anchor x="329" y="500" name="top"/>
  <outline>
    <contour>
      <point x="352" y="-210" type="line"/>
      <point x="368" y="-210" type="line"/>
      <point x="532" y="500" type="line"/>
      <point x="516" y="500" type="line"/>
      <point x="458" y="252" type="line"/>
      <point x="461" y="240" type="line"/>
      <point x="490" y="379"/>
      <point x="430" y="510"/>
      <point x="287" y="510" type="curve" smooth="yes"/>
      <point x="141" y="510"/>
      <point x="48" y="379"/>
      <point x="48" y="213" type="curve" smooth="yes"/>
      <point x="48" y="87"/>
      <point x="117" y="-10"/>
      <point x="242" y="-10" type="curve" smooth="yes"/>
      <point x="337" y="-10"/>
      <point x="398" y="46"/>
      <point x="431" y="123" type="curve"/>
      <point x="437" y="159" type="line"/>
    </contour>
    <contour>
      <point x="240" y="4" type="curve" smooth="yes"/>
      <point x="138" y="4"/>
      <point x="64" y="85"/>
      <point x="64" y="212" type="curve" smooth="yes"/>
      <point x="64" y="377"/>
      <point x="157" y="496"/>
      <point x="286" y="496" type="curve" smooth="yes"/>
      <point x="373" y="496"/>
      <point x="455" y="439"/>
      <point x="455" y="294" type="curve" smooth="yes"/>
      <point x="455" y="124"/>
      <point x="369" y="4"/>
    </contour>
  </outline>
</glyph>
<glyph name="r" format="2">
	<unicode hex="0072"/>
	<advance width="320"/>
	<outline>
		<contour>
			<point x="26" y="0" type="line"/>
			<point x="42" y="0" type="line"/>
			<point x="112" y="300" type="line" smooth="yes"/>
			<point x="137" y="406"/>
			<point x="201" y="496"/>
			<point x="295" y="496" type="curve" smooth="yes"/>
			<point x="315" y="496"/>
			<point x="334" y="492"/>
			<point x="347" y="482" type="curve"/>
			<point x="354" y="495" type="line"/>
			<point x="340" y="505"/>
			<point x="319" y="510"/>
			<point x="297" y="510" type="curve" smooth="yes"/>
			<point x="208" y="510"/>
			<point x="155" y="442"/>
			<point x="119" y="356" type="curve"/>
			<point x="123" y="349" type="line"/>
			<point x="158" y="500" type="line"/>
			<point x="142" y="500" type="line"/>
		</contour>
	</outline>
	<anchor name="bottom" x="34" y="0"/>
	<anchor name="ogonek" x="42" y="0"/>
	<anchor name="top" x="243" y="500"/>
</glyph>
<glyph name="s" format="2">
	<advance width="464"/>
	<unicode hex="0073"/>
	<anchor x="280" y="0" name="ogonek"/>
	<anchor x="195" y="0" name="bottom"/>
	<anchor x="261" y="500" name="top"/>
	<outline>
		<contour>
			<point x="32" y="52"/>
			<point x="102" y="-10"/>
			<point x="218" y="-10" type="curve" smooth="yes"/>
			<point x="318" y="-10"/>
			<point x="387" y="49"/>
			<point x="387" y="135" type="curve" smooth="yes"/>
			<point x="387" y="193"/>
			<point x="358" y="226"/>
			<point x="292" y="246" type="curve" smooth="yes"/>
			<point x="195" y="276" type="line" smooth="yes"/>
			<point x="139" y="293"/>
			<point x="106" y="321"/>
			<point x="106" y="376" type="curve" smooth="yes"/>
			<point x="106" y="448"/>
			<point x="166" y="495"/>
			<point x="253" y="495" type="curve" smooth="yes"/>
			<point x="335" y="495"/>
			<point x="405" y="456"/>
			<point x="413" y="360" type="curve"/>
			<point x="427" y="365" type="line"/>
			<point x="417" y="469"/>
			<point x="343" y="509"/>
			<point x="255" y="509" type="curve" smooth="yes"/>
			<point x="161" y="509"/>
			<point x="90" y="459"/>
			<point x="90" y="374" type="curve" smooth="yes"/>
			<point x="90" y="307"/>
			<point x="132" y="279"/>
			<point x="190" y="261" type="curve" smooth="yes"/>
			<point x="286" y="232" type="line" smooth="yes"/>
			<point x="343" y="215"/>
			<point x="371" y="187"/>
			<point x="371" y="133" type="curve" smooth="yes"/>
			<point x="371" y="57"/>
			<point x="313" y="4"/>
			<point x="217" y="4" type="curve" smooth="yes"/>
			<point x="109" y="4"/>
			<point x="48" y="61"/>
			<point x="44" y="151" type="curve"/>
			<point x="29" y="147" type="line"/>
		</contour>
	</outline>
</glyph>
<glyph name="t" format="2">
  <advance width="301"/>
  <unicode hex="0074"/>
  <anchor x="146" y="0" name="bottom"/>
  <anchor x="147" y="250" name="center"/>
  <anchor x="212" y="9" name="ogonek"/>
  <anchor x="188" y="602" name="top"/>
  <anchor x="338" y="767" name="topright"/>
  <outline>
    <contour>
      <point x="162" y="-10" type="curve" smooth="yes"/>
      <point x="193" y="-10"/>
      <point x="224" y="1"/>
      <point x="245" y="18" type="curve"/>
      <point x="241" y="31" type="line"/>
      <point x="217" y="13"/>
      <point x="193" y="4"/>
      <point x="163" y="4" type="curve" smooth="yes"/>
      <point x="92" y="4"/>
      <point x="70" y="54"/>
      <point x="89" y="138" type="curve" smooth="yes"/>
      <point x="204" y="635" type="line"/>
      <point x="186" y="630" type="line"/>
      <point x="74" y="140" type="line" smooth="yes"/>
      <point x="52" y="44"/>
      <point x="82" y="-10"/>
    </contour>
    <contour>
      <point x="59" y="486" type="line"/>
      <point x="318" y="486" type="line"/>
      <point x="322" y="500" type="line"/>
      <point x="63" y="500" type="line"/>
    </contour>
  </outline>
</glyph>
<glyph name="u" format="2">
	<unicode hex="0075"/>
	<advance width="537"/>
	<outline>
		<contour>
			<point x="202" y="-10" type="curve" smooth="yes"/>
			<point x="302" y="-10"/>
			<point x="371" y="52"/>
			<point x="405" y="139" type="curve"/>
			<point x="401" y="140" type="line"/>
			<point x="368" y="0" type="line"/>
			<point x="384" y="0" type="line"/>
			<point x="500" y="500" type="line"/>
			<point x="484" y="500" type="line"/>
			<point x="414" y="199" type="line" smooth="yes"/>
			<point x="390" y="95"/>
			<point x="317" y="4"/>
			<point x="204" y="4" type="curve" smooth="yes"/>
			<point x="96" y="4"/>
			<point x="40" y="74"/>
			<point x="71" y="208" type="curve" smooth="yes"/>
			<point x="138" y="500" type="line"/>
			<point x="122" y="500" type="line"/>
			<point x="55" y="210" type="line" smooth="yes"/>
			<point x="22" y="69"/>
			<point x="81" y="-10"/>
		</contour>
	</outline>
	<anchor name="bottom" x="201" y="0"/>
	<anchor name="ogonek" x="384" y="0"/>
	<anchor name="top" x="300" y="480"/>
	<anchor name="topright" x="539" y="500"/>
</glyph>
<glyph name="v" format="2">
  <advance width="445"/>
  <unicode hex="0076"/>
  <anchor x="165" y="0" name="bottom"/>
  <anchor x="173" y="0" name="ogonek"/>
  <anchor x="281" y="500" name="top"/>
  <outline>
    <contour>
      <point x="462" y="500" type="line"/>
      <point x="165" y="16" type="line"/>
      <point x="170" y="13" type="line"/>
      <point x="96" y="500" type="line"/>
      <point x="80" y="500" type="line"/>
      <point x="156" y="0" type="line"/>
      <point x="173" y="0" type="line"/>
      <point x="481" y="500" type="line"/>
    </contour>
  </outline>
</glyph>
<glyph name="w" format="2">
	<advance width="735"/>
	<unicode hex="0077"/>
	<anchor x="493" y="0" name="ogonek"/>
	<anchor x="310" y="0" name="bottom"/>
	<anchor x="426" y="500" name="top"/>
	<outline>
		<contour>
			<point x="127" y="0" type="line"/>
			<point x="143" y="0" type="line"/>
			<point x="420" y="474" type="line"/>
			<point x="477" y="0" type="line"/>
			<point x="493" y="0" type="line"/>
			<point x="765" y="500" type="line"/>
			<point x="747" y="500" type="line"/>
			<point x="490" y="25" type="line"/>
			<point x="433" y="500" type="line"/>
			<point x="417" y="500" type="line"/>
			<point x="140" y="24" type="line"/>
			<point x="102" y="500" type="line"/>
			<point x="86" y="500" type="line"/>
		</contour>
	</outline>
</glyph>
<glyph name="x" format="2">
  <advance width="442"/>
  <unicode hex="0078"/>
  <anchor x="163" y="0" name="bottom"/>
  <anchor x="370" y="0" name="ogonek"/>
  <anchor x="279" y="500" name="top"/>
  <outline>
    <contour>
      <point x="-39" y="0" type="line"/>
      <point x="-16" y="0" type="line"/>
      <point x="223" y="251" type="line"/>
      <point x="230" y="259" type="line"/>
      <point x="461" y="500" type="line"/>
      <point x="439" y="500" type="line"/>
      <point x="218" y="268" type="line"/>
      <point x="215" y="265" type="line"/>
    </contour>
    <contour>
      <point x="351" y="0" type="line"/>
      <point x="370" y="0" type="line"/>
      <point x="229" y="266" type="line"/>
      <point x="225" y="272" type="line"/>
      <point x="103" y="500" type="line"/>
      <point x="85" y="500" type="line"/>
      <point x="216" y="256" type="line"/>
      <point x="217" y="253" type="line"/>
    </contour>
  </outline>
</glyph>
<glyph name="y" format="2">
	<advance width="451"/>
	<unicode hex="0079"/>
	<anchor x="-4" y="-210" name="ogonek"/>
	<anchor x="273" y="480" name="top"/>
	<anchor x="264" y="427" name="top_hook"/>
	<anchor x="246" y="-75" name="bottom"/>
	<outline>
		<contour>
			<point x="-34" y="-215" type="curve" smooth="yes"/>
			<point x="24" y="-215"/>
			<point x="64" y="-185"/>
			<point x="116" y="-101" type="curve" smooth="yes"/>
			<point x="487" y="500" type="line"/>
			<point x="468" y="500" type="line"/>
			<point x="199" y="62" type="line"/>
			<point x="171" y="17" type="line"/>
			<point x="166" y="56" type="line"/>
			<point x="94" y="500" type="line"/>
			<point x="78" y="500" type="line"/>
			<point x="159" y="0" type="line"/>
			<point x="103" y="-92" type="line" smooth="yes"/>
			<point x="55" y="-172"/>
			<point x="16" y="-201"/>
			<point x="-32" y="-201" type="curve" smooth="yes"/>
			<point x="-59" y="-201"/>
			<point x="-81" y="-192"/>
			<point x="-92" y="-173" type="curve"/>
			<point x="-104" y="-183" type="line"/>
			<point x="-94" y="-204"/>
			<point x="-67" y="-215"/>
		</contour>
	</outline>
</glyph>
<glyph name="z" format="2">
	<unicode hex="007A"/>
	<advance width="443"/>
	<outline>
		<contour>
			<point x="-19" y="0" type="line"/>
			<point x="357" y="0" type="line"/>
			<point x="360" y="14" type="line"/>
			<point x="82" y="14" type="line"/>
			<point x="6" y="14" type="line"/>
			<point x="73" y="83" type="line"/>
			<point x="455" y="486" type="line"/>
			<point x="459" y="500" type="line"/>
			<point x="93" y="500" type="line"/>
			<point x="90" y="486" type="line"/>
			<point x="373" y="486" type="line"/>
			<point x="434" y="486" type="line"/>
			<point x="389" y="441" type="line"/>
			<point x="-16" y="14" type="line"/>
		</contour>
	</outline>
	<anchor name="bottom" x="192" y="0"/>
	<anchor name="center" x="221" y="250"/>
	<anchor name="ogonek" x="357" y="0"/>
	<anchor name="top" x="264" y="500"/>
</glyph>
<glyph name="braceleft" format="2">
	<unicode hex="007B"/>
	<advance width="259"/>
	<outline>
		<contour>
			<point x="128" y="-170" type="curve" smooth="yes"/>
			<point x="139" y="-170" type="line"/>
			<point x="142" y="-158" type="line"/>
			<point x="132" y="-158" type="line" smooth="yes"/>
			<point x="82" y="-156"/>
			<point x="53" y="-119"/>
			<point x="67" y="-58" type="curve" smooth="yes"/>
			<point x="123" y="185" type="line" smooth="yes"/>
			<point x="134" y="234"/>
			<point x="115" y="272"/>
			<point x="66" y="285" type="curve"/>
			<point x="123" y="294"/>
			<point x="159" y="337"/>
			<point x="167" y="373" type="curve" smooth="yes"/>
			<point x="226" y="634" type="line" smooth="yes"/>
			<point x="239" y="690"/>
			<point x="271" y="727"/>
			<point x="325" y="727" type="curve" smooth="yes"/>
			<point x="346" y="727" type="line"/>
			<point x="349" y="740" type="line"/>
			<point x="328" y="740" type="line" smooth="yes"/>
			<point x="266" y="740"/>
			<point x="225" y="699"/>
			<point x="211" y="638" type="curve" smooth="yes"/>
			<point x="151" y="376" type="line" smooth="yes"/>
			<point x="140" y="329"/>
			<point x="94" y="292"/>
			<point x="26" y="292" type="curve" smooth="yes"/>
			<point x="19" y="292" type="line"/>
			<point x="16" y="279" type="line"/>
			<point x="23" y="279" type="line" smooth="yes"/>
			<point x="82" y="280"/>
			<point x="121" y="246"/>
			<point x="108" y="188" type="curve" smooth="yes"/>
			<point x="52" y="-54" type="line" smooth="yes"/>
			<point x="36" y="-125"/>
			<point x="69" y="-170"/>
		</contour>
	</outline>
</glyph>
<glyph name="bar" format="2">
	<advance width="165"/>
	<unicode hex="007C"/>
	<outline>
		<contour>
			<point x="201" y="730" type="line"/>
			<point x="186" y="730" type="line"/>
			<point x="-22" y="-168" type="line"/>
			<point x="-7" y="-168" type="line"/>
		</contour>
	</outline>
</glyph>
<glyph name="braceright" format="2">
  <advance width="259"/>
  <unicode hex="007D"/>
  <outline>
    <contour>
      <point x="-85" y="-170" type="line"/>
      <point x="-64" y="-170" type="line" smooth="yes"/>
      <point x="-2" y="-170"/>
      <point x="39" y="-129"/>
      <point x="53" y="-68" type="curve" smooth="yes"/>
      <point x="113" y="194" type="line" smooth="yes"/>
      <point x="124" y="241"/>
      <point x="170" y="278"/>
      <point x="238" y="278" type="curve" smooth="yes"/>
      <point x="245" y="278" type="line"/>
      <point x="248" y="291" type="line"/>
      <point x="241" y="291" type="line" smooth="yes"/>
      <point x="182" y="290"/>
      <point x="143" y="324"/>
      <point x="156" y="382" type="curve" smooth="yes"/>
      <point x="212" y="624" type="line" smooth="yes"/>
      <point x="228" y="695"/>
      <point x="195" y="740"/>
      <point x="136" y="740" type="curve" smooth="yes"/>
      <point x="125" y="740" type="line"/>
      <point x="122" y="728" type="line"/>
      <point x="132" y="728" type="line" smooth="yes"/>
      <point x="182" y="726"/>
      <point x="211" y="689"/>
      <point x="197" y="628" type="curve" smooth="yes"/>
      <point x="141" y="385" type="line" smooth="yes"/>
      <point x="130" y="336"/>
      <point x="149" y="298"/>
      <point x="198" y="285" type="curve"/>
      <point x="141" y="276"/>
      <point x="105" y="233"/>
      <point x="97" y="197" type="curve" smooth="yes"/>
      <point x="38" y="-64" type="line" smooth="yes"/>
      <point x="25" y="-120"/>
      <point x="-7" y="-157"/>
      <point x="-61" y="-157" type="curve" smooth="yes"/>
      <point x="-82" y="-157" type="line"/>
    </contour>
  </outline>
</glyph>
<glyph name="asciitilde" format="2">
	<unicode hex="007E"/>
	<advance width="479"/>
	<outline>
		<contour>
			<point x="466" y="395" type="curve"/>
			<point x="450" y="395" type="line"/>
			<point x="430" y="340"/>
			<point x="397" y="315"/>
			<point x="352" y="315" type="curve" smooth="yes"/>
			<point x="275" y="315"/>
			<point x="247" y="389"/>
			<point x="173" y="389" type="curve" smooth="yes"/>
			<point x="121" y="389"/>
			<point x="78" y="358"/>
			<point x="56" y="295" type="curve"/>
			<point x="72" y="295" type="line"/>
			<point x="92" y="349"/>
			<point x="126" y="375"/>
			<point x="171" y="375" type="curve" smooth="yes"/>
			<point x="240" y="375"/>
			<point x="268" y="301"/>
			<point x="352" y="301" type="curve" smooth="yes"/>
			<point x="402" y="301"/>
			<point x="444" y="331"/>
		</contour>
	</outline>
</glyph>
<glyph name="cent" format="2">
	<unicode hex="00A2"/>
	<advance width="515"/>
	<outline>
		<contour>
			<point x="259" y="-10" type="curve" smooth="yes"/>
			<point x="350" y="-10"/>
			<point x="417" y="43"/>
			<point x="452" y="118" type="curve"/>
			<point x="440" y="125" type="line"/>
			<point x="408" y="55"/>
			<point x="344" y="4"/>
			<point x="262" y="4" type="curve" smooth="yes"/>
			<point x="155" y="4"/>
			<point x="74" y="82"/>
			<point x="74" y="212" type="curve" smooth="yes"/>
			<point x="74" y="365"/>
			<point x="161" y="496"/>
			<point x="304" y="496" type="curve" smooth="yes"/>
			<point x="391" y="496"/>
			<point x="450" y="445"/>
			<point x="466" y="360" type="curve"/>
			<point x="481" y="363" type="line"/>
			<point x="464" y="456"/>
			<point x="396" y="510"/>
			<point x="304" y="510" type="curve" smooth="yes"/>
			<point x="154" y="510"/>
			<point x="58" y="376"/>
			<point x="58" y="209" type="curve" smooth="yes"/>
			<point x="58" y="76"/>
			<point x="144" y="-10"/>
		</contour>
		<contour>
			<point x="178" y="-100" type="line"/>
			<point x="192" y="-100" type="line"/>
			<point x="354" y="600" type="line"/>
			<point x="340" y="600" type="line"/>
		</contour>
	</outline>
</glyph>
<glyph name="sterling" format="2">
	<unicode hex="00A3"/>
	<advance width="530"/>
	<outline>
		<contour>
			<point x="73" y="303" type="line"/>
			<point x="382" y="303" type="line"/>
			<point x="385" y="317" type="line"/>
			<point x="76" y="317" type="line"/>
		</contour>
		<component base="sterling.part" xOffset="-19"/>
	</outline>
</glyph>
<glyph name="currency" format="2">
  <advance width="579"/>
  <unicode hex="00A4"/>
  <outline>
    <contour>
      <point x="311" y="516" type="curve" smooth="yes"/>
      <point x="209" y="516"/>
      <point x="141" y="442"/>
      <point x="141" y="329" type="curve" smooth="yes"/>
      <point x="141" y="220"/>
      <point x="206" y="148"/>
      <point x="306" y="148" type="curve" smooth="yes"/>
      <point x="407" y="148"/>
      <point x="474" y="224"/>
      <point x="474" y="337" type="curve" smooth="yes"/>
      <point x="474" y="446"/>
      <point x="409" y="516"/>
    </contour>
    <contour>
      <point x="311" y="502" type="curve" smooth="yes"/>
      <point x="401" y="502"/>
      <point x="458" y="437"/>
      <point x="458" y="337" type="curve" smooth="yes"/>
      <point x="458" y="231"/>
      <point x="399" y="162"/>
      <point x="306" y="162" type="curve" smooth="yes"/>
      <point x="215" y="162"/>
      <point x="157" y="227"/>
      <point x="157" y="329" type="curve" smooth="yes"/>
      <point x="157" y="434"/>
      <point x="218" y="502"/>
    </contour>
    <contour>
      <point x="98" y="569" type="line"/>
      <point x="86" y="557" type="line"/>
      <point x="185" y="451" type="line"/>
      <point x="197" y="462" type="line"/>
    </contour>
    <contour>
      <point x="183" y="211" type="line"/>
      <point x="80" y="103" type="line"/>
      <point x="92" y="91" type="line"/>
      <point x="195" y="199" type="line"/>
    </contour>
    <contour>
      <point x="429" y="211" type="line"/>
      <point x="419" y="199" type="line"/>
      <point x="519" y="91" type="line"/>
      <point x="530" y="102" type="line"/>
    </contour>
    <contour>
      <point x="526" y="569" type="line"/>
      <point x="423" y="463" type="line"/>
      <point x="434" y="450" type="line"/>
      <point x="536" y="558" type="line"/>
    </contour>
  </outline>
</glyph>
<glyph name="yen" format="2">
	<advance width="546"/>
	<unicode hex="00A5"/>
	<outline>
		<contour>
			<point x="208" y="0" type="line"/>
			<point x="223" y="0" type="line"/>
			<point x="254" y="133" type="line"/>
			<point x="451" y="133" type="line"/>
			<point x="454" y="147" type="line"/>
			<point x="257" y="147" type="line"/>
			<point x="282" y="256" type="line"/>
			<point x="479" y="256" type="line"/>
			<point x="483" y="270" type="line"/>
			<point x="328" y="270" type="line"/>
			<point x="292" y="270" type="line"/>
			<point x="597" y="660" type="line"/>
			<point x="578" y="660" type="line"/>
			<point x="298" y="297" type="line"/>
			<point x="279" y="273" type="line"/>
			<point x="277" y="273" type="line"/>
			<point x="269" y="297" type="line"/>
			<point x="159" y="660" type="line"/>
			<point x="140" y="660" type="line"/>
			<point x="265" y="270" type="line"/>
			<point x="229" y="270" type="line"/>
			<point x="75" y="270" type="line"/>
			<point x="71" y="256" type="line"/>
			<point x="267" y="256" type="line"/>
			<point x="242" y="147" type="line"/>
			<point x="46" y="147" type="line"/>
			<point x="43" y="133" type="line"/>
			<point x="238" y="133" type="line"/>
		</contour>
	</outline>
</glyph>
<glyph name="brokenbar" format="2">
	<advance width="165"/>
	<unicode hex="00A6"/>
	<outline>
		<contour>
			<point x="201" y="730" type="line"/>
			<point x="186" y="730" type="line"/>
			<point x="101" y="364" type="line"/>
			<point x="116" y="364" type="line"/>
		</contour>
		<contour>
			<point x="78" y="198" type="line"/>
			<point x="63" y="198" type="line"/>
			<point x="-22" y="-168" type="line"/>
			<point x="-7" y="-168" type="line"/>
		</contour>
	</outline>
</glyph>
<glyph name="section" format="2">
  <advance width="531"/>
  <unicode hex="00A7"/>
  <outline>
    <contour>
      <point x="232" y="-110" type="curve" smooth="yes"/>
      <point x="347" y="-110"/>
      <point x="405" y="-48"/>
      <point x="405" y="35" type="curve" smooth="yes"/>
      <point x="405" y="98"/>
      <point x="369" y="135"/>
      <point x="310" y="157" type="curve" smooth="yes"/>
      <point x="186" y="203" type="line" smooth="yes"/>
      <point x="132" y="223"/>
      <point x="80" y="250"/>
      <point x="80" y="314" type="curve" smooth="yes"/>
      <point x="80" y="369"/>
      <point x="120" y="416"/>
      <point x="218" y="422" type="curve"/>
      <point x="208" y="433" type="line"/>
      <point x="105" y="428"/>
      <point x="65" y="374"/>
      <point x="65" y="314" type="curve" smooth="yes"/>
      <point x="65" y="243"/>
      <point x="119" y="211"/>
      <point x="175" y="191" type="curve" smooth="yes"/>
      <point x="307" y="143" type="line" smooth="yes"/>
      <point x="357" y="125"/>
      <point x="389" y="92"/>
      <point x="389" y="34" type="curve" smooth="yes"/>
      <point x="389" y="-41"/>
      <point x="338" y="-96"/>
      <point x="233" y="-96" type="curve" smooth="yes"/>
      <point x="161" y="-96"/>
      <point x="95" y="-65"/>
      <point x="68" y="3" type="curve"/>
      <point x="54" y="-4" type="line"/>
      <point x="84" y="-76"/>
      <point x="148" y="-110"/>
    </contour>
    <contour>
      <point x="339" y="131" type="line"/>
      <point x="427" y="128"/>
      <point x="483" y="186"/>
      <point x="483" y="260" type="curve" smooth="yes"/>
      <point x="483" y="315"/>
      <point x="452" y="347"/>
      <point x="368" y="377" type="curve" smooth="yes"/>
      <point x="271" y="412" type="line" smooth="yes"/>
      <point x="202" y="437"/>
      <point x="173" y="473"/>
      <point x="173" y="529" type="curve" smooth="yes"/>
      <point x="173" y="595"/>
      <point x="229" y="656"/>
      <point x="334" y="656" type="curve" smooth="yes"/>
      <point x="402" y="656"/>
      <point x="462" y="632"/>
      <point x="489" y="565" type="curve"/>
      <point x="503" y="572" type="line"/>
      <point x="477" y="641"/>
      <point x="412" y="670"/>
      <point x="335" y="670" type="curve" smooth="yes"/>
      <point x="218" y="670"/>
      <point x="157" y="604"/>
      <point x="157" y="529" type="curve" smooth="yes"/>
      <point x="157" y="468"/>
      <point x="186" y="427"/>
      <point x="266" y="398" type="curve" smooth="yes"/>
      <point x="360" y="364" type="line" smooth="yes"/>
      <point x="439" y="335"/>
      <point x="467" y="309"/>
      <point x="467" y="260" type="curve" smooth="yes"/>
      <point x="467" y="190"/>
      <point x="413" y="136"/>
      <point x="329" y="142" type="curve"/>
    </contour>
  </outline>
</glyph>
<glyph name="copyright" format="2">
	<advance width="789"/>
	<unicode hex="00A9"/>
	<outline>
		<contour>
			<point x="413" y="-10" type="curve" smooth="yes"/>
			<point x="612" y="-10"/>
			<point x="745" y="136"/>
			<point x="745" y="330" type="curve" smooth="yes"/>
			<point x="745" y="524"/>
			<point x="612" y="670"/>
			<point x="413" y="670" type="curve" smooth="yes"/>
			<point x="214" y="670"/>
			<point x="81" y="524"/>
			<point x="81" y="330" type="curve" smooth="yes"/>
			<point x="81" y="136"/>
			<point x="214" y="-10"/>
		</contour>
		<contour>
			<point x="413" y="4" type="curve" smooth="yes"/>
			<point x="224" y="4"/>
			<point x="97" y="145"/>
			<point x="97" y="330" type="curve" smooth="yes"/>
			<point x="97" y="515"/>
			<point x="224" y="656"/>
			<point x="413" y="656" type="curve" smooth="yes"/>
			<point x="602" y="656"/>
			<point x="729" y="515"/>
			<point x="729" y="330" type="curve" smooth="yes"/>
			<point x="729" y="145"/>
			<point x="602" y="4"/>
		</contour>
		<contour>
			<point x="425" y="143" type="curve" smooth="yes"/>
			<point x="500" y="143"/>
			<point x="561" y="186"/>
			<point x="579" y="253" type="curve"/>
			<point x="564" y="259" type="line"/>
			<point x="549" y="197"/>
			<point x="494" y="157"/>
			<point x="424" y="157" type="curve" smooth="yes"/>
			<point x="321" y="157"/>
			<point x="259" y="221"/>
			<point x="259" y="328" type="curve" smooth="yes"/>
			<point x="259" y="435"/>
			<point x="321" y="499"/>
			<point x="424" y="499" type="curve" smooth="yes"/>
			<point x="495" y="499"/>
			<point x="541" y="468"/>
			<point x="560" y="406" type="curve"/>
			<point x="574" y="413" type="line"/>
			<point x="552" y="479"/>
			<point x="501" y="513"/>
			<point x="425" y="513" type="curve" smooth="yes"/>
			<point x="311" y="513"/>
			<point x="243" y="444"/>
			<point x="243" y="328" type="curve" smooth="yes"/>
			<point x="243" y="212"/>
			<point x="311" y="143"/>
		</contour>
	</outline>
</glyph>
<glyph name="ordfeminine" format="2">
	<advance width="355"/>
	<unicode hex="00AA"/>
	<outline>
		<contour>
			<point x="210" y="327" type="curve" smooth="yes"/>
			<point x="265" y="327"/>
			<point x="309" y="369"/>
			<point x="325" y="422" type="curve"/>
			<point x="322" y="415" type="line"/>
			<point x="302" y="336" type="line"/>
			<point x="318" y="336" type="line"/>
			<point x="395" y="660" type="line"/>
			<point x="379" y="660" type="line"/>
			<point x="340" y="498" type="line"/>
			<point x="345" y="509" type="line"/>
			<point x="356" y="605"/>
			<point x="320" y="666"/>
			<point x="242" y="666" type="curve" smooth="yes"/>
			<point x="155" y="666"/>
			<point x="94" y="575"/>
			<point x="94" y="469" type="curve" smooth="yes"/>
			<point x="94" y="381"/>
			<point x="137" y="327"/>
		</contour>
		<contour>
			<point x="45" y="223" type="line"/>
			<point x="293" y="223" type="line"/>
			<point x="296" y="237" type="line"/>
			<point x="48" y="237" type="line"/>
		</contour>
		<contour>
			<point x="211" y="341" type="curve" smooth="yes"/>
			<point x="146" y="341"/>
			<point x="108" y="391"/>
			<point x="108" y="471" type="curve" smooth="yes"/>
			<point x="108" y="560"/>
			<point x="160" y="652"/>
			<point x="242" y="652" type="curve" smooth="yes"/>
			<point x="303" y="652"/>
			<point x="338" y="612"/>
			<point x="338" y="528" type="curve" smooth="yes"/>
			<point x="338" y="429"/>
			<point x="289" y="341"/>
		</contour>
	</outline>
</glyph>
<glyph name="logicalnot" format="2">
	<unicode hex="00AC"/>
	<advance width="604"/>
	<outline>
		<contour>
			<point x="542" y="317" type="line"/>
			<point x="526" y="317" type="line"/>
			<point x="494" y="176" type="line"/>
			<point x="510" y="176" type="line"/>
		</contour>
		<contour>
			<point x="544" y="323" type="line"/>
			<point x="94" y="323" type="line"/>
			<point x="91" y="309" type="line"/>
			<point x="541" y="309" type="line"/>
		</contour>
	</outline>
</glyph>
<glyph name="registered" format="2">
	<advance width="810"/>
	<unicode hex="00AE"/>
	<outline>
		<contour>
			<point x="424" y="670" type="curve" smooth="yes"/>
			<point x="219" y="670"/>
			<point x="82" y="534"/>
			<point x="82" y="330" type="curve" smooth="yes"/>
			<point x="82" y="126"/>
			<point x="219" y="-10"/>
			<point x="424" y="-10" type="curve" smooth="yes"/>
			<point x="629" y="-10"/>
			<point x="766" y="126"/>
			<point x="766" y="330" type="curve" smooth="yes"/>
			<point x="766" y="534"/>
			<point x="629" y="670"/>
		</contour>
		<contour>
			<point x="318" y="513" type="line"/>
			<point x="302" y="513" type="line"/>
			<point x="302" y="143" type="line"/>
			<point x="318" y="143" type="line"/>
		</contour>
		<contour>
			<point x="467" y="322" type="line"/>
			<point x="453" y="316" type="line"/>
			<point x="564" y="143" type="line"/>
			<point x="582" y="143" type="line"/>
		</contour>
		<contour>
			<point x="424" y="656" type="curve" smooth="yes"/>
			<point x="619" y="656"/>
			<point x="750" y="525"/>
			<point x="750" y="330" type="curve" smooth="yes"/>
			<point x="750" y="135"/>
			<point x="619" y="4"/>
			<point x="424" y="4" type="curve" smooth="yes"/>
			<point x="229" y="4"/>
			<point x="98" y="135"/>
			<point x="98" y="330" type="curve" smooth="yes"/>
			<point x="98" y="525"/>
			<point x="229" y="656"/>
		</contour>
		<contour>
			<point x="457" y="513" type="curve" smooth="yes"/>
			<point x="308" y="513" type="line"/>
			<point x="308" y="499" type="line"/>
			<point x="457" y="499" type="line" smooth="yes"/>
			<point x="526" y="499"/>
			<point x="561" y="470"/>
			<point x="561" y="412" type="curve" smooth="yes"/>
			<point x="561" y="355"/>
			<point x="526" y="325"/>
			<point x="457" y="324" type="curve" smooth="yes"/>
			<point x="308" y="324" type="line"/>
			<point x="308" y="311" type="line"/>
			<point x="457" y="311" type="line" smooth="yes"/>
			<point x="536" y="312"/>
			<point x="576" y="346"/>
			<point x="576" y="412" type="curve" smooth="yes"/>
			<point x="576" y="479"/>
			<point x="536" y="513"/>
		</contour>
	</outline>
</glyph>
<glyph name="degree" format="2">
	<unicode hex="00B0"/>
	<advance width="359"/>
	<outline>
		<contour>
			<point x="245" y="400" type="curve" smooth="yes"/>
			<point x="326" y="400"/>
			<point x="379" y="455"/>
			<point x="379" y="535" type="curve" smooth="yes"/>
			<point x="379" y="615"/>
			<point x="326" y="670"/>
			<point x="245" y="670" type="curve" smooth="yes"/>
			<point x="164" y="670"/>
			<point x="111" y="615"/>
			<point x="111" y="535" type="curve" smooth="yes"/>
			<point x="111" y="455"/>
			<point x="164" y="400"/>
		</contour>
		<contour>
			<point x="245" y="414" type="curve" smooth="yes"/>
			<point x="173" y="414"/>
			<point x="127" y="464"/>
			<point x="127" y="535" type="curve" smooth="yes"/>
			<point x="127" y="606"/>
			<point x="173" y="656"/>
			<point x="245" y="656" type="curve" smooth="yes"/>
			<point x="317" y="656"/>
			<point x="363" y="606"/>
			<point x="363" y="535" type="curve" smooth="yes"/>
			<point x="363" y="464"/>
			<point x="317" y="414"/>
		</contour>
	</outline>
</glyph>
<glyph name="plusminus" format="2">
	<advance width="581"/>
	<unicode hex="00B1"/>
	<outline>
		<contour>
			<point x="384" y="622" type="line"/>
			<point x="369" y="622" type="line"/>
			<point x="250" y="106" type="line"/>
			<point x="265" y="106" type="line"/>
		</contour>
		<contour>
			<point x="533" y="374" type="line"/>
			<point x="106" y="374" type="line"/>
			<point x="102" y="360" type="line"/>
			<point x="528" y="360" type="line"/>
		</contour>
		<contour>
			<point x="450" y="14" type="line"/>
			<point x="23" y="14" type="line"/>
			<point x="19" y="0" type="line"/>
			<point x="445" y="0" type="line"/>
		</contour>
	</outline>
</glyph>
<glyph name="twosuperior" format="2">
	<advance width="363"/>
	<unicode hex="00B2"/>
	<anchor x="243" y="517" name="_indexring"/>
	<outline>
		<contour>
			<point x="102" y="333" type="line"/>
			<point x="328" y="333" type="line"/>
			<point x="331" y="347" type="line"/>
			<point x="156" y="347" type="line" smooth="yes"/>
			<point x="145" y="347"/>
			<point x="137" y="347"/>
			<point x="126" y="347" type="curve"/>
			<point x="126" y="347" type="line"/>
			<point x="223" y="426"/>
			<point x="364" y="512"/>
			<point x="364" y="640" type="curve" smooth="yes"/>
			<point x="364" y="697"/>
			<point x="329" y="735"/>
			<point x="273" y="735" type="curve" smooth="yes"/>
			<point x="210" y="735"/>
			<point x="165" y="690"/>
			<point x="148" y="624" type="curve"/>
			<point x="162" y="618" type="line"/>
			<point x="175" y="681"/>
			<point x="219" y="721"/>
			<point x="273" y="721" type="curve" smooth="yes"/>
			<point x="319" y="721"/>
			<point x="349" y="691"/>
			<point x="349" y="640" type="curve" smooth="yes"/>
			<point x="349" y="516"/>
			<point x="205" y="430"/>
			<point x="105" y="348" type="curve"/>
		</contour>
	</outline>
</glyph>
<glyph name="threesuperior" format="2">
	<unicode hex="00B3"/>
	<advance width="354"/>
	<outline>
		<contour>
			<point x="212" y="327" type="curve" smooth="yes"/>
			<point x="276" y="327"/>
			<point x="323" y="375"/>
			<point x="323" y="443" type="curve" smooth="yes"/>
			<point x="323" y="496"/>
			<point x="292" y="521"/>
			<point x="263" y="530" type="curve"/>
			<point x="264" y="532" type="line"/>
			<point x="316" y="545"/>
			<point x="347" y="589"/>
			<point x="347" y="644" type="curve" smooth="yes"/>
			<point x="347" y="698"/>
			<point x="312" y="735"/>
			<point x="253" y="735" type="curve" smooth="yes"/>
			<point x="202" y="735"/>
			<point x="163" y="706"/>
			<point x="143" y="662" type="curve"/>
			<point x="155" y="654" type="line"/>
			<point x="170" y="693"/>
			<point x="206" y="721"/>
			<point x="253" y="721" type="curve" smooth="yes"/>
			<point x="304" y="721"/>
			<point x="331" y="692"/>
			<point x="331" y="644" type="curve" smooth="yes"/>
			<point x="331" y="581"/>
			<point x="287" y="540"/>
			<point x="236" y="540" type="curve" smooth="yes"/>
			<point x="230" y="540"/>
			<point x="224" y="540"/>
			<point x="216" y="541" type="curve"/>
			<point x="212" y="525" type="line"/>
			<point x="218" y="526"/>
			<point x="224" y="526"/>
			<point x="227" y="526" type="curve" smooth="yes"/>
			<point x="270" y="526"/>
			<point x="307" y="498"/>
			<point x="307" y="443" type="curve" smooth="yes"/>
			<point x="307" y="382"/>
			<point x="270" y="342"/>
			<point x="212" y="342" type="curve" smooth="yes"/>
			<point x="160" y="342"/>
			<point x="120" y="368"/>
			<point x="110" y="437" type="curve"/>
			<point x="96" y="432" type="line"/>
			<point x="107" y="360"/>
			<point x="153" y="327"/>
		</contour>
	</outline>
	<anchor name="_indexring" x="230" y="530"/>
</glyph>
<glyph name="micro" format="2">
	<unicode hex="00B5"/>
	<advance width="560"/>
	<outline>
		<contour>
			<point x="-23" y="-210" type="line"/>
			<point x="-7" y="-210" type="line"/>
			<point x="71" y="123" type="line"/>
			<point x="71" y="123" type="line"/>
			<point x="75" y="41"/>
			<point x="135" y="-10"/>
			<point x="223" y="-10" type="curve" smooth="yes"/>
			<point x="317" y="-10"/>
			<point x="382" y="43"/>
			<point x="419" y="119" type="curve"/>
			<point x="391" y="0" type="line"/>
			<point x="407" y="0" type="line"/>
			<point x="523" y="500" type="line"/>
			<point x="507" y="500" type="line"/>
			<point x="437" y="199" type="line" smooth="yes"/>
			<point x="413" y="95"/>
			<point x="339" y="4"/>
			<point x="225" y="4" type="curve" smooth="yes"/>
			<point x="115" y="4"/>
			<point x="61" y="82"/>
			<point x="89" y="205" type="curve" smooth="yes"/>
			<point x="157" y="500" type="line"/>
			<point x="141" y="500" type="line"/>
		</contour>
	</outline>
</glyph>
<glyph name="paragraph" format="2">
  <advance width="521"/>
  <unicode hex="00B6"/>
  <outline>
    <contour>
      <point x="188" y="-100" type="line"/>
      <point x="204" y="-100" type="line"/>
      <point x="376" y="646" type="line"/>
      <point x="515" y="646" type="line"/>
      <point x="343" y="-100" type="line"/>
      <point x="359" y="-100" type="line"/>
      <point x="535" y="660" type="line"/>
      <point x="318" y="660" type="line" smooth="yes"/>
      <point x="152" y="660"/>
      <point x="79" y="566"/>
      <point x="79" y="438" type="curve" smooth="yes"/>
      <point x="79" y="323"/>
      <point x="147" y="254"/>
      <point x="270" y="254" type="curve"/>
    </contour>
    <contour>
      <point x="273" y="268" type="line"/>
      <point x="157" y="268"/>
      <point x="95" y="332"/>
      <point x="95" y="438" type="curve" smooth="yes"/>
      <point x="95" y="556"/>
      <point x="161" y="646"/>
      <point x="318" y="646" type="curve" smooth="yes"/>
      <point x="360" y="646" type="line"/>
    </contour>
  </outline>
</glyph>
<glyph name="periodcentered" format="2">
	<advance width="191"/>
	<unicode hex="00B7"/>
	<anchor x="100" y="358" name="_center"/>
	<outline>
		<contour>
			<point x="120" y="338" type="curve" smooth="yes"/>
			<point x="132" y="338"/>
			<point x="142" y="348"/>
			<point x="142" y="362" type="curve" smooth="yes"/>
			<point x="142" y="374"/>
			<point x="134" y="382"/>
			<point x="122" y="382" type="curve" smooth="yes"/>
			<point x="108" y="382"/>
			<point x="100" y="371"/>
			<point x="100" y="358" type="curve" smooth="yes"/>
			<point x="100" y="346"/>
			<point x="108" y="338"/>
		</contour>
	</outline>
</glyph>
<glyph name="onesuperior" format="2">
	<unicode hex="00B9"/>
	<advance width="191"/>
	<outline>
		<contour>
			<point x="124" y="333" type="line"/>
			<point x="140" y="333" type="line"/>
			<point x="232" y="730" type="line"/>
			<point x="220" y="730" type="line"/>
			<point x="194" y="693"/>
			<point x="145" y="661"/>
			<point x="113" y="648" type="curve"/>
			<point x="111" y="635" type="line"/>
			<point x="158" y="654"/>
			<point x="193" y="682"/>
			<point x="211" y="706" type="curve"/>
			<point x="207" y="689"/>
			<point x="202" y="671"/>
			<point x="196" y="644" type="curve" smooth="yes"/>
		</contour>
	</outline>
	<anchor name="_indexring" x="167" y="527"/>
</glyph>
<glyph name="ordmasculine" format="2">
	<unicode hex="00BA"/>
	<advance width="355"/>
	<outline>
		<contour>
			<point x="217" y="325" type="curve" smooth="yes"/>
			<point x="304" y="325"/>
			<point x="365" y="411"/>
			<point x="365" y="524" type="curve" smooth="yes"/>
			<point x="365" y="623"/>
			<point x="318" y="665"/>
			<point x="252" y="665" type="curve" smooth="yes"/>
			<point x="165" y="665"/>
			<point x="104" y="579"/>
			<point x="104" y="467" type="curve" smooth="yes"/>
			<point x="104" y="367"/>
			<point x="151" y="325"/>
		</contour>
		<contour>
			<point x="52" y="223" type="line"/>
			<point x="291" y="223" type="line"/>
			<point x="294" y="237" type="line"/>
			<point x="55" y="237" type="line"/>
		</contour>
		<contour>
			<point x="217" y="339" type="curve" smooth="yes"/>
			<point x="161" y="339"/>
			<point x="119" y="377"/>
			<point x="119" y="468" type="curve" smooth="yes"/>
			<point x="119" y="569"/>
			<point x="175" y="651"/>
			<point x="253" y="651" type="curve" smooth="yes"/>
			<point x="308" y="651"/>
			<point x="349" y="613"/>
			<point x="349" y="522" type="curve" smooth="yes"/>
			<point x="349" y="422"/>
			<point x="295" y="339"/>
		</contour>
	</outline>
</glyph>
<glyph name="AE" format="2">
	<unicode hex="00C6"/>
	<advance width="845"/>
	<outline>
		<contour>
			<point x="-66" y="0" type="line"/>
			<point x="-41" y="0" type="line"/>
			<point x="167" y="254" type="line"/>
			<point x="417" y="254" type="line"/>
			<point x="358" y="0" type="line"/>
			<point x="756" y="0" type="line"/>
			<point x="760" y="14" type="line"/>
			<point x="379" y="14" type="line"/>
			<point x="450" y="328" type="line"/>
			<point x="743" y="328" type="line"/>
			<point x="747" y="342" type="line"/>
			<point x="453" y="342" type="line"/>
			<point x="523" y="646" type="line"/>
			<point x="889" y="646" type="line"/>
			<point x="893" y="660" type="line"/>
			<point x="485" y="660" type="line"/>
		</contour>
		<contour>
			<point x="179" y="268" type="line"/>
			<point x="493" y="646" type="line"/>
			<point x="507" y="646" type="line"/>
			<point x="420" y="268" type="line"/>
		</contour>
	</outline>
	<anchor name="bottom" x="366" y="0"/>
	<anchor name="ogonek" x="756" y="0"/>
	<anchor name="top" x="519" y="660"/>
</glyph>
<glyph name="Idieresis" format="2">
	<advance width="181"/>
	<unicode hex="00CF"/>
	<anchor x="209" y="798" name="top"/>
	<anchor x="39" y="0" name="bottom"/>
	<anchor x="47" y="0" name="ogonek"/>
	<outline>
		<contour>
			<point x="255" y="758" type="curve" smooth="yes"/>
			<point x="266" y="758"/>
			<point x="275" y="769"/>
			<point x="275" y="784" type="curve" smooth="yes"/>
			<point x="275" y="795"/>
			<point x="269" y="802"/>
			<point x="259" y="802" type="curve" smooth="yes"/>
			<point x="247" y="802"/>
			<point x="238" y="791"/>
			<point x="238" y="777" type="curve" smooth="yes"/>
			<point x="238" y="765"/>
			<point x="245" y="758"/>
		</contour>
		<contour>
			<point x="154" y="758" type="curve" smooth="yes"/>
			<point x="165" y="758"/>
			<point x="174" y="769"/>
			<point x="174" y="784" type="curve" smooth="yes"/>
			<point x="174" y="795"/>
			<point x="168" y="802"/>
			<point x="158" y="802" type="curve" smooth="yes"/>
			<point x="146" y="802"/>
			<point x="137" y="791"/>
			<point x="137" y="777" type="curve" smooth="yes"/>
			<point x="137" y="765"/>
			<point x="144" y="758"/>
		</contour>
		<component base="I" xOffset="-8"/>
	</outline>
</glyph>
<glyph name="Eth" format="2">
	<unicode hex="00D0"/>
	<advance width="693"/>
	<outline>
		<contour>
			<point x="22" y="327" type="line"/>
			<point x="351" y="327" type="line"/>
			<point x="354" y="341" type="line"/>
			<point x="25" y="341" type="line"/>
		</contour>
		<component base="D" xOffset="7"/>
	</outline>
	<anchor name="bottom" x="289" y="0"/>
	<anchor name="center" x="362" y="330"/>
	<anchor name="ogonek" x="283" y="0"/>
	<anchor name="top" x="396" y="660"/>
</glyph>
<glyph name="multiply" format="2">
  <advance width="604"/>
  <unicode hex="00D7"/>
  <outline>
    <contour>
      <point x="110" y="134" type="line"/>
      <point x="532" y="477" type="line"/>
      <point x="522" y="490" type="line"/>
      <point x="100" y="147" type="line"/>
    </contour>
    <contour>
      <point x="440" y="134" type="line"/>
      <point x="453" y="144" type="line"/>
      <point x="192" y="490" type="line"/>
      <point x="179" y="480" type="line"/>
    </contour>
  </outline>
</glyph>
<glyph name="Oslash" format="2">
	<advance width="685"/>
	<unicode hex="00D8"/>
	<anchor x="361" y="330" name="center"/>
	<anchor x="376" y="-6" name="ogonek"/>
	<anchor x="408" y="660" name="top"/>
	<anchor x="567" y="660" name="topright"/>
	<anchor x="103" y="660" name="topleft"/>
	<anchor x="313" y="0" name="bottom"/>
	<outline>
		<contour>
			<point x="155" y="71" type="line"/>
			<point x="590" y="566" type="line"/>
			<point x="581" y="577" type="line"/>
			<point x="146" y="82" type="line"/>
		</contour>
		<contour>
			<point x="62" y="-12" type="line"/>
			<point x="82" y="-12" type="line"/>
			<point x="155" y="71" type="line"/>
			<point x="146" y="82" type="line"/>
		</contour>
		<contour>
			<point x="590" y="566" type="line"/>
			<point x="686" y="674" type="line"/>
			<point x="666" y="674" type="line"/>
			<point x="581" y="577" type="line"/>
		</contour>
		<component base="O"/>
	</outline>
</glyph>
<glyph name="Thorn" format="2">
	<unicode hex="00DE"/>
	<advance width="533"/>
	<outline>
		<contour>
			<point x="85" y="134" type="line"/>
			<point x="288" y="134" type="line" smooth="yes"/>
			<point x="436" y="134"/>
			<point x="520" y="228"/>
			<point x="520" y="350" type="curve" smooth="yes"/>
			<point x="520" y="453"/>
			<point x="443" y="514"/>
			<point x="326" y="514" type="curve" smooth="yes"/>
			<point x="169" y="514" type="line"/>
			<point x="169" y="500" type="line"/>
			<point x="326" y="500" type="line" smooth="yes"/>
			<point x="436" y="500"/>
			<point x="504" y="442"/>
			<point x="504" y="350" type="curve" smooth="yes"/>
			<point x="504" y="238"/>
			<point x="425" y="148"/>
			<point x="290" y="148" type="curve" smooth="yes"/>
			<point x="85" y="148" type="line"/>
		</contour>
		<contour>
			<point x="39" y="0" type="line"/>
			<point x="55" y="0" type="line"/>
			<point x="208" y="660" type="line"/>
			<point x="192" y="660" type="line"/>
		</contour>
	</outline>
	<anchor name="bottom" x="47" y="0"/>
	<anchor name="ogonek" x="55" y="0"/>
	<anchor name="top" x="200" y="660"/>
</glyph>
<glyph name="germandbls" format="2">
	<advance width="523"/>
	<unicode hex="00DF"/>
	<anchor x="348" y="6" name="ogonek"/>
	<anchor x="221" y="0" name="bottom"/>
	<anchor x="381" y="730" name="top"/>
	<outline>
		<contour>
			<point x="261" y="-10" type="curve" smooth="yes"/>
			<point x="394" y="-10"/>
			<point x="465" y="83"/>
			<point x="465" y="208" type="curve" smooth="yes"/>
			<point x="465" y="300"/>
			<point x="416" y="360"/>
			<point x="331" y="373" type="curve"/>
			<point x="331" y="374" type="line"/>
			<point x="454" y="388"/>
			<point x="523" y="467"/>
			<point x="523" y="573" type="curve" smooth="yes"/>
			<point x="523" y="655"/>
			<point x="477" y="735"/>
			<point x="362" y="735" type="curve" smooth="yes"/>
			<point x="249" y="735"/>
			<point x="179" y="670"/>
			<point x="150" y="545" type="curve" smooth="yes"/>
			<point x="25" y="0" type="line"/>
			<point x="41" y="0" type="line"/>
			<point x="165" y="541" type="line" smooth="yes"/>
			<point x="192" y="660"/>
			<point x="258" y="721"/>
			<point x="359" y="721" type="curve" smooth="yes"/>
			<point x="468" y="721"/>
			<point x="507" y="649"/>
			<point x="507" y="572" type="curve" smooth="yes"/>
			<point x="507" y="464"/>
			<point x="424" y="384"/>
			<point x="303" y="384" type="curve" smooth="yes"/>
			<point x="292" y="384"/>
			<point x="280" y="384"/>
			<point x="267" y="385" type="curve"/>
			<point x="263" y="370" type="line"/>
			<point x="266" y="370"/>
			<point x="272" y="370"/>
			<point x="272" y="370" type="curve" smooth="yes"/>
			<point x="388" y="367"/>
			<point x="449" y="313"/>
			<point x="449" y="207" type="curve" smooth="yes"/>
			<point x="449" y="91"/>
			<point x="383" y="4"/>
			<point x="263" y="4" type="curve" smooth="yes"/>
			<point x="219" y="4"/>
			<point x="188" y="18"/>
			<point x="165" y="40" type="curve"/>
			<point x="156" y="27" type="line"/>
			<point x="178" y="8"/>
			<point x="212" y="-10"/>
		</contour>
	</outline>
</glyph>
<glyph name="ae" format="2">
  <advance width="822"/>
  <unicode hex="00E6"/>
  <anchor x="348" y="0" name="bottom"/>
  <anchor x="624" y="0" name="ogonek"/>
  <anchor x="430" y="500" name="top"/>
  <outline>
    <contour>
      <point x="162" y="-10" type="curve" smooth="yes"/>
      <point x="267" y="-10"/>
      <point x="343" y="41"/>
      <point x="380" y="210" type="curve"/>
      <point x="377" y="207" type="line"/>
      <point x="378" y="100"/>
      <point x="434" y="-9"/>
      <point x="562" y="-9" type="curve" smooth="yes"/>
      <point x="654" y="-9"/>
      <point x="716" y="40"/>
      <point x="756" y="106" type="curve"/>
      <point x="743" y="114" type="line"/>
      <point x="706" y="50"/>
      <point x="646" y="5"/>
      <point x="562" y="5" type="curve" smooth="yes"/>
      <point x="446" y="5"/>
      <point x="390" y="100"/>
      <point x="390" y="214" type="curve" smooth="yes"/>
      <point x="390" y="376"/>
      <point x="483" y="495"/>
      <point x="607" y="495" type="curve" smooth="yes"/>
      <point x="706" y="495"/>
      <point x="763" y="410"/>
      <point x="763" y="305" type="curve" smooth="yes"/>
      <point x="763" y="290"/>
      <point x="762" y="281"/>
      <point x="760" y="274" type="curve"/>
      <point x="390" y="274" type="line"/>
      <point x="390" y="260" type="line"/>
      <point x="773" y="260" type="line"/>
      <point x="776" y="274"/>
      <point x="778" y="289"/>
      <point x="778" y="309" type="curve" smooth="yes"/>
      <point x="778" y="424"/>
      <point x="714" y="509"/>
      <point x="608" y="509" type="curve" smooth="yes"/>
      <point x="510" y="509"/>
      <point x="438" y="445"/>
      <point x="405" y="362" type="curve"/>
      <point x="409" y="362" type="line"/>
      <point x="410" y="455"/>
      <point x="349" y="509"/>
      <point x="254" y="509" type="curve" smooth="yes"/>
      <point x="165" y="509"/>
      <point x="114" y="468"/>
      <point x="78" y="392" type="curve"/>
      <point x="90" y="385" type="line"/>
      <point x="123" y="457"/>
      <point x="171" y="495"/>
      <point x="254" y="495" type="curve" smooth="yes"/>
      <point x="336" y="495"/>
      <point x="396" y="450"/>
      <point x="396" y="364" type="curve" smooth="yes"/>
      <point x="396" y="348"/>
      <point x="393" y="331"/>
      <point x="389" y="312" type="curve" smooth="yes"/>
      <point x="369" y="218" type="line" smooth="yes"/>
      <point x="335" y="60"/>
      <point x="267" y="4"/>
      <point x="161" y="4" type="curve" smooth="yes"/>
      <point x="89" y="4"/>
      <point x="37" y="40"/>
      <point x="37" y="110" type="curve" smooth="yes"/>
      <point x="37" y="187"/>
      <point x="102" y="233"/>
      <point x="230" y="245" type="curve" smooth="yes"/>
      <point x="387" y="260" type="line"/>
      <point x="387" y="274" type="line"/>
      <point x="222" y="258" type="line" smooth="yes"/>
      <point x="88" y="245"/>
      <point x="20" y="192"/>
      <point x="20" y="109" type="curve" smooth="yes"/>
      <point x="20" y="30"/>
      <point x="81" y="-10"/>
    </contour>
  </outline>
</glyph>
<glyph name="idieresis" format="2">
  <advance width="154"/>
  <unicode hex="00EF"/>
  <anchor x="158" y="638" name="top"/>
  <anchor x="23" y="0" name="bottom"/>
  <anchor x="31" y="0" name="ogonek"/>
  <outline>
    <contour>
      <point x="194" y="598" type="curve" smooth="yes"/>
      <point x="205" y="598"/>
      <point x="214" y="609"/>
      <point x="214" y="624" type="curve" smooth="yes"/>
      <point x="214" y="635"/>
      <point x="208" y="642"/>
      <point x="199" y="642" type="curve" smooth="yes"/>
      <point x="187" y="642"/>
      <point x="178" y="630"/>
      <point x="178" y="616" type="curve" smooth="yes"/>
      <point x="178" y="605"/>
      <point x="185" y="598"/>
    </contour>
    <contour>
      <point x="112" y="598" type="curve" smooth="yes"/>
      <point x="123" y="598"/>
      <point x="132" y="609"/>
      <point x="132" y="624" type="curve" smooth="yes"/>
      <point x="132" y="635"/>
      <point x="126" y="642"/>
      <point x="116" y="642" type="curve" smooth="yes"/>
      <point x="105" y="642"/>
      <point x="96" y="630"/>
      <point x="96" y="616" type="curve" smooth="yes"/>
      <point x="96" y="606"/>
      <point x="102" y="598"/>
    </contour>
    <component base="idotless" xOffset="-10"/>
  </outline>
</glyph>
<glyph name="eth" format="2">
	<advance width="542"/>
	<unicode hex="00F0"/>
	<anchor x="328" y="8" name="ogonek"/>
	<anchor x="227" y="0" name="bottom"/>
	<anchor x="375" y="730" name="top"/>
	<outline>
		<contour>
			<point x="242" y="-10" type="curve" smooth="yes"/>
			<point x="419" y="-10"/>
			<point x="508" y="194"/>
			<point x="508" y="451" type="curve" smooth="yes"/>
			<point x="508" y="585"/>
			<point x="447" y="685"/>
			<point x="365" y="730" type="curve"/>
			<point x="337" y="730" type="line"/>
			<point x="427" y="685"/>
			<point x="492" y="593"/>
			<point x="492" y="443" type="curve" smooth="yes"/>
			<point x="492" y="391"/>
			<point x="487" y="320"/>
			<point x="472" y="256" type="curve"/>
			<point x="475" y="264" type="line"/>
			<point x="477" y="401"/>
			<point x="398" y="487"/>
			<point x="288" y="487" type="curve" smooth="yes"/>
			<point x="159" y="487"/>
			<point x="48" y="369"/>
			<point x="48" y="213" type="curve" smooth="yes"/>
			<point x="48" y="101"/>
			<point x="112" y="-10"/>
		</contour>
		<contour>
			<point x="240" y="4" type="curve" smooth="yes"/>
			<point x="136" y="4"/>
			<point x="64" y="96"/>
			<point x="64" y="213" type="curve" smooth="yes"/>
			<point x="64" y="368"/>
			<point x="175" y="473"/>
			<point x="286" y="473" type="curve" smooth="yes"/>
			<point x="390" y="473"/>
			<point x="463" y="392"/>
			<point x="463" y="267" type="curve" smooth="yes"/>
			<point x="463" y="139"/>
			<point x="374" y="4"/>
		</contour>
		<contour>
			<point x="282" y="574" type="line"/>
			<point x="465" y="613" type="line"/>
			<point x="460" y="625" type="line"/>
			<point x="281" y="587" type="line"/>
		</contour>
		<contour>
			<point x="465" y="613" type="line"/>
			<point x="579" y="638" type="line"/>
			<point x="578" y="651" type="line"/>
			<point x="460" y="625" type="line"/>
		</contour>
	</outline>
</glyph>
<glyph name="divide" format="2">
	<unicode hex="00F7"/>
	<advance width="604"/>
	<outline>
		<contour>
			<point x="544" y="323" type="line"/>
			<point x="94" y="323" type="line"/>
			<point x="91" y="309" type="line"/>
			<point x="541" y="309" type="line"/>
		</contour>
		<contour>
			<point x="274" y="110" type="curve" smooth="yes"/>
			<point x="286" y="110"/>
			<point x="296" y="120"/>
			<point x="296" y="134" type="curve" smooth="yes"/>
			<point x="296" y="146"/>
			<point x="288" y="154"/>
			<point x="276" y="154" type="curve" smooth="yes"/>
			<point x="262" y="154"/>
			<point x="254" y="143"/>
			<point x="254" y="130" type="curve" smooth="yes"/>
			<point x="254" y="118"/>
			<point x="262" y="110"/>
		</contour>
		<contour>
			<point x="359" y="480" type="curve" smooth="yes"/>
			<point x="371" y="480"/>
			<point x="381" y="490"/>
			<point x="381" y="504" type="curve" smooth="yes"/>
			<point x="381" y="516"/>
			<point x="373" y="524"/>
			<point x="361" y="524" type="curve" smooth="yes"/>
			<point x="347" y="524"/>
			<point x="339" y="513"/>
			<point x="339" y="500" type="curve" smooth="yes"/>
			<point x="339" y="488"/>
			<point x="347" y="480"/>
		</contour>
	</outline>
	<anchor name="_center" x="254" y="130"/>
</glyph>
<glyph name="thorn" format="2">
	<unicode hex="00FE"/>
	<advance width="559"/>
	<outline>
		<contour>
			<point x="-23" y="-210" type="line"/>
			<point x="-7" y="-210" type="line"/>
			<point x="99" y="248" type="line"/>
			<point x="87" y="218" type="line"/>
			<point x="81" y="86"/>
			<point x="150" y="-10"/>
			<point x="277" y="-10" type="curve" smooth="yes"/>
			<point x="422" y="-10"/>
			<point x="511" y="128"/>
			<point x="511" y="289" type="curve" smooth="yes"/>
			<point x="511" y="413"/>
			<point x="443" y="510"/>
			<point x="326" y="510" type="curve" smooth="yes"/>
			<point x="230" y="510"/>
			<point x="149" y="452"/>
			<point x="116" y="350" type="curve"/>
			<point x="120" y="341" type="line"/>
			<point x="210" y="730" type="line"/>
			<point x="194" y="730" type="line"/>
		</contour>
		<contour>
			<point x="279" y="4" type="curve" smooth="yes"/>
			<point x="172" y="4"/>
			<point x="101" y="79"/>
			<point x="101" y="199" type="curve" smooth="yes"/>
			<point x="101" y="368"/>
			<point x="187" y="496"/>
			<point x="324" y="496" type="curve" smooth="yes"/>
			<point x="422" y="496"/>
			<point x="495" y="416"/>
			<point x="495" y="290" type="curve" smooth="yes"/>
			<point x="495" y="129"/>
			<point x="406" y="4"/>
		</contour>
	</outline>
	<anchor name="bottom" x="-15" y="-210"/>
	<anchor name="ogonek" x="346" y="21"/>
	<anchor name="top" x="202" y="730"/>
</glyph>
<glyph name="idotless" format="2">
  <advance width="182"/>
  <unicode hex="0131"/>
  <anchor x="33" y="0" name="bottom"/>
  <anchor x="41" y="0" name="ogonek"/>
  <anchor x="149" y="500" name="top"/>
  <outline>
    <contour>
      <point x="157" y="500" type="line"/>
      <point x="141" y="500" type="line"/>
      <point x="25" y="0" type="line"/>
      <point x="41" y="0" type="line"/>
    </contour>
  </outline>
</glyph>
<glyph name="OE" format="2">
  <advance width="1013"/>
  <unicode hex="0152"/>
  <anchor x="459" y="0" name="bottom"/>
  <anchor x="924" y="0" name="ogonek"/>
  <anchor x="602" y="660" name="top"/>
  <outline>
    <contour>
      <point x="311" y="-10" type="curve" smooth="yes"/>
      <point x="419" y="-10"/>
      <point x="498" y="45"/>
      <point x="547" y="140" type="curve"/>
      <point x="515" y="0" type="line"/>
      <point x="924" y="0" type="line"/>
      <point x="928" y="14" type="line"/>
      <point x="535" y="14" type="line"/>
      <point x="607" y="330" type="line"/>
      <point x="905" y="330" type="line"/>
      <point x="909" y="344" type="line"/>
      <point x="611" y="344" type="line"/>
      <point x="680" y="646" type="line"/>
      <point x="1054" y="646" type="line"/>
      <point x="1058" y="660" type="line"/>
      <point x="668" y="660" type="line"/>
      <point x="607" y="394" type="line"/>
      <point x="612" y="557"/>
      <point x="549" y="670"/>
      <point x="390" y="670" type="curve" smooth="yes"/>
      <point x="200" y="670"/>
      <point x="74" y="486"/>
      <point x="74" y="281" type="curve" smooth="yes"/>
      <point x="74" y="96"/>
      <point x="168" y="-10"/>
    </contour>
    <contour>
      <point x="312" y="4" type="curve" smooth="yes"/>
      <point x="180" y="4"/>
      <point x="90" y="105"/>
      <point x="90" y="281" type="curve" smooth="yes"/>
      <point x="90" y="473"/>
      <point x="208" y="656"/>
      <point x="389" y="656" type="curve" smooth="yes"/>
      <point x="547" y="656"/>
      <point x="601" y="534"/>
      <point x="592" y="376" type="curve" smooth="yes"/>
      <point x="580" y="170"/>
      <point x="487" y="4"/>
    </contour>
  </outline>
</glyph>
<glyph name="oe" format="2">
  <advance width="915"/>
  <unicode hex="0153"/>
  <anchor x="417" y="0" name="bottom"/>
  <anchor x="533" y="500" name="top"/>
  <outline>
    <contour>
      <point x="248" y="-9" type="curve" smooth="yes"/>
      <point x="351" y="-9"/>
      <point x="436" y="65"/>
      <point x="468" y="177" type="curve"/>
      <point x="481" y="72"/>
      <point x="547" y="-9"/>
      <point x="658" y="-9" type="curve" smooth="yes"/>
      <point x="742" y="-9"/>
      <point x="810" y="41"/>
      <point x="849" y="106" type="curve"/>
      <point x="836" y="114" type="line"/>
      <point x="799" y="50"/>
      <point x="733" y="5"/>
      <point x="658" y="5" type="curve" smooth="yes"/>
      <point x="547" y="5"/>
      <point x="481" y="95"/>
      <point x="481" y="214" type="curve" smooth="yes"/>
      <point x="481" y="231"/>
      <point x="483" y="251"/>
      <point x="484" y="260" type="curve"/>
      <point x="867" y="260" type="line"/>
      <point x="870" y="279"/>
      <point x="872" y="293"/>
      <point x="872" y="308" type="curve" smooth="yes"/>
      <point x="872" y="420"/>
      <point x="805" y="509"/>
      <point x="689" y="509" type="curve" smooth="yes"/>
      <point x="583" y="509"/>
      <point x="512" y="429"/>
      <point x="481" y="321" type="curve"/>
      <point x="470" y="427"/>
      <point x="404" y="509"/>
      <point x="291" y="509" type="curve" smooth="yes"/>
      <point x="140" y="509"/>
      <point x="48" y="386"/>
      <point x="48" y="213" type="curve" smooth="yes"/>
      <point x="48" y="92"/>
      <point x="112" y="-9"/>
    </contour>
    <contour>
      <point x="248" y="5" type="curve" smooth="yes"/>
      <point x="132" y="5"/>
      <point x="64" y="88"/>
      <point x="64" y="213" type="curve" smooth="yes"/>
      <point x="64" y="381"/>
      <point x="150" y="495"/>
      <point x="291" y="495" type="curve" smooth="yes"/>
      <point x="397" y="495"/>
      <point x="469" y="413"/>
      <point x="469" y="288" type="curve" smooth="yes"/>
      <point x="469" y="124"/>
      <point x="375" y="5"/>
    </contour>
    <contour>
      <point x="486" y="274" type="line"/>
      <point x="503" y="400"/>
      <point x="579" y="495"/>
      <point x="687" y="495" type="curve" smooth="yes"/>
      <point x="798" y="495"/>
      <point x="856" y="410"/>
      <point x="856" y="305" type="curve" smooth="yes"/>
      <point x="856" y="295"/>
      <point x="855" y="288"/>
      <point x="854" y="274" type="curve"/>
    </contour>
  </outline>
</glyph>
<glyph name="jdotless" format="2">
  <advance width="168"/>
  <unicode hex="0237"/>
  <anchor x="-113" y="-210" name="bottom"/>
  <anchor x="-90" y="-204" name="ogonek"/>
  <anchor x="135" y="500" name="top"/>
  <outline>
    <contour>
      <point x="-128" y="-215" type="curve" smooth="yes"/>
      <point x="-53" y="-215"/>
      <point x="-10" y="-161"/>
      <point x="10" y="-73" type="curve" smooth="yes"/>
      <point x="143" y="500" type="line"/>
      <point x="127" y="500" type="line"/>
      <point x="-4" y="-65" type="line" smooth="yes"/>
      <point x="-25" y="-156"/>
      <point x="-66" y="-201"/>
      <point x="-127" y="-201" type="curve" smooth="yes"/>
      <point x="-146" y="-201"/>
      <point x="-163" y="-195"/>
      <point x="-176" y="-184" type="curve"/>
      <point x="-184" y="-198" type="line"/>
      <point x="-171" y="-208"/>
      <point x="-151" y="-215"/>
    </contour>
  </outline>
</glyph>
<glyph name="gravecomb" format="2">
  <unicode hex="0300"/>
  <anchor x="58" y="500" name="_top"/>
  <anchor x="97" y="672" name="top"/>
  <outline>
    <contour>
      <point x="31" y="730" type="line"/>
      <point x="14" y="730" type="line"/>
      <point x="69" y="583" type="line"/>
      <point x="83" y="583" type="line"/>
    </contour>
  </outline>
</glyph>
<glyph name="acutecomb" format="2">
	<unicode hex="0301"/>
	<outline>
		<contour>
			<point x="188" y="730" type="line"/>
			<point x="69" y="583" type="line"/>
			<point x="86" y="583" type="line"/>
			<point x="208" y="730" type="line"/>
		</contour>
	</outline>
	<anchor name="_top" x="58" y="500"/>
	<anchor name="top" x="95" y="661"/>
</glyph>
<glyph name="circumflexcomb" format="2">
	<unicode hex="0302"/>
	<outline>
		<contour>
			<point x="-40" y="583" type="line"/>
			<point x="-22" y="583" type="line"/>
			<point x="95" y="712" type="line"/>
			<point x="150" y="583" type="line"/>
			<point x="166" y="583" type="line"/>
			<point x="105" y="725" type="line"/>
			<point x="87" y="725" type="line"/>
		</contour>
	</outline>
	<anchor name="_top" x="44" y="500"/>
	<anchor name="top" x="88" y="692"/>
</glyph>
<glyph name="tildecomb" format="2">
	<advance width="0"/>
	<unicode hex="0303"/>
	<anchor x="79" y="659" name="top"/>
	<anchor x="45" y="500" name="_top"/>
	<outline>
		<contour>
			<point x="216" y="683" type="curve"/>
			<point x="202" y="683" type="line"/>
			<point x="186" y="638"/>
			<point x="165" y="613"/>
			<point x="138" y="613" type="curve" smooth="yes"/>
			<point x="88" y="613"/>
			<point x="81" y="682"/>
			<point x="24" y="682" type="curve" smooth="yes"/>
			<point x="-16" y="682"/>
			<point x="-43" y="656"/>
			<point x="-61" y="598" type="curve"/>
			<point x="-46" y="598" type="line"/>
			<point x="-29" y="643"/>
			<point x="-14" y="668"/>
			<point x="22" y="668" type="curve" smooth="yes"/>
			<point x="72" y="668"/>
			<point x="78" y="599"/>
			<point x="136" y="599" type="curve" smooth="yes"/>
			<point x="167" y="599"/>
			<point x="197" y="622"/>
		</contour>
	</outline>
</glyph>
<glyph name="macroncomb" format="2">
	<unicode hex="0304"/>
	<outline>
		<contour>
			<point x="211" y="619" type="line"/>
			<point x="-57" y="619" type="line"/>
			<point x="-60" y="605" type="line"/>
			<point x="208" y="605" type="line"/>
		</contour>
	</outline>
	<anchor name="_top" x="58" y="500"/>
	<anchor name="top" x="85" y="617"/>
</glyph>
<glyph name="brevecomb" format="2">
	<advance width="0"/>
	<unicode hex="0306"/>
	<anchor x="75" y="630" name="top"/>
	<anchor x="45" y="500" name="_top"/>
	<anchor x="74" y="628" name="top_viet"/>
	<outline>
		<contour>
			<point x="198" y="702" type="curve"/>
			<point x="184" y="702" type="line"/>
			<point x="172" y="635"/>
			<point x="129" y="595"/>
			<point x="70" y="595" type="curve" smooth="yes"/>
			<point x="23" y="595"/>
			<point x="-8" y="624"/>
			<point x="-8" y="670" type="curve" smooth="yes"/>
			<point x="-8" y="679"/>
			<point x="-7" y="689"/>
			<point x="-5" y="702" type="curve"/>
			<point x="-17" y="702" type="line"/>
			<point x="-20" y="691"/>
			<point x="-21" y="676"/>
			<point x="-21" y="666" type="curve" smooth="yes"/>
			<point x="-21" y="614"/>
			<point x="13" y="581"/>
			<point x="69" y="581" type="curve" smooth="yes"/>
			<point x="133" y="581"/>
			<point x="182" y="616"/>
		</contour>
	</outline>
</glyph>
<glyph name="dotaccentcomb" format="2">
	<unicode hex="0307"/>
	<outline>
		<contour>
			<point x="84" y="598" type="curve" smooth="yes"/>
			<point x="96" y="598"/>
			<point x="106" y="608"/>
			<point x="106" y="622" type="curve" smooth="yes"/>
			<point x="106" y="634"/>
			<point x="98" y="642"/>
			<point x="86" y="642" type="curve" smooth="yes"/>
			<point x="72" y="642"/>
			<point x="64" y="631"/>
			<point x="64" y="618" type="curve" smooth="yes"/>
			<point x="64" y="606"/>
			<point x="72" y="598"/>
		</contour>
	</outline>
	<anchor name="_top" x="58" y="500"/>
	<anchor name="top" x="91" y="638"/>
</glyph>
<glyph name="dieresiscomb" format="2">
	<advance width="0"/>
	<unicode hex="0308"/>
	<anchor x="80" y="638" name="top"/>
	<anchor x="58" y="500" name="_top"/>
	<outline>
		<contour>
			<point x="169" y="598" type="curve" smooth="yes"/>
			<point x="182" y="598"/>
			<point x="191" y="608"/>
			<point x="191" y="622" type="curve" smooth="yes"/>
			<point x="191" y="634"/>
			<point x="184" y="642"/>
			<point x="171" y="642" type="curve" smooth="yes"/>
			<point x="157" y="642"/>
			<point x="149" y="631"/>
			<point x="149" y="618" type="curve" smooth="yes"/>
			<point x="149" y="606"/>
			<point x="157" y="598"/>
		</contour>
		<contour>
			<point x="-15" y="598" type="curve" smooth="yes"/>
			<point x="-2" y="598"/>
			<point x="7" y="608"/>
			<point x="7" y="622" type="curve" smooth="yes"/>
			<point x="7" y="634"/>
			<point x="0" y="642"/>
			<point x="-13" y="642" type="curve" smooth="yes"/>
			<point x="-27" y="642"/>
			<point x="-35" y="631"/>
			<point x="-35" y="618" type="curve" smooth="yes"/>
			<point x="-35" y="606"/>
			<point x="-27" y="598"/>
		</contour>
	</outline>
</glyph>
<glyph name="ringcomb" format="2">
	<advance width="0"/>
	<unicode hex="030A"/>
	<anchor x="105" y="721" name="top"/>
	<anchor x="64" y="500" name="_top"/>
	<outline>
		<contour>
			<point x="95" y="735" type="curve" smooth="yes"/>
			<point x="46" y="735"/>
			<point x="9" y="698"/>
			<point x="9" y="648" type="curve" smooth="yes"/>
			<point x="9" y="606"/>
			<point x="42" y="575"/>
			<point x="89" y="575" type="curve" smooth="yes"/>
			<point x="137" y="575"/>
			<point x="174" y="610"/>
			<point x="174" y="662" type="curve" smooth="yes"/>
			<point x="174" y="704"/>
			<point x="142" y="735"/>
		</contour>
		<contour>
			<point x="95" y="721" type="curve" smooth="yes"/>
			<point x="133" y="721"/>
			<point x="158" y="697"/>
			<point x="158" y="662" type="curve" smooth="yes"/>
			<point x="158" y="617"/>
			<point x="126" y="589"/>
			<point x="89" y="589" type="curve" smooth="yes"/>
			<point x="52" y="589"/>
			<point x="25" y="613"/>
			<point x="25" y="648" type="curve" smooth="yes"/>
			<point x="25" y="689"/>
			<point x="53" y="721"/>
		</contour>
	</outline>
</glyph>
<glyph name="cedillacomb" format="2">
	<advance width="0"/>
	<unicode hex="0327"/>
	<anchor x="-49" y="0" name="_bottom"/>
	<anchor x="-102" y="-199" name="bottom"/>
	<outline>
		<contour>
			<point x="-61" y="1" type="line"/>
			<point x="-24" y="-26"/>
			<point x="-4" y="-60"/>
			<point x="-4" y="-99" type="curve" smooth="yes"/>
			<point x="-4" y="-154"/>
			<point x="-41" y="-188"/>
			<point x="-91" y="-188" type="curve" smooth="yes"/>
			<point x="-134" y="-188"/>
			<point x="-154" y="-168"/>
			<point x="-166" y="-144" type="curve"/>
			<point x="-176" y="-155" type="line"/>
			<point x="-164" y="-179"/>
			<point x="-141" y="-201"/>
			<point x="-91" y="-201" type="curve" smooth="yes"/>
			<point x="-32" y="-201"/>
			<point x="11" y="-162"/>
			<point x="11" y="-98" type="curve" smooth="yes"/>
			<point x="11" y="-56"/>
			<point x="-12" y="-22"/>
			<point x="-45" y="3" type="curve"/>
		</contour>
	</outline>
</glyph>
<glyph name="slashlongcomb" format="2">
	<unicode hex="0338"/>
	<outline>
		<contour>
			<point x="-12" y="-26" type="line"/>
			<point x="9" y="-26" type="line"/>
			<point x="580" y="527" type="line"/>
			<point x="559" y="527" type="line"/>
		</contour>
	</outline>
	<anchor name="_center" x="284" y="250"/>
</glyph>
<glyph name="ka-khmer" format="2">
	<unicode hex="1780"/>
	<advance width="594"/>
	<outline>
		<contour>
			<point x="110" y="288" type="curve" smooth="yes"/>
			<point x="44" y="0" type="line"/>
			<point x="60" y="0" type="line"/>
			<point x="126" y="288" type="line" smooth="yes"/>
			<point x="151" y="399"/>
			<point x="230" y="462"/>
			<point x="340" y="462" type="curve" smooth="yes"/>
			<point x="450" y="462"/>
			<point x="497" y="399"/>
			<point x="472" y="288" type="curve" smooth="yes"/>
			<point x="406" y="0" type="line"/>
			<point x="422" y="0" type="line"/>
			<point x="488" y="288" type="line" smooth="yes"/>
			<point x="516" y="409"/>
			<point x="460" y="478"/>
			<point x="339" y="478" type="curve" smooth="yes"/>
			<point x="218" y="478"/>
			<point x="138" y="409"/>
		</contour>
		<contour>
			<point x="173" y="576" type="line"/>
			<point x="559" y="576" type="line"/>
			<point x="563" y="592" type="line"/>
			<point x="177" y="592" type="line"/>
		</contour>
	</outline>
	<anchor name="bottom" x="233" y="0"/>
	<anchor name="bottomright" x="422" y="0"/>
	<anchor name="top" x="370" y="592"/>
	<anchor name="topright" x="559" y="592"/>
</glyph>
<glyph name="kha-khmer" format="2">
  <advance width="566"/>
  <unicode hex="1781"/>
  <anchor x="209" y="0" name="bottom"/>
  <anchor x="380" y="0" name="bottomright"/>
  <anchor x="349" y="592" name="top"/>
  <anchor x="531" y="592" name="topright"/>
  <outline>
    <contour>
      <point x="214" y="-6" type="curve" smooth="yes"/>
      <point x="329" y="-6"/>
      <point x="404" y="57"/>
      <point x="421" y="131" type="curve" smooth="yes"/>
      <point x="431" y="174"/>
      <point x="424" y="206"/>
      <point x="413" y="231" type="curve"/>
      <point x="396" y="223" type="line"/>
      <point x="408" y="196"/>
      <point x="414" y="171"/>
      <point x="405" y="133" type="curve" smooth="yes"/>
      <point x="390" y="66"/>
      <point x="318" y="10"/>
      <point x="215" y="10" type="curve" smooth="yes"/>
      <point x="110" y="10"/>
      <point x="65" y="67"/>
      <point x="86" y="156" type="curve" smooth="yes"/>
      <point x="104" y="233" type="line"/>
      <point x="305" y="256"/>
      <point x="473" y="295"/>
      <point x="507" y="441" type="curve" smooth="yes"/>
      <point x="530" y="542"/>
      <point x="466" y="602"/>
      <point x="350" y="602" type="curve" smooth="yes"/>
      <point x="239" y="602"/>
      <point x="155" y="550"/>
      <point x="135" y="464" type="curve" smooth="yes"/>
      <point x="122" y="406"/>
      <point x="146" y="365"/>
      <point x="200" y="365" type="curve" smooth="yes"/>
      <point x="221" y="365"/>
      <point x="240" y="371"/>
      <point x="250" y="375" type="curve"/>
      <point x="254" y="391" type="line"/>
      <point x="244" y="387"/>
      <point x="224" y="381"/>
      <point x="205" y="381" type="curve" smooth="yes"/>
      <point x="159" y="381"/>
      <point x="140" y="415"/>
      <point x="151" y="463" type="curve" smooth="yes"/>
      <point x="169" y="540"/>
      <point x="248" y="586"/>
      <point x="348" y="586" type="curve" smooth="yes"/>
      <point x="455" y="586"/>
      <point x="512" y="534"/>
      <point x="490" y="441" type="curve" smooth="yes"/>
      <point x="460" y="313"/>
      <point x="316" y="273"/>
      <point x="91" y="247" type="curve"/>
      <point x="70" y="156" type="line" smooth="yes"/>
      <point x="45" y="47"/>
      <point x="111" y="-6"/>
    </contour>
  </outline>
</glyph>
<glyph name="ko-khmer" format="2">
	<advance width="594"/>
	<unicode hex="1782"/>
	<anchor x="370" y="592" name="top"/>
	<anchor x="559" y="592" name="topright"/>
	<anchor x="422" y="0" name="bottomright"/>
	<anchor x="233" y="0" name="bottom"/>
	<outline>
		<contour>
			<point x="110" y="288" type="curve" smooth="yes"/>
			<point x="44" y="0" type="line"/>
			<point x="60" y="0" type="line"/>
			<point x="78" y="78" type="line"/>
			<point x="119" y="165"/>
			<point x="168" y="208"/>
			<point x="243" y="208" type="curve" smooth="yes"/>
			<point x="291" y="208" type="line"/>
			<point x="294" y="222" type="line"/>
			<point x="246" y="222" type="line" smooth="yes"/>
			<point x="166" y="222"/>
			<point x="107" y="171"/>
			<point x="76" y="94" type="curve"/>
			<point x="82" y="97" type="line"/>
			<point x="126" y="288" type="line" smooth="yes"/>
			<point x="152" y="399"/>
			<point x="230" y="462"/>
			<point x="340" y="462" type="curve" smooth="yes"/>
			<point x="450" y="462"/>
			<point x="497" y="399"/>
			<point x="472" y="288" type="curve" smooth="yes"/>
			<point x="406" y="0" type="line"/>
			<point x="422" y="0" type="line"/>
			<point x="488" y="288" type="line" smooth="yes"/>
			<point x="516" y="409"/>
			<point x="464" y="478"/>
			<point x="343" y="478" type="curve" smooth="yes"/>
			<point x="222" y="478"/>
			<point x="138" y="409"/>
		</contour>
		<contour>
			<point x="173" y="576" type="line"/>
			<point x="559" y="576" type="line"/>
			<point x="563" y="592" type="line"/>
			<point x="177" y="592" type="line"/>
		</contour>
	</outline>
</glyph>
<glyph name="kho-khmer" format="2">
  <advance width="896"/>
  <unicode hex="1783"/>
  <anchor x="550" y="0" name="bottom"/>
  <anchor x="714" y="0" name="bottomright"/>
  <anchor x="687" y="592" name="top"/>
  <anchor x="861" y="592" name="topright"/>
  <outline>
    <contour>
      <point x="215" y="-10" type="curve" smooth="yes"/>
      <point x="313" y="-10"/>
      <point x="386" y="43"/>
      <point x="415" y="122" type="curve"/>
      <point x="411" y="122" type="line"/>
      <point x="404" y="43"/>
      <point x="456" y="-10"/>
      <point x="553" y="-10" type="curve" smooth="yes"/>
      <point x="654" y="-10"/>
      <point x="737" y="58"/>
      <point x="761" y="160" type="curve" smooth="yes"/>
      <point x="828" y="448" type="line" smooth="yes"/>
      <point x="835" y="480"/>
      <point x="828" y="505"/>
      <point x="791" y="523" type="curve"/>
      <point x="795" y="541" type="line" smooth="yes"/>
      <point x="801" y="569"/>
      <point x="815" y="576"/>
      <point x="838" y="576" type="curve" smooth="yes"/>
      <point x="885" y="576" type="line"/>
      <point x="889" y="592" type="line"/>
      <point x="840" y="592" type="line" smooth="yes"/>
      <point x="809" y="592"/>
      <point x="789" y="581"/>
      <point x="781" y="546" type="curve" smooth="yes"/>
      <point x="774" y="516" type="line"/>
      <point x="814" y="496"/>
      <point x="819" y="478"/>
      <point x="812" y="448" type="curve" smooth="yes"/>
      <point x="745" y="160" type="line" smooth="yes"/>
      <point x="723" y="67"/>
      <point x="649" y="6"/>
      <point x="553" y="6" type="curve" smooth="yes"/>
      <point x="456" y="6"/>
      <point x="406" y="62"/>
      <point x="429" y="160" type="curve" smooth="yes"/>
      <point x="496" y="448" type="line" smooth="yes"/>
      <point x="503" y="480"/>
      <point x="496" y="505"/>
      <point x="459" y="523" type="curve"/>
      <point x="463" y="541" type="line" smooth="yes"/>
      <point x="469" y="569"/>
      <point x="483" y="576"/>
      <point x="506" y="576" type="curve" smooth="yes"/>
      <point x="553" y="576" type="line"/>
      <point x="557" y="592" type="line"/>
      <point x="508" y="592" type="line" smooth="yes"/>
      <point x="477" y="592"/>
      <point x="457" y="581"/>
      <point x="449" y="546" type="curve" smooth="yes"/>
      <point x="442" y="516" type="line"/>
      <point x="482" y="496"/>
      <point x="487" y="478"/>
      <point x="480" y="448" type="curve" smooth="yes"/>
      <point x="413" y="160" type="line" smooth="yes"/>
      <point x="390" y="62"/>
      <point x="316" y="6"/>
      <point x="219" y="6" type="curve" smooth="yes"/>
      <point x="123" y="6"/>
      <point x="75" y="67"/>
      <point x="97" y="160" type="curve" smooth="yes"/>
      <point x="133" y="315" type="line"/>
      <point x="189" y="440" type="line"/>
      <point x="221" y="580" type="line" smooth="yes"/>
      <point x="223" y="589"/>
      <point x="218" y="594"/>
      <point x="209" y="594" type="curve" smooth="yes"/>
      <point x="174" y="594"/>
      <point x="135" y="570"/>
      <point x="123" y="519" type="curve" smooth="yes"/>
      <point x="111" y="468"/>
      <point x="131" y="436"/>
      <point x="172" y="436" type="curve" smooth="yes"/>
      <point x="175" y="436" type="line"/>
      <point x="173" y="440" type="line"/>
      <point x="117" y="315" type="line"/>
      <point x="81" y="160" type="line" smooth="yes"/>
      <point x="57" y="58"/>
      <point x="114" y="-10"/>
    </contour>
    <contour>
      <point x="206" y="580" type="curve"/>
      <point x="176" y="450" type="line"/>
      <point x="143" y="450"/>
      <point x="128" y="475"/>
      <point x="138" y="517" type="curve" smooth="yes"/>
      <point x="148" y="559"/>
      <point x="180" y="580"/>
    </contour>
  </outline>
</glyph>
<glyph name="ngo-khmer" format="2">
	<advance width="560"/>
	<unicode hex="1784"/>
	<anchor x="360" y="594" name="top"/>
	<anchor x="546" y="594" name="topright"/>
	<anchor x="409" y="0" name="bottomright"/>
	<anchor x="223" y="0" name="bottom"/>
	<outline>
		<contour>
			<point x="37" y="0" type="line"/>
			<point x="55" y="0" type="line"/>
			<point x="265" y="174" type="line"/>
			<point x="395" y="0" type="line"/>
			<point x="409" y="0" type="line"/>
			<point x="492" y="360" type="line" smooth="yes"/>
			<point x="505" y="415"/>
			<point x="492" y="446"/>
			<point x="441" y="468" type="curve"/>
			<point x="434" y="457" type="line"/>
			<point x="483" y="434"/>
			<point x="487" y="409"/>
			<point x="476" y="360" type="curve" smooth="yes"/>
			<point x="398" y="23" type="line"/>
			<point x="268" y="197" type="line"/>
			<point x="58" y="23" type="line"/>
			<point x="130" y="334" type="line"/>
			<point x="68" y="334" type="line"/>
			<point x="65" y="319" type="line"/>
			<point x="111" y="319" type="line"/>
		</contour>
		<contour>
			<point x="270" y="408" type="curve" smooth="yes"/>
			<point x="340" y="408"/>
			<point x="396" y="429"/>
			<point x="440" y="461" type="curve"/>
			<point x="474" y="470"/>
			<point x="502" y="491"/>
			<point x="510" y="526" type="curve" smooth="yes"/>
			<point x="519" y="566"/>
			<point x="495" y="598"/>
			<point x="456" y="598" type="curve" smooth="yes"/>
			<point x="416" y="598"/>
			<point x="381" y="570"/>
			<point x="372" y="530" type="curve" smooth="yes"/>
			<point x="363" y="492"/>
			<point x="385" y="460"/>
			<point x="424" y="460" type="curve"/>
			<point x="423" y="465" type="line"/>
			<point x="378" y="441"/>
			<point x="336" y="423"/>
			<point x="276" y="423" type="curve" smooth="yes"/>
			<point x="189" y="423"/>
			<point x="154" y="457"/>
			<point x="166" y="505" type="curve" smooth="yes"/>
			<point x="173" y="535"/>
			<point x="198" y="557"/>
			<point x="205" y="591" type="curve" smooth="yes"/>
			<point x="212" y="619"/>
			<point x="201" y="634"/>
			<point x="173" y="634" type="curve" smooth="yes"/>
			<point x="163" y="634" type="line"/>
			<point x="160" y="618" type="line"/>
			<point x="170" y="618" type="line" smooth="yes"/>
			<point x="187" y="618"/>
			<point x="194" y="611"/>
			<point x="189" y="592" type="curve" smooth="yes"/>
			<point x="183" y="563"/>
			<point x="158" y="540"/>
			<point x="149" y="504" type="curve" smooth="yes"/>
			<point x="136" y="447"/>
			<point x="179" y="408"/>
		</contour>
		<contour>
			<point x="428" y="473" type="curve" smooth="yes"/>
			<point x="398" y="473"/>
			<point x="381" y="497"/>
			<point x="388" y="528" type="curve" smooth="yes"/>
			<point x="395" y="559"/>
			<point x="424" y="583"/>
			<point x="454" y="583" type="curve" smooth="yes"/>
			<point x="484" y="583"/>
			<point x="501" y="559"/>
			<point x="494" y="528" type="curve" smooth="yes"/>
			<point x="487" y="497"/>
			<point x="458" y="473"/>
		</contour>
	</outline>
</glyph>
<glyph name="ca-khmer" format="2">
	<advance width="594"/>
	<unicode hex="1785"/>
	<anchor x="370" y="592" name="top"/>
	<anchor x="559" y="592" name="topright"/>
	<anchor x="412" y="0" name="bottomright"/>
	<anchor x="233" y="0" name="bottom"/>
	<outline>
		<contour>
			<point x="235" y="-10" type="curve" smooth="yes"/>
			<point x="356" y="-10"/>
			<point x="436" y="59"/>
			<point x="464" y="180" type="curve"/>
			<point x="524" y="438" type="line"/>
			<point x="526" y="447"/>
			<point x="522" y="452"/>
			<point x="512" y="452" type="curve" smooth="yes"/>
			<point x="473" y="452"/>
			<point x="438" y="423"/>
			<point x="426" y="370" type="curve" smooth="yes"/>
			<point x="415" y="320"/>
			<point x="434" y="294"/>
			<point x="475" y="294" type="curve" smooth="yes"/>
			<point x="478" y="294" type="line"/>
			<point x="475" y="298" type="line"/>
			<point x="448" y="180" type="line"/>
			<point x="423" y="69"/>
			<point x="345" y="6"/>
			<point x="235" y="6" type="curve" smooth="yes"/>
			<point x="125" y="6"/>
			<point x="76" y="69"/>
			<point x="102" y="180" type="curve" smooth="yes"/>
			<point x="166" y="458" type="line" smooth="yes"/>
			<point x="172" y="483"/>
			<point x="169" y="505"/>
			<point x="152" y="523" type="curve"/>
			<point x="155" y="538" type="line" smooth="yes"/>
			<point x="161" y="569"/>
			<point x="183" y="576"/>
			<point x="206" y="576" type="curve" smooth="yes"/>
			<point x="559" y="576" type="line"/>
			<point x="563" y="592" type="line"/>
			<point x="208" y="592" type="line" smooth="yes"/>
			<point x="177" y="592"/>
			<point x="149" y="581"/>
			<point x="141" y="544" type="curve" smooth="yes"/>
			<point x="135" y="516" type="line"/>
			<point x="154" y="496"/>
			<point x="155" y="481"/>
			<point x="150" y="458" type="curve" smooth="yes"/>
			<point x="86" y="180" type="line" smooth="yes"/>
			<point x="58" y="59"/>
			<point x="114" y="-10"/>
		</contour>
		<contour>
			<point x="508" y="438" type="curve"/>
			<point x="478" y="308" type="line"/>
			<point x="445" y="308"/>
			<point x="430" y="327"/>
			<point x="440" y="369" type="curve" smooth="yes"/>
			<point x="449" y="408"/>
			<point x="480" y="438"/>
		</contour>
	</outline>
</glyph>
<glyph name="cha-khmer" format="2">
	<unicode hex="1786"/>
	<advance width="594"/>
	<outline>
		<contour>
			<point x="44" y="0" type="curve"/>
			<point x="60" y="0" type="line"/>
			<point x="166" y="458" type="line" smooth="yes"/>
			<point x="172" y="483"/>
			<point x="169" y="505"/>
			<point x="152" y="523" type="curve"/>
			<point x="155" y="538" type="line" smooth="yes"/>
			<point x="161" y="569"/>
			<point x="183" y="576"/>
			<point x="206" y="576" type="curve" smooth="yes"/>
			<point x="559" y="576" type="line"/>
			<point x="563" y="592" type="line"/>
			<point x="208" y="592" type="line" smooth="yes"/>
			<point x="177" y="592"/>
			<point x="149" y="581"/>
			<point x="141" y="544" type="curve" smooth="yes"/>
			<point x="135" y="516" type="line"/>
			<point x="154" y="496"/>
			<point x="155" y="481"/>
			<point x="150" y="458" type="curve" smooth="yes"/>
			<point x="81" y="161" type="line"/>
			<point x="70" y="158"/>
			<point x="57" y="144"/>
			<point x="51" y="119" type="curve" smooth="yes"/>
			<point x="42" y="80"/>
			<point x="41" y="39"/>
		</contour>
		<contour>
			<point x="335" y="-4" type="curve" smooth="yes"/>
			<point x="392" y="-4"/>
			<point x="429" y="30"/>
			<point x="442" y="86" type="curve" smooth="yes"/>
			<point x="524" y="438" type="line" smooth="yes"/>
			<point x="526" y="447"/>
			<point x="522" y="452"/>
			<point x="512" y="452" type="curve" smooth="yes"/>
			<point x="473" y="452"/>
			<point x="438" y="423"/>
			<point x="426" y="370" type="curve" smooth="yes"/>
			<point x="415" y="320"/>
			<point x="434" y="294"/>
			<point x="475" y="294" type="curve" smooth="yes"/>
			<point x="478" y="294" type="line"/>
			<point x="475" y="298" type="line"/>
			<point x="426" y="86" type="line" smooth="yes"/>
			<point x="415" y="40"/>
			<point x="382" y="12"/>
			<point x="335" y="12" type="curve" smooth="yes"/>
			<point x="282" y="12"/>
			<point x="265" y="42"/>
			<point x="244" y="83" type="curve" smooth="yes"/>
			<point x="219" y="131"/>
			<point x="202" y="161"/>
			<point x="131" y="161" type="curve" smooth="yes"/>
			<point x="89" y="161" type="line"/>
			<point x="85" y="145" type="line"/>
			<point x="127" y="145" type="line" smooth="yes"/>
			<point x="189" y="145"/>
			<point x="205" y="120"/>
			<point x="229" y="74" type="curve" smooth="yes"/>
			<point x="252" y="31"/>
			<point x="275" y="-4"/>
		</contour>
		<contour>
			<point x="508" y="438" type="curve"/>
			<point x="478" y="308" type="line"/>
			<point x="445" y="308"/>
			<point x="430" y="327"/>
			<point x="440" y="369" type="curve" smooth="yes"/>
			<point x="449" y="408"/>
			<point x="480" y="438"/>
		</contour>
	</outline>
	<anchor name="bottom" x="233" y="0"/>
	<anchor name="bottomright" x="412" y="0"/>
	<anchor name="top" x="370" y="592"/>
	<anchor name="topright" x="559" y="592"/>
</glyph>
<glyph name="co-khmer" format="2">
	<advance width="582"/>
	<unicode hex="1787"/>
	<anchor x="364" y="592" name="top"/>
	<anchor x="547" y="592" name="topright"/>
	<anchor x="410" y="0" name="bottomright"/>
	<anchor x="227" y="0" name="bottom"/>
	<outline>
		<contour>
			<point x="44" y="0" type="line"/>
			<point x="62" y="0" type="line"/>
			<point x="270" y="176" type="line"/>
			<point x="396" y="0" type="line"/>
			<point x="410" y="0" type="line"/>
			<point x="504" y="408" type="line"/>
			<point x="488" y="408" type="line"/>
			<point x="399" y="22" type="line"/>
			<point x="273" y="198" type="line"/>
			<point x="65" y="22" type="line"/>
			<point x="166" y="458" type="line" smooth="yes"/>
			<point x="172" y="483"/>
			<point x="169" y="505"/>
			<point x="152" y="523" type="curve"/>
			<point x="155" y="538" type="line" smooth="yes"/>
			<point x="161" y="569"/>
			<point x="183" y="576"/>
			<point x="206" y="576" type="curve" smooth="yes"/>
			<point x="342" y="576" type="line"/>
			<point x="419" y="523" type="line"/>
			<point x="461" y="523" type="line" smooth="yes"/>
			<point x="509" y="523"/>
			<point x="536" y="545"/>
			<point x="546" y="590" type="curve" smooth="yes"/>
			<point x="556" y="634" type="line"/>
			<point x="540" y="634" type="line"/>
			<point x="530" y="590" type="line" smooth="yes"/>
			<point x="522" y="556"/>
			<point x="499" y="539"/>
			<point x="462" y="539" type="curve" smooth="yes"/>
			<point x="425" y="539" type="line"/>
			<point x="349" y="592" type="line"/>
			<point x="208" y="592" type="line" smooth="yes"/>
			<point x="177" y="592"/>
			<point x="149" y="581"/>
			<point x="141" y="544" type="curve" smooth="yes"/>
			<point x="135" y="516" type="line"/>
			<point x="154" y="496"/>
			<point x="155" y="481"/>
			<point x="150" y="458" type="curve" smooth="yes"/>
		</contour>
	</outline>
</glyph>
<glyph name="cho-khmer" format="2">
	<advance width="1134"/>
	<unicode hex="1788"/>
	<anchor x="941" y="592" name="top"/>
	<anchor x="1099" y="592" name="topright"/>
	<anchor x="952" y="0" name="bottomright"/>
	<anchor x="804" y="0" name="bottom"/>
	<outline>
		<contour>
			<point x="500" y="-10" type="curve" smooth="yes"/>
			<point x="589" y="-10"/>
			<point x="656" y="43"/>
			<point x="683" y="116" type="curve"/>
			<point x="679" y="116" type="line"/>
			<point x="673" y="43"/>
			<point x="720" y="-10"/>
			<point x="806" y="-10" type="curve" smooth="yes"/>
			<point x="899" y="-10"/>
			<point x="975" y="58"/>
			<point x="999" y="160" type="curve" smooth="yes"/>
			<point x="1066" y="448" type="line" smooth="yes"/>
			<point x="1073" y="480"/>
			<point x="1066" y="505"/>
			<point x="1029" y="523" type="curve"/>
			<point x="1033" y="541" type="line" smooth="yes"/>
			<point x="1039" y="569"/>
			<point x="1053" y="576"/>
			<point x="1076" y="576" type="curve" smooth="yes"/>
			<point x="1123" y="576" type="line"/>
			<point x="1127" y="592" type="line"/>
			<point x="1078" y="592" type="line" smooth="yes"/>
			<point x="1047" y="592"/>
			<point x="1027" y="581"/>
			<point x="1019" y="546" type="curve" smooth="yes"/>
			<point x="1012" y="516" type="line"/>
			<point x="1052" y="496"/>
			<point x="1057" y="478"/>
			<point x="1050" y="448" type="curve" smooth="yes"/>
			<point x="983" y="160" type="line" smooth="yes"/>
			<point x="961" y="67"/>
			<point x="892" y="6"/>
			<point x="807" y="6" type="curve" smooth="yes"/>
			<point x="720" y="6"/>
			<point x="675" y="62"/>
			<point x="698" y="160" type="curve" smooth="yes"/>
			<point x="765" y="448" type="line" smooth="yes"/>
			<point x="772" y="480"/>
			<point x="765" y="505"/>
			<point x="728" y="523" type="curve"/>
			<point x="732" y="541" type="line" smooth="yes"/>
			<point x="738" y="569"/>
			<point x="752" y="576"/>
			<point x="775" y="576" type="curve" smooth="yes"/>
			<point x="822" y="576" type="line"/>
			<point x="826" y="592" type="line"/>
			<point x="777" y="592" type="line" smooth="yes"/>
			<point x="746" y="592"/>
			<point x="726" y="581"/>
			<point x="718" y="546" type="curve" smooth="yes"/>
			<point x="711" y="516" type="line"/>
			<point x="751" y="496"/>
			<point x="756" y="478"/>
			<point x="749" y="448" type="curve" smooth="yes"/>
			<point x="682" y="160" type="line" smooth="yes"/>
			<point x="659" y="62"/>
			<point x="590" y="6"/>
			<point x="504" y="6" type="curve" smooth="yes"/>
			<point x="419" y="6"/>
			<point x="376" y="67"/>
			<point x="398" y="160" type="curve" smooth="yes"/>
			<point x="459" y="423" type="line" smooth="yes"/>
			<point x="485" y="534"/>
			<point x="438" y="598"/>
			<point x="337" y="598" type="curve" smooth="yes"/>
			<point x="238" y="598"/>
			<point x="168" y="534"/>
			<point x="142" y="423" type="curve" smooth="yes"/>
			<point x="45" y="8" type="line" smooth="yes"/>
			<point x="43" y="-1"/>
			<point x="44" y="-6"/>
			<point x="62" y="-6" type="curve" smooth="yes"/>
			<point x="94" y="-6"/>
			<point x="132" y="22"/>
			<point x="144" y="76" type="curve" smooth="yes"/>
			<point x="155" y="126"/>
			<point x="139" y="152"/>
			<point x="94" y="152" type="curve" smooth="yes"/>
			<point x="91" y="152" type="line"/>
			<point x="94" y="148" type="line"/>
			<point x="158" y="423" type="line" smooth="yes"/>
			<point x="182" y="524"/>
			<point x="248" y="582"/>
			<point x="336" y="582" type="curve" smooth="yes"/>
			<point x="426" y="582"/>
			<point x="466" y="524"/>
			<point x="443" y="423" type="curve" smooth="yes"/>
			<point x="382" y="160" type="line" smooth="yes"/>
			<point x="358" y="58"/>
			<point x="409" y="-10"/>
		</contour>
		<contour>
			<point x="61" y="8" type="curve"/>
			<point x="91" y="138" type="line"/>
			<point x="126" y="138"/>
			<point x="139" y="117"/>
			<point x="130" y="80" type="curve" smooth="yes"/>
			<point x="119" y="32"/>
			<point x="88" y="8"/>
		</contour>
	</outline>
</glyph>
<glyph name="nyo-khmer" format="2">
	<unicode hex="1789"/>
	<advance width="896"/>
	<outline>
		<contour>
			<point x="477" y="-258" type="curve" smooth="yes"/>
			<point x="540" y="-258" type="line" smooth="yes"/>
			<point x="622" y="-258"/>
			<point x="678" y="-221"/>
			<point x="694" y="-153" type="curve" smooth="yes"/>
			<point x="708" y="-91"/>
			<point x="679" y="-54"/>
			<point x="618" y="-54" type="curve" smooth="yes"/>
			<point x="591" y="-54"/>
			<point x="563" y="-64"/>
			<point x="547" y="-72" type="curve"/>
			<point x="543" y="-87" type="line"/>
			<point x="560" y="-79"/>
			<point x="592" y="-68"/>
			<point x="617" y="-68" type="curve" smooth="yes"/>
			<point x="668" y="-68"/>
			<point x="690" y="-99"/>
			<point x="677" y="-154" type="curve" smooth="yes"/>
			<point x="664" y="-210"/>
			<point x="616" y="-242"/>
			<point x="544" y="-242" type="curve" smooth="yes"/>
			<point x="481" y="-242" type="line" smooth="yes"/>
			<point x="296" y="-242"/>
			<point x="267" y="-90"/>
			<point x="76" y="-90" type="curve" smooth="yes"/>
			<point x="44" y="-90" type="line"/>
			<point x="40" y="-106" type="line"/>
			<point x="72" y="-106" type="line" smooth="yes"/>
			<point x="255" y="-106"/>
			<point x="289" y="-258"/>
		</contour>
		<component base="nyo-khmer.less"/>
	</outline>
	<anchor name="bottom" x="496" y="-258"/>
	<anchor name="bottomright" x="655" y="-258"/>
	<anchor name="top" x="692" y="592"/>
	<anchor name="topright" x="851" y="592"/>
</glyph>
<glyph name="da-khmer" format="2">
	<advance width="582"/>
	<unicode hex="178A"/>
	<anchor x="364" y="592" name="top"/>
	<anchor x="547" y="592" name="topright"/>
	<anchor x="410" y="0" name="bottomright"/>
	<anchor x="227" y="0" name="bottom"/>
	<outline>
		<contour>
			<point x="44" y="0" type="line"/>
			<point x="62" y="0" type="line"/>
			<point x="270" y="176" type="line"/>
			<point x="396" y="0" type="line"/>
			<point x="410" y="0" type="line"/>
			<point x="500" y="390" type="line"/>
			<point x="484" y="390" type="line"/>
			<point x="399" y="22" type="line"/>
			<point x="273" y="198" type="line"/>
			<point x="65" y="22" type="line"/>
			<point x="150" y="390" type="line"/>
			<point x="134" y="390" type="line"/>
		</contour>
		<contour>
			<point x="312" y="434" type="curve" smooth="yes"/>
			<point x="443" y="434"/>
			<point x="530" y="485"/>
			<point x="551" y="583" type="curve" smooth="yes"/>
			<point x="562" y="634" type="line"/>
			<point x="546" y="634" type="line"/>
			<point x="535" y="583" type="line" smooth="yes"/>
			<point x="517" y="498"/>
			<point x="436" y="450"/>
			<point x="313" y="450" type="curve" smooth="yes"/>
			<point x="214" y="450"/>
			<point x="165" y="481"/>
			<point x="177" y="531" type="curve" smooth="yes"/>
			<point x="184" y="562"/>
			<point x="209" y="581"/>
			<point x="240" y="581" type="curve" smooth="yes"/>
			<point x="258" y="581"/>
			<point x="274" y="575"/>
			<point x="289" y="568" type="curve"/>
			<point x="293" y="583" type="line"/>
			<point x="281" y="590"/>
			<point x="260" y="596"/>
			<point x="242" y="596" type="curve" smooth="yes"/>
			<point x="201" y="596"/>
			<point x="170" y="573"/>
			<point x="161" y="533" type="curve" smooth="yes"/>
			<point x="147" y="473"/>
			<point x="202" y="434"/>
		</contour>
	</outline>
</glyph>
<glyph name="ttha-khmer" format="2">
  <advance width="588"/>
  <unicode hex="178B"/>
  <anchor x="230" y="0" name="bottom"/>
  <anchor x="406" y="0" name="bottomright"/>
  <anchor x="367" y="592" name="top"/>
  <anchor x="553" y="592" name="topright"/>
  <outline>
    <contour>
      <point x="230" y="-10" type="curve" smooth="yes"/>
      <point x="348" y="-10"/>
      <point x="430" y="63"/>
      <point x="460" y="190" type="curve" smooth="yes"/>
      <point x="519" y="443" type="line" smooth="yes"/>
      <point x="528" y="480"/>
      <point x="521" y="509"/>
      <point x="459" y="523" type="curve"/>
      <point x="462" y="534" type="line" smooth="yes"/>
      <point x="470" y="562"/>
      <point x="484" y="576"/>
      <point x="507" y="576" type="curve" smooth="yes"/>
      <point x="515" y="576" type="line"/>
      <point x="557" y="549" type="line"/>
      <point x="562" y="549" type="line" smooth="yes"/>
      <point x="570" y="549"/>
      <point x="575" y="554"/>
      <point x="577" y="563" type="curve" smooth="yes"/>
      <point x="594" y="634" type="line"/>
      <point x="579" y="634" type="line"/>
      <point x="561" y="558" type="line"/>
      <point x="567" y="562" type="line"/>
      <point x="521" y="592" type="line"/>
      <point x="511" y="592" type="line" smooth="yes"/>
      <point x="479" y="592"/>
      <point x="456" y="571"/>
      <point x="447" y="534" type="curve" smooth="yes"/>
      <point x="442" y="514" type="line"/>
      <point x="509" y="498"/>
      <point x="511" y="478"/>
      <point x="503" y="443" type="curve" smooth="yes"/>
      <point x="444" y="190" type="line" smooth="yes"/>
      <point x="417" y="73"/>
      <point x="340" y="6"/>
      <point x="232" y="6" type="curve" smooth="yes"/>
      <point x="124" y="6"/>
      <point x="77" y="73"/>
      <point x="104" y="190" type="curve" smooth="yes"/>
      <point x="133" y="315" type="line"/>
      <point x="183" y="440" type="line"/>
      <point x="215" y="580" type="line" smooth="yes"/>
      <point x="217" y="589"/>
      <point x="212" y="594"/>
      <point x="203" y="594" type="curve" smooth="yes"/>
      <point x="165" y="594"/>
      <point x="129" y="568"/>
      <point x="117" y="515" type="curve" smooth="yes"/>
      <point x="105" y="462"/>
      <point x="127" y="436"/>
      <point x="166" y="436" type="curve" smooth="yes"/>
      <point x="169" y="436" type="line"/>
      <point x="167" y="440" type="line"/>
      <point x="117" y="315" type="line"/>
      <point x="88" y="190" type="line" smooth="yes"/>
      <point x="59" y="63"/>
      <point x="112" y="-10"/>
    </contour>
    <contour>
      <point x="200" y="580" type="curve"/>
      <point x="170" y="450" type="line"/>
      <point x="134" y="450"/>
      <point x="122" y="471"/>
      <point x="132" y="515" type="curve" smooth="yes"/>
      <point x="142" y="559"/>
      <point x="171" y="580"/>
    </contour>
  </outline>
</glyph>
<glyph name="do-khmer" format="2">
  <advance width="528"/>
  <unicode hex="178C"/>
  <anchor x="198" y="0" name="bottom"/>
  <anchor x="375" y="0" name="bottomright"/>
  <anchor x="339" y="592" name="top"/>
  <anchor x="514" y="592" name="topright"/>
  <outline>
    <contour>
      <point x="157" y="-6" type="curve" smooth="yes"/>
      <point x="259" y="-6"/>
      <point x="356" y="57"/>
      <point x="400" y="138" type="curve"/>
      <point x="397" y="157" type="line"/>
      <point x="363" y="89"/>
      <point x="276" y="10"/>
      <point x="163" y="10" type="curve" smooth="yes"/>
      <point x="77" y="10"/>
      <point x="46" y="56"/>
      <point x="66" y="142" type="curve" smooth="yes"/>
      <point x="87" y="234" type="line"/>
      <point x="321" y="257"/>
      <point x="455" y="291"/>
      <point x="483" y="414" type="curve" smooth="yes"/>
      <point x="503" y="500" type="line"/>
      <point x="435" y="598" type="line"/>
      <point x="431" y="598" type="line"/>
      <point x="322" y="516" type="line"/>
      <point x="249" y="598" type="line"/>
      <point x="245" y="598" type="line"/>
      <point x="133" y="500" type="line"/>
      <point x="112" y="408" type="line" smooth="yes"/>
      <point x="103" y="367"/>
      <point x="120" y="343"/>
      <point x="160" y="343" type="curve" smooth="yes"/>
      <point x="176" y="343"/>
      <point x="191" y="347"/>
      <point x="199" y="351" type="curve"/>
      <point x="203" y="365" type="line"/>
      <point x="193" y="361"/>
      <point x="177" y="357"/>
      <point x="162" y="357" type="curve" smooth="yes"/>
      <point x="131" y="357"/>
      <point x="121" y="376"/>
      <point x="128" y="408" type="curve" smooth="yes"/>
      <point x="148" y="495" type="line"/>
      <point x="244" y="578" type="line"/>
      <point x="315" y="497" type="line"/>
      <point x="319" y="497" type="line"/>
      <point x="428" y="578" type="line"/>
      <point x="486" y="495" type="line"/>
      <point x="467" y="414" type="line" smooth="yes"/>
      <point x="441" y="304"/>
      <point x="332" y="274"/>
      <point x="74" y="247" type="curve"/>
      <point x="50" y="142" type="line" smooth="yes"/>
      <point x="28" y="44"/>
      <point x="67" y="-6"/>
    </contour>
    <contour>
      <point x="361" y="0" type="line"/>
      <point x="375" y="0" type="line"/>
      <point x="426" y="218" type="line"/>
      <point x="410" y="218" type="line"/>
      <point x="390" y="133" type="line"/>
    </contour>
  </outline>
</glyph>
<glyph name="ttho-khmer" format="2">
	<unicode hex="178D"/>
	<advance width="896"/>
	<outline>
		<contour>
			<point x="385" y="0" type="line"/>
			<point x="401" y="0" type="line"/>
			<point x="515" y="491" type="line"/>
			<point x="449" y="598" type="line"/>
			<point x="445" y="598" type="line"/>
			<point x="339" y="507" type="line"/>
			<point x="275" y="598" type="line"/>
			<point x="271" y="598" type="line"/>
			<point x="157" y="491" type="line"/>
			<point x="45" y="8" type="line" smooth="yes"/>
			<point x="43" y="-1"/>
			<point x="44" y="-6"/>
			<point x="62" y="-6" type="curve" smooth="yes"/>
			<point x="94" y="-6"/>
			<point x="132" y="22"/>
			<point x="144" y="76" type="curve" smooth="yes"/>
			<point x="155" y="126"/>
			<point x="139" y="152"/>
			<point x="94" y="152" type="curve" smooth="yes"/>
			<point x="91" y="152" type="line"/>
			<point x="94" y="148" type="line"/>
			<point x="172" y="486" type="line"/>
			<point x="269" y="578" type="line"/>
			<point x="333" y="488" type="line"/>
			<point x="337" y="488" type="line"/>
			<point x="443" y="578" type="line"/>
			<point x="498" y="486" type="line"/>
		</contour>
		<contour>
			<point x="61" y="8" type="curve"/>
			<point x="91" y="138" type="line"/>
			<point x="126" y="138"/>
			<point x="139" y="117"/>
			<point x="130" y="80" type="curve" smooth="yes"/>
			<point x="119" y="32"/>
			<point x="88" y="8"/>
		</contour>
		<contour>
			<point x="659" y="-4" type="curve" smooth="yes"/>
			<point x="698" y="-4"/>
			<point x="728" y="22"/>
			<point x="740" y="72" type="curve" smooth="yes"/>
			<point x="827" y="448" type="line" smooth="yes"/>
			<point x="834" y="480"/>
			<point x="827" y="505"/>
			<point x="790" y="523" type="curve"/>
			<point x="794" y="541" type="line" smooth="yes"/>
			<point x="800" y="569"/>
			<point x="814" y="576"/>
			<point x="837" y="576" type="curve" smooth="yes"/>
			<point x="884" y="576" type="line"/>
			<point x="888" y="592" type="line"/>
			<point x="839" y="592" type="line" smooth="yes"/>
			<point x="808" y="592"/>
			<point x="788" y="581"/>
			<point x="780" y="546" type="curve" smooth="yes"/>
			<point x="773" y="516" type="line"/>
			<point x="813" y="496"/>
			<point x="818" y="478"/>
			<point x="811" y="448" type="curve" smooth="yes"/>
			<point x="724" y="72" type="line" smooth="yes"/>
			<point x="715" y="32"/>
			<point x="691" y="12"/>
			<point x="661" y="12" type="curve" smooth="yes"/>
			<point x="618" y="12"/>
			<point x="605" y="46"/>
			<point x="590" y="99" type="curve" smooth="yes"/>
			<point x="570" y="169"/>
			<point x="558" y="191"/>
			<point x="519" y="191" type="curve" smooth="yes"/>
			<point x="482" y="191"/>
			<point x="443" y="160"/>
			<point x="411" y="101" type="curve"/>
			<point x="420" y="95" type="line"/>
			<point x="455" y="151"/>
			<point x="485" y="175"/>
			<point x="516" y="175" type="curve" smooth="yes"/>
			<point x="547" y="175"/>
			<point x="556" y="154"/>
			<point x="574" y="91" type="curve" smooth="yes"/>
			<point x="594" y="22"/>
			<point x="612" y="-4"/>
		</contour>
	</outline>
	<anchor name="bottom" x="549" y="0"/>
	<anchor name="bottomright" x="723" y="0"/>
	<anchor name="top" x="686" y="592"/>
	<anchor name="topright" x="860" y="592"/>
</glyph>
<glyph name="nno-khmer" format="2">
	<unicode hex="178E"/>
	<advance width="1134"/>
	<outline>
		<contour>
			<point x="449" y="428" type="curve" smooth="yes"/>
			<point x="350" y="0" type="line"/>
			<point x="368" y="0" type="line"/>
			<point x="546" y="174" type="line"/>
			<point x="642" y="0" type="line"/>
			<point x="656" y="0" type="line"/>
			<point x="755" y="428" type="line" smooth="yes"/>
			<point x="778" y="526"/>
			<point x="844" y="582"/>
			<point x="936" y="582" type="curve" smooth="yes"/>
			<point x="1028" y="582"/>
			<point x="1068" y="526"/>
			<point x="1045" y="428" type="curve" smooth="yes"/>
			<point x="946" y="0" type="line"/>
			<point x="962" y="0" type="line"/>
			<point x="1061" y="428" type="line" smooth="yes"/>
			<point x="1086" y="536"/>
			<point x="1038" y="598"/>
			<point x="936" y="598" type="curve" smooth="yes"/>
			<point x="834" y="598"/>
			<point x="764" y="536"/>
			<point x="739" y="428" type="curve" smooth="yes"/>
			<point x="646" y="24" type="line"/>
			<point x="549" y="198" type="line"/>
			<point x="372" y="24" type="line"/>
			<point x="465" y="428" type="line" smooth="yes"/>
			<point x="490" y="536"/>
			<point x="442" y="598"/>
			<point x="340" y="598" type="curve" smooth="yes"/>
			<point x="238" y="598"/>
			<point x="168" y="536"/>
			<point x="143" y="428" type="curve" smooth="yes"/>
			<point x="46" y="8" type="line" smooth="yes"/>
			<point x="44" y="-1"/>
			<point x="45" y="-6"/>
			<point x="63" y="-6" type="curve" smooth="yes"/>
			<point x="95" y="-6"/>
			<point x="133" y="22"/>
			<point x="145" y="76" type="curve" smooth="yes"/>
			<point x="156" y="126"/>
			<point x="140" y="152"/>
			<point x="95" y="152" type="curve" smooth="yes"/>
			<point x="92" y="152" type="line"/>
			<point x="95" y="148" type="line"/>
			<point x="159" y="428" type="line" smooth="yes"/>
			<point x="181" y="526"/>
			<point x="248" y="582"/>
			<point x="340" y="582" type="curve" smooth="yes"/>
			<point x="432" y="582"/>
			<point x="472" y="526"/>
		</contour>
		<contour>
			<point x="62" y="8" type="curve"/>
			<point x="92" y="138" type="line"/>
			<point x="127" y="138"/>
			<point x="140" y="117"/>
			<point x="131" y="80" type="curve" smooth="yes"/>
			<point x="120" y="32"/>
			<point x="89" y="8"/>
		</contour>
	</outline>
	<anchor name="bottom" x="503" y="0"/>
	<anchor name="bottomright" x="657" y="0"/>
	<anchor name="top" x="640" y="592"/>
	<anchor name="topright" x="1089" y="592"/>
</glyph>
<glyph name="ta-khmer" format="2">
	<advance width="594"/>
	<unicode hex="178F"/>
	<anchor x="369" y="592" name="top"/>
	<anchor x="558" y="592" name="topright"/>
	<anchor x="421" y="0" name="bottomright"/>
	<anchor x="232" y="0" name="bottom"/>
	<outline>
		<contour>
			<point x="470" y="278" type="curve" smooth="yes"/>
			<point x="405" y="0" type="line"/>
			<point x="421" y="0" type="line"/>
			<point x="486" y="278" type="line" smooth="yes"/>
			<point x="516" y="405"/>
			<point x="460" y="478"/>
			<point x="339" y="478" type="curve" smooth="yes"/>
			<point x="218" y="478"/>
			<point x="137" y="405"/>
			<point x="108" y="278" type="curve" smooth="yes"/>
			<point x="45" y="8" type="line" smooth="yes"/>
			<point x="43" y="-1"/>
			<point x="44" y="-6"/>
			<point x="62" y="-6" type="curve" smooth="yes"/>
			<point x="94" y="-6"/>
			<point x="132" y="22"/>
			<point x="144" y="76" type="curve" smooth="yes"/>
			<point x="155" y="126"/>
			<point x="139" y="152"/>
			<point x="94" y="152" type="curve" smooth="yes"/>
			<point x="91" y="152" type="line"/>
			<point x="94" y="148" type="line"/>
			<point x="124" y="278" type="line" smooth="yes"/>
			<point x="151" y="395"/>
			<point x="229" y="462"/>
			<point x="339" y="462" type="curve" smooth="yes"/>
			<point x="449" y="462"/>
			<point x="497" y="395"/>
		</contour>
		<contour>
			<point x="61" y="8" type="curve"/>
			<point x="91" y="138" type="line"/>
			<point x="126" y="138"/>
			<point x="139" y="117"/>
			<point x="130" y="80" type="curve" smooth="yes"/>
			<point x="119" y="32"/>
			<point x="88" y="8"/>
		</contour>
		<contour>
			<point x="172" y="576" type="line"/>
			<point x="558" y="576" type="line"/>
			<point x="562" y="592" type="line"/>
			<point x="176" y="592" type="line"/>
		</contour>
	</outline>
</glyph>
<glyph name="to-khmer" format="2">
	<unicode hex="1791"/>
	<advance width="526"/>
	<outline>
		<contour>
			<point x="356" y="222" type="curve"/>
			<point x="361" y="236" type="line"/>
			<point x="184" y="236"/>
			<point x="100" y="317"/>
			<point x="129" y="444" type="curve" smooth="yes"/>
			<point x="149" y="528"/>
			<point x="229" y="586"/>
			<point x="331" y="586" type="curve" smooth="yes"/>
			<point x="426" y="586"/>
			<point x="478" y="536"/>
			<point x="461" y="460" type="curve" smooth="yes"/>
			<point x="457" y="444"/>
			<point x="449" y="429"/>
			<point x="443" y="417" type="curve"/>
			<point x="459" y="417" type="line"/>
			<point x="465" y="427"/>
			<point x="472" y="441"/>
			<point x="477" y="460" type="curve" smooth="yes"/>
			<point x="496" y="546"/>
			<point x="436" y="602"/>
			<point x="331" y="602" type="curve" smooth="yes"/>
			<point x="216" y="602"/>
			<point x="135" y="537"/>
			<point x="114" y="446" type="curve" smooth="yes"/>
			<point x="84" y="313"/>
			<point x="168" y="222"/>
		</contour>
		<contour>
			<point x="188" y="-10" type="curve" smooth="yes"/>
			<point x="265" y="-10"/>
			<point x="326" y="36"/>
			<point x="342" y="107" type="curve" smooth="yes"/>
			<point x="369" y="226" type="line"/>
			<point x="365" y="222" type="line"/>
			<point x="368" y="222" type="line" smooth="yes"/>
			<point x="409" y="227"/>
			<point x="441" y="248"/>
			<point x="450" y="287" type="curve" smooth="yes"/>
			<point x="459" y="324"/>
			<point x="438" y="342"/>
			<point x="400" y="342" type="curve" smooth="yes"/>
			<point x="380" y="342"/>
			<point x="378" y="334"/>
			<point x="377" y="328" type="curve" smooth="yes"/>
			<point x="326" y="108" type="line" smooth="yes"/>
			<point x="312" y="47"/>
			<point x="256" y="6"/>
			<point x="189" y="6" type="curve" smooth="yes"/>
			<point x="122" y="6"/>
			<point x="83" y="47"/>
			<point x="98" y="108" type="curve" smooth="yes"/>
			<point x="116" y="183" type="line"/>
			<point x="100" y="183" type="line"/>
			<point x="82" y="108" type="line" smooth="yes"/>
			<point x="65" y="37"/>
			<point x="111" y="-10"/>
		</contour>
		<contour>
			<point x="372" y="236" type="curve"/>
			<point x="393" y="328" type="line"/>
			<point x="428" y="328"/>
			<point x="444" y="318"/>
			<point x="436" y="286" type="curve" smooth="yes"/>
			<point x="429" y="257"/>
			<point x="407" y="241"/>
		</contour>
	</outline>
	<anchor name="bottom" x="187" y="0"/>
	<anchor name="bottomright" x="307" y="0"/>
	<anchor name="top" x="329" y="592"/>
	<anchor name="topright" x="489" y="592"/>
</glyph>
<glyph name="tho-khmer" format="2">
  <advance width="594"/>
  <unicode hex="1792"/>
  <anchor x="233" y="0" name="bottom"/>
  <anchor x="422" y="0" name="bottomright"/>
  <anchor x="370" y="592" name="top"/>
  <anchor x="559" y="592" name="topright"/>
  <outline>
    <contour>
      <point x="150" y="458" type="curve" smooth="yes"/>
      <point x="44" y="0" type="line"/>
      <point x="62" y="0" type="line"/>
      <point x="276" y="176" type="line"/>
      <point x="408" y="0" type="line"/>
      <point x="422" y="0" type="line"/>
      <point x="524" y="438" type="line"/>
      <point x="526" y="447"/>
      <point x="522" y="452"/>
      <point x="512" y="452" type="curve" smooth="yes"/>
      <point x="473" y="452"/>
      <point x="438" y="423"/>
      <point x="426" y="370" type="curve" smooth="yes"/>
      <point x="415" y="320"/>
      <point x="434" y="294"/>
      <point x="475" y="294" type="curve" smooth="yes"/>
      <point x="478" y="294" type="line"/>
      <point x="475" y="298" type="line"/>
      <point x="411" y="22" type="line"/>
      <point x="279" y="198" type="line"/>
      <point x="65" y="22" type="line"/>
      <point x="166" y="458" type="line" smooth="yes"/>
      <point x="172" y="483"/>
      <point x="169" y="505"/>
      <point x="152" y="523" type="curve"/>
      <point x="155" y="538" type="line" smooth="yes"/>
      <point x="161" y="569"/>
      <point x="183" y="576"/>
      <point x="206" y="576" type="curve" smooth="yes"/>
      <point x="559" y="576" type="line"/>
      <point x="563" y="592" type="line"/>
      <point x="208" y="592" type="line" smooth="yes"/>
      <point x="177" y="592"/>
      <point x="149" y="581"/>
      <point x="141" y="544" type="curve" smooth="yes"/>
      <point x="135" y="516" type="line"/>
      <point x="154" y="496"/>
      <point x="155" y="481"/>
    </contour>
    <contour>
      <point x="508" y="438" type="curve"/>
      <point x="478" y="308" type="line"/>
      <point x="445" y="308"/>
      <point x="430" y="327"/>
      <point x="440" y="369" type="curve" smooth="yes"/>
      <point x="449" y="408"/>
      <point x="480" y="438"/>
    </contour>
  </outline>
</glyph>
<glyph name="no-khmer" format="2">
	<advance width="568"/>
	<unicode hex="1793"/>
	<anchor x="360" y="592" name="top"/>
	<anchor x="538" y="592" name="topright"/>
	<anchor x="392" y="0" name="bottomright"/>
	<anchor x="211" y="0" name="bottom"/>
	<outline>
		<contour>
			<point x="262" y="-6" type="curve" smooth="yes"/>
			<point x="351" y="-6"/>
			<point x="413" y="44"/>
			<point x="435" y="142" type="curve" smooth="yes"/>
			<point x="459" y="247" type="line"/>
			<point x="247" y="274"/>
			<point x="120" y="310"/>
			<point x="153" y="454" type="curve" smooth="yes"/>
			<point x="172" y="536"/>
			<point x="245" y="586"/>
			<point x="350" y="586" type="curve" smooth="yes"/>
			<point x="457" y="586"/>
			<point x="518" y="533"/>
			<point x="500" y="454" type="curve" smooth="yes"/>
			<point x="488" y="404"/>
			<point x="453" y="381"/>
			<point x="407" y="381" type="curve" smooth="yes"/>
			<point x="388" y="381"/>
			<point x="372" y="387"/>
			<point x="364" y="391" type="curve"/>
			<point x="360" y="375" type="line"/>
			<point x="370" y="370"/>
			<point x="388" y="365"/>
			<point x="406" y="365" type="curve" smooth="yes"/>
			<point x="461" y="365"/>
			<point x="502" y="393"/>
			<point x="516" y="453" type="curve" smooth="yes"/>
			<point x="535" y="538"/>
			<point x="469" y="602"/>
			<point x="351" y="602" type="curve" smooth="yes"/>
			<point x="236" y="602"/>
			<point x="159" y="549"/>
			<point x="138" y="458" type="curve" smooth="yes"/>
			<point x="103" y="304"/>
			<point x="237" y="258"/>
			<point x="440" y="234" type="curve"/>
			<point x="419" y="142" type="line" smooth="yes"/>
			<point x="399" y="56"/>
			<point x="349" y="10"/>
			<point x="262" y="10" type="curve" smooth="yes"/>
			<point x="149" y="10"/>
			<point x="98" y="89"/>
			<point x="96" y="157" type="curve"/>
			<point x="84" y="138" type="line"/>
			<point x="92" y="57"/>
			<point x="160" y="-6"/>
		</contour>
		<contour>
			<point x="44" y="0" type="line"/>
			<point x="58" y="0" type="line"/>
			<point x="89" y="123" type="line"/>
			<point x="111" y="218" type="line"/>
			<point x="95" y="218" type="line"/>
		</contour>
	</outline>
</glyph>
<glyph name="ba-khmer" format="2">
	<advance width="588"/>
	<unicode hex="1794"/>
	<anchor x="367" y="592" name="top"/>
	<anchor x="553" y="592" name="topright"/>
	<anchor x="406" y="0" name="bottomright"/>
	<anchor x="230" y="0" name="bottom"/>
	<outline>
		<contour>
			<point x="232" y="-10" type="curve" smooth="yes"/>
			<point x="350" y="-10"/>
			<point x="430" y="63"/>
			<point x="460" y="190" type="curve" smooth="yes"/>
			<point x="520" y="448" type="line" smooth="yes"/>
			<point x="527" y="480"/>
			<point x="520" y="505"/>
			<point x="483" y="523" type="curve"/>
			<point x="487" y="541" type="line" smooth="yes"/>
			<point x="493" y="569"/>
			<point x="507" y="576"/>
			<point x="530" y="576" type="curve" smooth="yes"/>
			<point x="577" y="576" type="line"/>
			<point x="581" y="592" type="line"/>
			<point x="532" y="592" type="line" smooth="yes"/>
			<point x="501" y="592"/>
			<point x="481" y="581"/>
			<point x="473" y="546" type="curve" smooth="yes"/>
			<point x="466" y="516" type="line"/>
			<point x="506" y="496"/>
			<point x="511" y="478"/>
			<point x="504" y="448" type="curve" smooth="yes"/>
			<point x="444" y="190" type="line" smooth="yes"/>
			<point x="417" y="73"/>
			<point x="340" y="6"/>
			<point x="232" y="6" type="curve" smooth="yes"/>
			<point x="124" y="6"/>
			<point x="77" y="73"/>
			<point x="104" y="190" type="curve" smooth="yes"/>
			<point x="164" y="448" type="line" smooth="yes"/>
			<point x="171" y="480"/>
			<point x="164" y="505"/>
			<point x="127" y="523" type="curve"/>
			<point x="131" y="541" type="line" smooth="yes"/>
			<point x="137" y="569"/>
			<point x="151" y="576"/>
			<point x="174" y="576" type="curve" smooth="yes"/>
			<point x="221" y="576" type="line"/>
			<point x="225" y="592" type="line"/>
			<point x="176" y="592" type="line" smooth="yes"/>
			<point x="145" y="592"/>
			<point x="125" y="581"/>
			<point x="117" y="546" type="curve" smooth="yes"/>
			<point x="110" y="516" type="line"/>
			<point x="150" y="496"/>
			<point x="155" y="478"/>
			<point x="148" y="448" type="curve" smooth="yes"/>
			<point x="88" y="190" type="line" smooth="yes"/>
			<point x="58" y="63"/>
			<point x="114" y="-10"/>
		</contour>
	</outline>
</glyph>
<glyph name="pha-khmer" format="2">
	<unicode hex="1795"/>
	<advance width="594"/>
	<outline>
		<contour>
			<point x="150" y="458" type="curve" smooth="yes"/>
			<point x="44" y="0" type="line"/>
			<point x="62" y="0" type="line"/>
			<point x="276" y="176" type="line"/>
			<point x="408" y="0" type="line"/>
			<point x="422" y="0" type="line"/>
			<point x="524" y="438" type="line"/>
			<point x="526" y="447"/>
			<point x="522" y="452"/>
			<point x="512" y="452" type="curve" smooth="yes"/>
			<point x="473" y="452"/>
			<point x="438" y="423"/>
			<point x="426" y="370" type="curve" smooth="yes"/>
			<point x="415" y="320"/>
			<point x="434" y="294"/>
			<point x="475" y="294" type="curve" smooth="yes"/>
			<point x="478" y="294" type="line"/>
			<point x="475" y="298" type="line"/>
			<point x="411" y="22" type="line"/>
			<point x="279" y="198" type="line"/>
			<point x="65" y="22" type="line"/>
			<point x="166" y="458" type="line" smooth="yes"/>
			<point x="172" y="483"/>
			<point x="169" y="505"/>
			<point x="152" y="523" type="curve"/>
			<point x="155" y="538" type="line" smooth="yes"/>
			<point x="161" y="569"/>
			<point x="183" y="576"/>
			<point x="206" y="576" type="curve" smooth="yes"/>
			<point x="354" y="576" type="line"/>
			<point x="431" y="523" type="line"/>
			<point x="473" y="523" type="line" smooth="yes"/>
			<point x="521" y="523"/>
			<point x="548" y="545"/>
			<point x="558" y="590" type="curve" smooth="yes"/>
			<point x="568" y="634" type="line"/>
			<point x="552" y="634" type="line"/>
			<point x="542" y="590" type="line" smooth="yes"/>
			<point x="534" y="556"/>
			<point x="511" y="539"/>
			<point x="474" y="539" type="curve" smooth="yes"/>
			<point x="437" y="539" type="line"/>
			<point x="361" y="592" type="line"/>
			<point x="208" y="592" type="line" smooth="yes"/>
			<point x="177" y="592"/>
			<point x="149" y="581"/>
			<point x="141" y="544" type="curve" smooth="yes"/>
			<point x="135" y="516" type="line"/>
			<point x="154" y="496"/>
			<point x="155" y="481"/>
		</contour>
		<contour>
			<point x="508" y="438" type="curve"/>
			<point x="478" y="308" type="line"/>
			<point x="445" y="308"/>
			<point x="430" y="327"/>
			<point x="440" y="369" type="curve" smooth="yes"/>
			<point x="449" y="408"/>
			<point x="480" y="438"/>
		</contour>
	</outline>
	<anchor name="bottom" x="233" y="0"/>
	<anchor name="bottomright" x="422" y="0"/>
	<anchor name="top" x="370" y="592"/>
	<anchor name="topright" x="559" y="592"/>
</glyph>
<glyph name="po-khmer" format="2">
	<unicode hex="1796"/>
	<advance width="594"/>
	<outline>
		<contour>
			<point x="406" y="0" type="line"/>
			<point x="422" y="0" type="line"/>
			<point x="536" y="491" type="line"/>
			<point x="460" y="598" type="line"/>
			<point x="456" y="598" type="line"/>
			<point x="350" y="507" type="line"/>
			<point x="286" y="598" type="line"/>
			<point x="282" y="598" type="line"/>
			<point x="158" y="491" type="line"/>
			<point x="46" y="8" type="line" smooth="yes"/>
			<point x="44" y="-1"/>
			<point x="45" y="-6"/>
			<point x="63" y="-6" type="curve" smooth="yes"/>
			<point x="95" y="-6"/>
			<point x="133" y="22"/>
			<point x="145" y="76" type="curve" smooth="yes"/>
			<point x="156" y="126"/>
			<point x="140" y="152"/>
			<point x="95" y="152" type="curve" smooth="yes"/>
			<point x="92" y="152" type="line"/>
			<point x="95" y="148" type="line"/>
			<point x="173" y="486" type="line"/>
			<point x="280" y="578" type="line"/>
			<point x="344" y="488" type="line"/>
			<point x="348" y="488" type="line"/>
			<point x="454" y="578" type="line"/>
			<point x="519" y="486" type="line"/>
		</contour>
		<contour>
			<point x="62" y="8" type="curve"/>
			<point x="92" y="138" type="line"/>
			<point x="127" y="138"/>
			<point x="140" y="117"/>
			<point x="131" y="80" type="curve" smooth="yes"/>
			<point x="120" y="32"/>
			<point x="89" y="8"/>
		</contour>
	</outline>
	<anchor name="bottom" x="233" y="0"/>
	<anchor name="bottomright" x="422" y="0"/>
	<anchor name="top" x="370" y="592"/>
	<anchor name="topright" x="549" y="592"/>
</glyph>
